<svg xmlns="http://www.w3.org/2000/svg" xmlns:xlink="http://www.w3.org/1999/xlink" width="551.998" height="428.885" viewBox="0 0 551.998 428.885">
    <defs>
        <linearGradient id="linear-gradient" x1=".874" x2=".217" y1=".974" y2=".221" gradientUnits="objectBoundingBox">
            <stop offset="0" stop-color="#2484c6"/>
            <stop offset="1" stop-color="#2484c6" stop-opacity="0"/>
        </linearGradient>
        <linearGradient id="linear-gradient-2" x1=".097" x2=".845" y1=".999" y2=".158" xlink:href="#linear-gradient"/>
        <linearGradient id="linear-gradient-3" x1="0" x2="1" y1=".5" y2=".5" xlink:href="#linear-gradient"/>
        <linearGradient id="linear-gradient-4" x2="1" y1=".5" y2=".5" gradientUnits="objectBoundingBox">
            <stop offset="0" stop-color="#f7941e"/>
            <stop offset="1" stop-color="#f7941e" stop-opacity="0"/>
        </linearGradient>
        <style>
            .cls-1{fill:#78e2ff}.cls-3,.cls-41{fill:#00a4d6}.cls-19,.cls-3,.cls-5,.cls-7{opacity:.2}.cls-3,.cls-45{mix-blend-mode:multiply;isolation:isolate}.cls-6,.cls-7{fill:#18bdf7}.cls-15,.cls-8{fill:#4a63fe}.cls-8{opacity:.26}.cls-14{fill:none;stroke-miterlimit:10;stroke:#00a4d6;opacity:.1}.cls-22,.cls-47{opacity:.5}.cls-14{stroke-width:3.127px}.cls-16{fill:#425de2}.cls-19,.cls-25,.cls-27{fill:#fff}.cls-21{fill:#f9ee53}.cls-22{fill:#9cd7ff}.cls-27{opacity:.3}.cls-54{fill:url(#linear-gradient-3)}.cls-45{fill:#5fb0e7}.cls-32{fill:#a55520}.cls-33{fill:#594a5f}.cls-34{fill:#b8ecff}.cls-35{fill:#2c1e56}.cls-37{fill:#4c4199}.cls-42{fill:#3a3a3a}.cls-44{fill:#1c44b5}.cls-47{fill:#aec1ff}.cls-49{fill:#ebfaff}.cls-50{fill:#b2ebf9}.cls-51{fill:#80d4dd}.cls-53{fill:#61c5f2}.cls-54{opacity:.58}.cls-55{fill:#39a7d8}.cls-56{fill:#258baf}
        </style>
    </defs>
    <g id="Group_65" transform="translate(-440.733 -118.228)">
        <g id="Group_2" transform="translate(601.684 468.095)">
            <path id="Path_3" d="M500.359 405.387L493.8 383.15s9.973-42.279-11.022-44.18c-19.942-1.806-14.595 36.277-13.967 40.347-.683-4.262-7.92-46.523-25.269-40.09-19.416 7.2 11.772 46.373 11.772 46.373-7-9.049-25.022-22.441-31.367-8.27-2.767 6.179 3.163 11.931 10.731 16.454-4.842-1.142-9.818-1.693-11.422.269-4.472 5.467 4.675 11.838 22.258 12.187 6.371.128 9.6-1.19 11.134-2.919l.346.109z" class="cls-1" transform="translate(-422.128 -338.562)"/>
            <path id="Path_4" fill="url(#linear-gradient)" d="M500.359 405.387L493.8 383.15s9.973-42.279-11.022-44.18c-19.942-1.806-14.595 36.277-13.967 40.347-.683-4.262-7.92-46.523-25.269-40.09-19.416 7.2 11.772 46.373 11.772 46.373-7-9.049-25.022-22.441-31.367-8.27-2.767 6.179 3.163 11.931 10.731 16.454-4.842-1.142-9.818-1.693-11.422.269-4.472 5.467 4.675 11.838 22.258 12.187 6.371.128 9.6-1.19 11.134-2.919l.346.109z" transform="translate(-422.128 -338.562)"/>
            <path id="Path_5" d="M457.659 392.906s-21.839-8.446-16.574-15.727c3.321-4.591 9.737 3.209 9.737 3.209s-8.441-11.046-1.138-14.414c7.582-3.5 11.649 9.237 11.649 9.237s-2.82-11.158 2.952-12.732 6.212 11.157 6.212 11.157 7.456-10.038 11.9-2.033c4.029 7.262-8.2 21.74-8.2 21.74" class="cls-3" transform="translate(-411.707 -324.897)"/>
            <path id="Path_6" d="M583.064 397.155c.376-4.015-8.64-4.023-15.558-3.292 9.2-5.225 17.215-11.99 14.181-18.764-6.346-14.171-26.993 1.452-33.989 10.5 0 0 31.188-39.172 11.771-46.373-17.349-6.432-24.585 35.828-25.269 40.09.628-4.07 5.974-42.153-13.968-40.347-20.994 1.9-17.582 66.417-17.582 66.417s79.102 5.793 80.414-8.231z" class="cls-1" transform="translate(-375.98 -338.562)"/>
            <path id="Path_7" fill="url(#linear-gradient-2)" d="M583.064 397.155c.376-4.015-8.64-4.023-15.558-3.292 9.2-5.225 17.215-11.99 14.181-18.764-6.346-14.171-26.993 1.452-33.989 10.5 0 0 31.188-39.172 11.771-46.373-17.349-6.432-24.585 35.828-25.269 40.09.628-4.07 5.974-42.153-13.968-40.347-20.994 1.9-17.582 66.417-17.582 66.417s79.102 5.793 80.414-8.231z" transform="translate(-375.98 -338.562)"/>
            <path id="Path_8" d="M532.19 393.844s21.838-8.446 16.572-15.727c-3.321-4.593-9.737 3.209-9.737 3.209s8.443-11.047 1.14-14.414c-7.582-3.5-11.65 9.237-11.65 9.237s2.822-11.158-2.952-12.732-6.212 11.157-6.212 11.157-7.456-10.038-11.9-2.034c-4.029 7.264 8.2 21.74 8.2 21.74" class="cls-3" transform="translate(-373.569 -324.358)"/>
        </g>
        <g id="Group_7" transform="translate(440.733 119.228)">
            <g id="Group_4" transform="translate(21.97 233.175)">
                <g id="Group_3" class="cls-5">
                    <path id="Path_9" d="M378.546 273.832a25.453 25.453 0 1 0 5.724 22.06 25.438 25.438 0 0 0-5.724-22.06zm1.49 21.159a21.114 21.114 0 1 1 .468-4.423 21.227 21.227 0 0 1-.468 4.423z" class="cls-6" transform="translate(-333.863 -265.087)"/>
                </g>
                <path id="Path_10" d="M371.525 284.98a25.52 25.52 0 0 1-13.549 17.472l-1.93-3.861a21.227 21.227 0 0 0 11.246-14.511z" class="cls-7" transform="translate(-321.118 -254.175)"/>
                <path id="Path_11" d="M375.876 273.832l-3.264 2.839a21.123 21.123 0 0 0-31.011-.926l-3.091-3.029a25.447 25.447 0 0 1 37.366 1.116z" class="cls-8" transform="translate(-331.193 -265.087)"/>
            </g>
            <g id="Group_6" opacity="0.8" transform="translate(186.142 19.955)">
                <g id="Group_5" class="cls-5">
                    <path id="Path_12" d="M467.857 135.491a16.936 16.936 0 1 0 3.807 14.677 16.916 16.916 0 0 0-3.807-14.677zm.99 14.078a14.043 14.043 0 1 1 .312-2.944 14.12 14.12 0 0 1-.312 2.944z" class="cls-6" transform="translate(-438.127 -129.673)"/>
                </g>
                <path id="Path_13" d="M463.184 142.907a16.979 16.979 0 0 1-9.014 11.625l-1.285-2.57a14.12 14.12 0 0 0 7.482-9.654z" class="cls-7" transform="translate(-429.647 -122.413)"/>
                <path id="Path_14" d="M466.081 135.491l-2.171 1.89a14.057 14.057 0 0 0-20.635-.617l-2.056-2.015a16.934 16.934 0 0 1 24.863.743z" class="cls-8" transform="translate(-436.351 -129.673)"/>
            </g>
            <path id="Path_15" fill="#00a4d6" d="M346.747 326.7l2.582-1.924a16 16 0 0 0-4.928-4.927l-1.923 2.581a12.7 12.7 0 0 0-3.595-1.49l.468-3.19a15.628 15.628 0 0 0-6.971 0l.466 3.19a12.7 12.7 0 0 0-3.595 1.49l-1.923-2.581a16.013 16.013 0 0 0-4.928 4.927l2.582 1.924a12.577 12.577 0 0 0-1.49 3.593l-3.19-.466a15.626 15.626 0 0 0 0 6.971l3.19-.466a12.6 12.6 0 0 0 1.49 3.593l-2.582 1.923a16 16 0 0 0 4.928 4.928l1.923-2.581a12.7 12.7 0 0 0 3.595 1.49l-.466 3.189a15.627 15.627 0 0 0 6.971 0l-.468-3.189a12.7 12.7 0 0 0 3.595-1.49l1.923 2.581a15.984 15.984 0 0 0 4.928-4.928l-2.582-1.923a12.648 12.648 0 0 0 1.491-3.593l3.189.466a15.628 15.628 0 0 0 0-6.971l-3.189.466a12.629 12.629 0 0 0-1.491-3.593zm-10.882 15.081a8.469 8.469 0 1 1 8.468-8.47 8.469 8.469 0 0 1-8.468 8.47z" opacity="0.39" transform="translate(-319.91 -1.879)"/>
            <path id="Path_16" fill="#1d84c9" d="M665.823 174.514l3.87-2.883a23.989 23.989 0 0 0-7.388-7.388l-2.883 3.87a18.931 18.931 0 0 0-5.388-2.234l.7-4.782a23.415 23.415 0 0 0-10.45 0l.7 4.782a18.912 18.912 0 0 0-5.388 2.234l-2.883-3.87a23.992 23.992 0 0 0-7.39 7.388l3.872 2.883a18.916 18.916 0 0 0-2.234 5.388l-4.782-.7a23.413 23.413 0 0 0 0 10.451l4.782-.7a18.935 18.935 0 0 0 2.234 5.388l-3.872 2.883a24.008 24.008 0 0 0 7.39 7.388l2.883-3.87a18.956 18.956 0 0 0 5.388 2.234l-.7 4.782a23.475 23.475 0 0 0 10.45 0l-.7-4.782a18.975 18.975 0 0 0 5.388-2.234l2.883 3.87a24.005 24.005 0 0 0 7.388-7.388l-3.87-2.883a18.977 18.977 0 0 0 2.234-5.388l4.782.7a23.48 23.48 0 0 0 0-10.451l-4.782.7a18.958 18.958 0 0 0-2.234-5.388zm-16.316 22.611a12.7 12.7 0 1 1 12.7-12.7 12.7 12.7 0 0 1-12.7 12.7z" opacity="0.33" transform="translate(-144.274 -92.002)"/>
            <path id="Path_17" fill="none" stroke="#00a4d6" stroke-miterlimit="10" stroke-width="2px" d="M424.221 123.561A6.56 6.56 0 1 1 417.66 117a6.56 6.56 0 0 1 6.561 6.561z" opacity="0.1" transform="translate(-267.514 -117)"/>
            <path id="Path_18" fill="none" stroke="#00a4d6" stroke-miterlimit="10" stroke-width="0.5px" d="M585.558 138.681A6.56 6.56 0 1 1 579 132.12a6.561 6.561 0 0 1 6.558 6.561z" opacity="0.5" transform="translate(-174.813 -108.312)"/>
            <circle id="Ellipse_1" cx="10.259" cy="10.259" r="10.259" class="cls-14" transform="translate(226.406 68.506)"/>
            <path id="Path_19" d="M669.973 268a10.259 10.259 0 1 1-10.26-10.258A10.259 10.259 0 0 1 669.973 268z" class="cls-14" transform="translate(-130.559 -36.13)"/>
        </g>
        <g id="Group_16" transform="translate(489.431 218.49)">
            <g id="Group_8">
                <path id="Path_20" d="M778.818 190.653V436.9a10.618 10.618 0 0 1-10.618 10.614H361.963A10.607 10.607 0 0 1 351.35 436.9V190.653a10.607 10.607 0 0 1 10.613-10.613H768.2a10.618 10.618 0 0 1 10.618 10.613z" class="cls-15" transform="translate(-350.543 -180.04)"/>
                <path id="Path_21" d="M546.445 401.307h-86.98l9.448-37.144 2.141-8.424 4.157-16.313H530.7l4.157 16.313 2.143 8.424z" class="cls-15" transform="translate(-288.422 -88.46)"/>
                <path id="Path_22" d="M533.55 358.21h-68.084l2.141-8.424h63.8z" class="cls-16" transform="translate(-284.974 -82.507)"/>
                <path id="Path_23" d="M594.442 390.119H440.7a6.68 6.68 0 0 1-6.679-6.679 6.68 6.68 0 0 1 6.679-6.681h153.742a6.68 6.68 0 0 1 6.679 6.681 6.68 6.68 0 0 1-6.679 6.679z" class="cls-16" transform="translate(-303.041 -67.009)"/>
                <path id="Rectangle_3" fill="#60f4df" d="M0 0H428.265V186.85H0z" opacity="0.2" transform="translate(0 38.015)"/>
                <path id="Path_24" fill="#3b5bd1" d="M490.667 349.394a9.885 9.885 0 0 1-9.855-9.855 9.884 9.884 0 0 1 9.855-9.855 9.884 9.884 0 0 1 9.855 9.855 9.885 9.885 0 0 1-9.855 9.855z" transform="translate(-276.156 -94.058)"/>
            </g>
            <g id="Group_15" transform="translate(10.982 43.001)">
                <g id="Group_9" transform="translate(137.154)">
                    <rect id="Rectangle_4" width="270.572" height="115.541" class="cls-19" rx="3.282"/>
                    <path id="Path_25" fill="#fff" d="M705.946 265.81v43.915a3.552 3.552 0 0 1-3.559 3.543H452.454a3.552 3.552 0 0 1-3.559-3.543v-96.459c23.083 0 34.578 8.629 41.317 19.966q.661 1.087 1.228 2.22c11.4 21.572 7.967 51.142 33.035 51.142a10.321 10.321 0 0 0 2.645-.331 7.368 7.368 0 0 0 1.543-.5c16.864-7.1 14.234-57.5 44.23-57.142a20.226 20.226 0 0 1 14.974 6.456c.362.394.724.787 1.071 1.212 13.431 15.762 13.62 50.89 34.247 57.268 7.432 2.3 14-.819 20.485-5.968.409-.331.835-.661 1.244-1.023 13.715-11.384 27.35-30.846 48.513-26.075.614.142 1.228.3 1.858.472a44.242 44.242 0 0 1 10.661 4.847z" opacity="0.39" transform="translate(-442.631 -203.95)"/>
                    <path id="Path_26" d="M705.961 250.9a15.789 15.789 0 0 0-10.676 4.015c-5.1 4.519-7.841 12.235-10.518 19.777-4.015 11.29-8.156 22.942-20.265 22.942-.646 0-1.323-.032-2.016-.094-7.889-.772-13.7-7.2-18.816-16-3.181-5.448-6.094-11.825-9.054-18.36-8.376-18.37-17.052-37.38-33.016-37.816-.189 0-.362-.016-.535-.016a17.433 17.433 0 0 0-12.124 4.9c-6.755 6.157-11.054 17.257-15.258 28.122-6.22 16.076-12.644 32.7-27.146 33.035-10.424.22-15.163-3.716-19.415-11.18-1.638-2.9-3.212-6.33-5.007-10.251a189.215 189.215 0 0 0-14.14-26.5 36.95 36.95 0 0 0-16.535-14.064c-16.722-7.29-36.4-1.952-42.545.047V227.8c6.582-2.078 24.973-6.786 41.317-.614a38.6 38.6 0 0 1 19.068 15.431 189.233 189.233 0 0 1 14.266 26.689c1.858 4.062 3.448 7.542 5.117 10.408 4 6.912 8.393 10.329 17.84 10.109 13.447-.315 19.4-15.714 25.713-32.027 4.283-11.069 8.644-22.375 15.651-28.768a18.909 18.909 0 0 1 13.762-5.243c16.974.457 25.839 19.918 34.42 38.75 2.929 6.393 5.763 12.644 8.865 17.982 4.913 8.534 10.424 14.722 17.73 15.447 12.471 1.228 16.439-9.951 20.643-21.808 2.614-7.385 5.29-14.911 10.14-19.714a17.2 17.2 0 0 1 12.5-5.117z" class="cls-21" transform="translate(-442.631 -197.909)"/>
                </g>
                <g id="Group_10" transform="translate(264.661 120.427)">
                    <rect id="Rectangle_5" width="143.065" height="25.32" class="cls-22" rx="2.791"/>
                    <rect id="Rectangle_6" width="143.065" height="25.32" class="cls-19" rx="2.791" transform="translate(0 30.6)"/>
                </g>
                <g id="Group_12">
                    <rect id="Rectangle_7" width="132.79" height="55.92" fill="#9cd7ff" opacity="0.2" rx="3.282"/>
                    <g id="Group_11" opacity="0.3" transform="translate(5.249 5.347)">
                        <rect id="Rectangle_8" width="9.185" height="37.134" class="cls-25" rx=".825" transform="translate(100.948 8.693)"/>
                        <rect id="Rectangle_9" width="9.185" height="45.827" class="cls-25" rx=".917" transform="translate(113.567)"/>
                        <rect id="Rectangle_10" width="9.185" height="45.827" class="cls-25" rx=".917"/>
                        <rect id="Rectangle_11" width="9.185" height="34.969" class="cls-25" rx=".801" transform="translate(12.619 10.858)"/>
                        <rect id="Rectangle_12" width="9.185" height="45.827" class="cls-25" rx=".917" transform="translate(25.237)"/>
                        <rect id="Rectangle_13" width="9.185" height="25.302" class="cls-25" rx=".681" transform="translate(37.856 20.525)"/>
                        <rect id="Rectangle_14" width="9.185" height="45.827" class="cls-25" rx=".917" transform="translate(50.474)"/>
                        <rect id="Rectangle_15" width="9.185" height="37.134" class="cls-25" rx=".825" transform="translate(63.093 8.693)"/>
                        <rect id="Rectangle_16" width="9.185" height="45.827" class="cls-25" rx=".917" transform="translate(75.711)"/>
                        <rect id="Rectangle_17" width="9.185" height="34.969" class="cls-25" rx=".801" transform="translate(88.33 10.858)"/>
                    </g>
                </g>
                <g id="Group_13" transform="translate(0 60.214)">
                    <rect id="Rectangle_18" width="132.79" height="55.92" class="cls-19" rx="3.282"/>
                    <rect id="Rectangle_19" width="132.79" height="55.92" class="cls-19" rx="3.282" transform="translate(0 60.214)"/>
                    <path id="Path_27" fill="#f7ee6c" d="M482.281 250.2a2.493 2.493 0 0 0-2.492 2.493 2.467 2.467 0 0 0 .343 1.242l-20.3 22.92a2.5 2.5 0 0 0-.942-.187 2.463 2.463 0 0 0-1.017.222l-21.84-21.47a2.493 2.493 0 1 0-4.517.033l-28.1 30.323a2.445 2.445 0 0 0-2.633-.131l-15.373-20.019a2.5 2.5 0 1 0-4.184-.231l-17.216 22.326a2.466 2.466 0 0 0-.871-.165 2.506 2.506 0 1 0 2.1 1.153l17.161-22.25a2.361 2.361 0 0 0 1.737.085l15.571 20.279a2.5 2.5 0 1 0 4.656.254l28.246-30.487a2.4 2.4 0 0 0 2.349-.019l21.764 21.386a2.492 2.492 0 1 0 4.3-.074l20.277-22.9a2.493 2.493 0 1 0 .978-4.785z" transform="translate(-356.184 -242.944)"/>
                    <rect id="Rectangle_20" width="112.32" height="4.724" class="cls-27" rx="1.429" transform="translate(4.855 64.441)"/>
                    <rect id="Rectangle_21" width="101.036" height="4.724" class="cls-27" rx="1.355" transform="translate(4.855 72.874)"/>
                    <path id="Path_28" d="M482.27 301.952H363.257a2.363 2.363 0 0 1-2.362-2.362 2.362 2.362 0 0 1 2.362-2.362H482.27a2.362 2.362 0 0 1 2.362 2.362 2.363 2.363 0 0 1-2.362 2.362z" class="cls-27" transform="translate(-356.041 -215.921)"/>
                    <rect id="Rectangle_22" width="89.882" height="4.724" class="cls-27" rx="1.278" transform="translate(4.855 89.739)"/>
                    <rect id="Rectangle_23" width="113.501" height="4.724" class="cls-27" rx="1.437" transform="translate(4.855 98.172)"/>
                    <path id="Path_29" d="M482.27 318.019H363.257a2.363 2.363 0 0 1-2.362-2.362 2.362 2.362 0 0 1 2.362-2.362H482.27a2.362 2.362 0 0 1 2.362 2.362 2.363 2.363 0 0 1-2.362 2.362z" class="cls-27" transform="translate(-356.041 -206.689)"/>
                </g>
                <g id="Group_14" transform="translate(137.486 120.434)">
                    <path id="Path_30" d="M501.041 311.785a27.957 27.957 0 1 1-27.949-27.949 27.337 27.337 0 0 1 6.456.756 27.951 27.951 0 0 1 21.4 24.973q.093 1.11.093 2.22z" class="cls-22" transform="translate(-445.128 -283.836)"/>
                    <path id="Path_31" d="M490.742 309.289l-27.854 2.22 6.456-27.193a27.951 27.951 0 0 1 21.398 24.973z" class="cls-21" transform="translate(-434.923 -283.56)"/>
                    <path id="Path_32" d="M540.463 288h-53.788a1.843 1.843 0 0 1-1.842-1.842 1.843 1.843 0 0 1 1.842-1.842h53.788a1.843 1.843 0 0 1 1.842 1.842 1.843 1.843 0 0 1-1.842 1.842z" class="cls-22" transform="translate(-422.314 -283.56)"/>
                    <rect id="Rectangle_24" width="49.403" height="3.683" class="cls-22" rx="1.084" transform="translate(62.519 8.081)"/>
                    <rect id="Rectangle_25" width="38.184" height="3.683" class="cls-22" rx=".953" transform="translate(62.519 15.405)"/>
                    <path id="Path_33" d="M540.463 301.956h-53.788a1.843 1.843 0 0 1-1.842-1.842 1.843 1.843 0 0 1 1.842-1.842h53.788a1.843 1.843 0 0 1 1.842 1.842 1.843 1.843 0 0 1-1.842 1.842z" class="cls-22" transform="translate(-422.314 -275.542)"/>
                    <rect id="Rectangle_26" width="51.174" height="3.683" class="cls-22" rx="1.104" transform="translate(62.519 30.054)"/>
                    <path id="Path_34" d="M540.463 311.258h-53.788a1.843 1.843 0 0 1-1.842-1.842 1.841 1.841 0 0 1 1.842-1.841h53.788a1.841 1.841 0 0 1 1.842 1.841 1.843 1.843 0 0 1-1.842 1.842z" class="cls-22" transform="translate(-422.314 -270.196)"/>
                    <path id="Rectangle_27" d="M1.052 0H45.4a1.052 1.052 0 0 1 1.05 1.052v1.58a1.052 1.052 0 0 1-1.05 1.052H1.051A1.051 1.051 0 0 1 0 2.632v-1.58A1.052 1.052 0 0 1 1.052 0z" class="cls-22" transform="translate(62.519 44.703)"/>
                    <path id="Path_35" d="M540.463 320.561h-53.788a1.841 1.841 0 0 1-1.842-1.841 1.843 1.843 0 0 1 1.842-1.842h53.788a1.843 1.843 0 0 1 1.842 1.842 1.841 1.841 0 0 1-1.842 1.841z" class="cls-22" transform="translate(-422.314 -264.851)"/>
                </g>
            </g>
            <path id="Path_36" d="M778.818 190.653V436.9a10.618 10.618 0 0 1-10.618 10.614H361.963A10.607 10.607 0 0 1 351.35 436.9V190.653a10.607 10.607 0 0 1 10.613-10.613H768.2a10.618 10.618 0 0 1 10.618 10.613z" transform="translate(-350.543 -180.04)" style="mix-blend-mode:overlay;isolation:isolate" fill="url(#linear-gradient-3)"/>
        </g>
        <g id="Group_25" transform="translate(514.653 323.935)">
            <g id="Group_18" transform="translate(4.21)" style="isolation:isolate;mix-blend-mode:multiply" opacity="0.3">
                <g id="Group_17">
                    <path id="Path_37" fill="#5fb0e7" d="M481.4 271.134c.142-.6-.551-.772-1.275.409a6.71 6.71 0 0 1-4.535 3.023c-.126-.315.315-.425.63-1.118.362-.772.126-1.307-.2-1.433-.268-.095-.85.787-1.055.945-.772.661-1.527 1.307-2.3 1.953a4.979 4.979 0 0 0-1.665 2.268c-.016.063-.063.283-.11.567-5.117 3.905-22.028 8.786-24.312 10.172-.551.331-4.11.409-8.424.378-.016-.535-.047-.866-.047-.866s-6.991-1.165-10.329-3.133a7.56 7.56 0 0 0-4.739-.945 6.5 6.5 0 0 0-.5-.771c-.031-.047-.063-.079-.094-.126-.85-.992-2.11-1.512-2.882-2.551-.079-1.275-.126-4.125.535-5.385.488-.929 2.409-2.661 4.629-4.456.976-.787 1.748-2.425 1.165-4.976-.866-3.826-1.181-5.5-1.732-6.613-.394-.8-1.087-1.354-1.449-2.063a2.887 2.887 0 0 1-.2-.378c.992-1.118-1.905-9.243-10.833-9.022a15.386 15.386 0 0 0-6.6 1.228c-2 1.008-4.236 2.818-4.094 4.614-3.165.614-3.606 3.826-3.858 5.039a16.082 16.082 0 0 0-.189 5.212c.331 2.567 1.291 5.023 1.8 7.558a11.1 11.1 0 0 1-.283 6.33c-.787 1.89-2.661 2.913-3.622 4.755a8.375 8.375 0 0 0 .11 7.59c.567 1.055 1.165 1.952 1.653 2.866a92.8 92.8 0 0 0-2.6 9.558l-23.4 3.968a1.278 1.278 0 0 0-1.039 1.464l5.81 34.168a1.267 1.267 0 0 0 1.464 1.023l19.77-3.356a32.4 32.4 0 0 0 .031 8.093c.315 2.315 2.645 8.676 3.007 10.975.819 5.275 2.5 13.006 2.409 19.005a13.182 13.182 0 0 0 1.638 1.039c1.26 7.212 2.315 13.809 2.173 14.817-.315 2.252-2.8 8.581-3.653 15.21-.031.268-.063.551-.094.866h12.974c.9-4.755 1.638-8.944 2.094-12.14v-.016c.11-.8.2-1.512.283-2.173.016-.063.016-.142.031-.189.032-.362.063-.693.094-1.008.047-.551.079-1.134.126-1.732.016-.173.016-.362.031-.535.031-.488.047-.992.063-1.527.016-.142.016-.283.031-.441.016-.646.032-1.307.047-2.015.016-.2.016-.425.016-.63.016-.535.016-1.071.016-1.622 0-.252.016-.5.016-.756v-.63c2.173 6.3 3.858 11.164 3.858 11.164a71.012 71.012 0 0 0-2.3 14.25h12.423c.394-7.18.724-13.148.834-16a124.25 124.25 0 0 0-.394-14.99c0-.016 0-.016.016-.016.772-7.243.63-13.022.079-23.068a83.892 83.892 0 0 0-4.393-21.288l12.2-2.078a1.243 1.243 0 0 0 1.023-1.449L435.9 298.39a16.8 16.8 0 0 1 1.889.094 10.228 10.228 0 0 0 .268-1.464c4.409-.378 8.078-.771 8.991-.945 7.149-1.4 24.926-13.431 26.484-14.5 1.071.268 4.377-.882 5.228-2.252a2.338 2.338 0 0 0 .394-1.5c.5-.6 1.386-2.708-.142-2.267 1.574-1.056 1.967-2.642 2.388-4.422z" transform="translate(-369.53 -247.007)"/>
                </g>
            </g>
            <g id="Group_24" transform="translate(0 .003)">
                <g id="Group_19" transform="translate(15.776 215.346)">
                    <path id="Path_38" fill="#00a4d6" d="M446.788 387.687c0 2.16-15.65 3.914-34.957 3.914s-34.956-1.754-34.956-3.914 15.65-3.914 34.956-3.914 34.957 1.753 34.957 3.914z" transform="translate(-376.875 -383.773)" style="isolation:isolate;mix-blend-mode:multiply" opacity="0.5"/>
                </g>
                <g id="Group_23">
                    <g id="Group_20" transform="translate(28.22 81.136)">
                        <path id="Path_39" d="M403.6 311.913l-16.645-13.375s-3.9 9.41-.806 19.278c1.524 4.851-.1 8.3.726 10.6.768 2.148 6.41 32.687 6.1 34.937s-2.8 8.585-3.648 15.2c-1.02 7.961-.2 33.8-.973 40.673s5.58 7.882 5.873 5.555c2.5-19.884 9.619-50.947 10.482-60.878s-.024-28.058-1.109-51.99z" class="cls-32" transform="translate(-384.679 -298.538)"/>
                        <path id="Path_40" d="M399.566 319.44l-6.706 16.451a36.482 36.482 0 0 1 5.357 16.947c.194 3.138-.008 6.292.154 9.432a3.08 3.08 0 0 0 .112.682c.839-4.68 1.456-8.536 1.675-11.043.609-7.016.348-18.141-.241-32.495a2.905 2.905 0 0 0-.351.026z" class="cls-32" transform="translate(-380.135 -286.542)"/>
                        <path id="Path_41" d="M395.018 375.149s-1.348 7.224-.916 8.131 1.964 3.535 3.492 4.462c1.6.972 5.13 2.09 5.42 2.519a1.086 1.086 0 0 1-.165 1.474 7.255 7.255 0 0 1-4.957 1.384c-4.762-.671-5.3-2.756-8.075-3.026-.477-.046-1.345.68-2.68.036a3.137 3.137 0 0 1-1.921-3c.15-1.986 1.222-3.645 1.979-5.128s1.154-8.2 1.154-8.2" class="cls-32" transform="translate(-384.531 -255.292)"/>
                        <path id="Path_42" d="M403.474 388.651c.332-.6.4-1.5.071-1.707a27.659 27.659 0 0 0-2.995-1.707c-.929-.4-2.4-.74-1.877-.476s-.4 1.326-1.263 1.294c-2.978-.112-5.217-2.034-6.92-2.417-2.459-.553-3.551-3.414-3.67-3.88a11.436 11.436 0 0 0-1.675 3.39 5.834 5.834 0 0 0-.3 2.563 5.955 5.955 0 0 1 .329 2.43 4.654 4.654 0 0 0 1.771.592 6.926 6.926 0 0 0 1.893-.017l.175-1.54a6.93 6.93 0 0 1 1.515.112 8.18 8.18 0 0 1 2.335 1.024c.349.4.639 1.129 1.093 1.345a9.486 9.486 0 0 0 3.924.88c3.19.109 5.027-.861 5.594-1.886z" class="cls-33" transform="translate(-384.778 -251.87)"/>
                    </g>
                    <g id="Group_21" transform="translate(31.368 78.313)">
                        <path id="Path_43" d="M426.486 434.82c-.354-.384-4.141-.96-5.922-1.683a10.2 10.2 0 0 1-4.173-3.9c-.408-.959-.367-5.839-.335-7.889.209-14.115 2.469-48.626 2.763-56.888.51-14.36-1.5-29.158-7.259-52.144l-20.723-15.574s-5.651 10.764-3.62 20.981c1.179 5.928 6.114 6.791 6.971 9.092s13.675 39.391 13.675 39.391a70.042 70.042 0 0 0-2.392 16.886c-.044 7.525 3.6 30.189 4.319 38.831.091 1.688.424 5.73-.061 7.023-.594 1.584-2.13 3.453-2.033 5.443a3.061 3.061 0 0 0 2.365 2.683c1.461.438 2.266-.413 2.765-.439 2.9-.148 3.721 1.838 8.726 1.785a7.93 7.93 0 0 0 4.948-2.118 1.059 1.059 0 0 0-.014-1.48z" class="cls-32" transform="translate(-386.777 -296.745)"/>
                        <path id="Path_44" d="M419.5 387.858c.266-.644.222-1.543-.143-1.7a28.669 28.669 0 0 0-3.311-1.241c-1.011-.258-2.571-.373-2-.187s-.246 1.373-1.142 1.471c-3.091.339-5.648-1.231-7.457-1.354-2.611-.18-3.6-2.855-3.777-3.3a11.961 11.961 0 0 0-1.809 3.617 5.666 5.666 0 0 0 .013 2.586 5.635 5.635 0 0 1 .649 2.359 4.927 4.927 0 0 0 1.907.32 7.556 7.556 0 0 0 1.954-.3l-.016-1.553a7.554 7.554 0 0 1 1.579-.116 5.246 5.246 0 0 1 2.56.875c.427.316.88.85 1.382.971a10.483 10.483 0 0 0 4.066.266c3.315-.372 5.092-1.613 5.545-2.714z" class="cls-33" transform="translate(-379.344 -248.021)"/>
                    </g>
                    <g id="Group_22" transform="translate(51.445 23.662)">
                        <path id="Path_45" d="M433.978 272.937c1.027.3 4.392-.869 5.259-2.256a2.346 2.346 0 0 0 .394-1.494c.507-.6 1.381-2.707-.137-2.266 1.563-1.047 1.96-2.637 2.384-4.417.142-.6-.549-.776-1.271.406a6.724 6.724 0 0 1-4.536 3.028c-.128-.326.31-.431.636-1.126.362-.768.126-1.3-.219-1.43-.26-.1-.849.779-1.05.951l-2.294 1.948a4.791 4.791 0 0 0-1.664 2.266c-.065.173-.464 1.937.291 1.689" class="cls-32" transform="translate(-381.263 -262.037)"/>
                        <path id="Path_46" d="M402.34 286.7c7.72-.088 21.545-1.411 23.446-1.782 7.487-1.469 26.617-14.584 26.617-14.584a3.643 3.643 0 0 0-2.552-3.908c-4.853 3.936-22.222 8.925-24.537 10.332-1.5.912-25.785-.082-25.785-.082" class="cls-32" transform="translate(-399.528 -259.515)"/>
                    </g>
                    <path id="Path_47" d="M386.573 273.277a98.573 98.573 0 0 0-4.352 15.836l7.936 1.249V279.12" class="cls-34" transform="translate(-358.027 -231.916)"/>
                    <rect id="Rectangle_28" width="66.877" height="37.179" class="cls-35" rx=".802" transform="rotate(-9.643 349.335 29.467)"/>
                    <path id="Path_48" fill="#39297f" d="M434.7 311.02l-59.91 10.428a1.1 1.1 0 0 1-1.269-.9l-5.061-29.783a1.1 1.1 0 0 1 .9-1.269l59.91-10.428a1.1 1.1 0 0 1 1.269.9l5.061 29.783a1.1 1.1 0 0 1-.9 1.269z" transform="translate(-365.946 -228.599)"/>
                    <path id="Path_49" d="M376.823 314.262l-1 .167a.945.945 0 0 1-1.093-.775L370.369 288a.946.946 0 0 1 .776-1.093l1-.168a.948.948 0 0 1 1.093.776l4.36 25.655a.949.949 0 0 1-.775 1.092z" class="cls-37" transform="translate(-364.845 -224.189)"/>
                    <path id="Path_50" d="M380.24 313.608l-1 .167a.949.949 0 0 1-1.094-.776l-4.358-25.653a.949.949 0 0 1 .776-1.094l1-.167a.949.949 0 0 1 1.094.775l4.358 25.655a.949.949 0 0 1-.776 1.093z" class="cls-37" transform="translate(-362.882 -224.565)"/>
                    <path id="Path_51" d="M383.656 312.952l-1 .169a.949.949 0 0 1-1.093-.776L377.2 286.69a.945.945 0 0 1 .775-1.093l1-.168a.947.947 0 0 1 1.093.776l4.36 25.655a.946.946 0 0 1-.772 1.092z" class="cls-37" transform="translate(-360.919 -224.941)"/>
                    <path id="Path_52" d="M387.073 312.3l-1 .167a.946.946 0 0 1-1.093-.775l-4.36-25.655a.949.949 0 0 1 .776-1.094l1-.167a.948.948 0 0 1 1.093.776l4.36 25.653a.95.95 0 0 1-.776 1.095z" class="cls-37" transform="translate(-358.956 -225.317)"/>
                    <path id="Path_53" d="M390.49 311.644l-1 .168a.95.95 0 0 1-1.094-.776l-4.358-25.655a.947.947 0 0 1 .776-1.093l1-.168a.95.95 0 0 1 1.094.776l4.358 25.655a.947.947 0 0 1-.776 1.093z" class="cls-37" transform="translate(-356.992 -225.694)"/>
                    <path id="Path_54" d="M393.906 310.99l-1 .167a.948.948 0 0 1-1.093-.775l-4.358-25.655a.948.948 0 0 1 .775-1.094l1-.167a.946.946 0 0 1 1.093.776l4.36 25.655a.948.948 0 0 1-.777 1.093z" class="cls-37" transform="translate(-355.029 -226.07)"/>
                    <path id="Path_55" d="M397.323 310.336l-1 .167a.946.946 0 0 1-1.093-.776l-4.36-25.653a.949.949 0 0 1 .776-1.094l1-.167a.947.947 0 0 1 1.093.775l4.36 25.655a.95.95 0 0 1-.776 1.093z" class="cls-37" transform="translate(-353.066 -226.445)"/>
                    <path id="Path_56" d="M400.74 309.681l-1 .167a.948.948 0 0 1-1.094-.775l-4.358-25.655a.946.946 0 0 1 .776-1.093l1-.169a.949.949 0 0 1 1.094.776l4.358 25.655a.948.948 0 0 1-.776 1.094z" class="cls-37" transform="translate(-351.103 -226.822)"/>
                    <path id="Path_57" d="M404.156 309.027l-1 .167a.948.948 0 0 1-1.093-.776l-4.363-25.654a.948.948 0 0 1 .775-1.094l1-.167a.946.946 0 0 1 1.093.775l4.36 25.655a.949.949 0 0 1-.772 1.094z" class="cls-37" transform="translate(-349.14 -227.197)"/>
                    <path id="Path_58" d="M407.573 308.372l-1 .169a.947.947 0 0 1-1.093-.776l-4.36-25.655a.946.946 0 0 1 .776-1.093l1-.169a.949.949 0 0 1 1.093.776l4.36 25.655a.948.948 0 0 1-.776 1.093z" class="cls-37" transform="translate(-347.177 -227.574)"/>
                    <path id="Path_59" d="M410.99 307.718l-1 .167a.949.949 0 0 1-1.094-.775l-4.358-25.655a.949.949 0 0 1 .776-1.094l1-.167a.949.949 0 0 1 1.094.776l4.358 25.655a.948.948 0 0 1-.776 1.093z" class="cls-37" transform="translate(-345.214 -227.95)"/>
                    <path id="Path_60" d="M391.061 297.009c-5.72 4.936-7.915 13.127-6.764 21.868.305 2.315 2.641 8.671 3 10.984.82 5.261 2.505 13 2.406 19 7.678 5.569 23.269 5.081 30.326.926.784-7.251.638-13.016.082-23.066-.838-15.162-7.6-29.3-7.737-30.561" class="cls-33" transform="translate(-357.005 -218.766)"/>
                    <path id="Path_61" d="M411.893 300.616a71.88 71.88 0 0 0 .376 11.494 22.9 22.9 0 0 1 .378 3.031 1.734 1.734 0 0 1-.6 1.183 8.367 8.367 0 0 1-4.163 1.609c-5.686 1.028-14.68.343-17.215.839-2.381.48-4.831-.324-4.831-1.781 0-1.011.926-1.576 1.011-3.563.189-4.351.052-14.251-.754-18.671-1.679-9.266-2.14-14.765-.976-25.129l17.369-4.933c1.337.222.754 4.3 2.091 4.522.976.154 6.475 5.379 8.033 11.545a24.193 24.193 0 0 1 2 4.009 7.072 7.072 0 0 1-.017 5.481 38.747 38.747 0 0 0-2.702 10.364z" class="cls-34" transform="translate(-356.733 -236.847)"/>
                    <path id="Path_62" d="M402.4 293.29a71.879 71.879 0 0 0 .376 11.494 22.908 22.908 0 0 1 .378 3.031 1.734 1.734 0 0 1-.6 1.182v-.017c.513-1.148-.72-6.853-1.25-10.055a36.25 36.25 0 0 1 .753-13.345c1.13-3.922 1.559-5.79 1.559-5.79s.891-1.335 1.508-2.346a7.071 7.071 0 0 1-.017 5.481 38.748 38.748 0 0 0-2.707 10.365z" class="cls-34" transform="translate(-347.239 -229.521)"/>
                    <path id="Path_63" d="M404.613 270.173a7.605 7.605 0 0 1 5.119.877c3.351 1.978 10.342 3.143 10.342 3.143s.537 7.986-.326 11.052c0 0-2.321-.365-9.206.383-7.119.772-16.621 5.487-16.621 5.487" class="cls-34" transform="translate(-351.305 -233.769)"/>
                    <path id="Path_64" d="M409.048 255.64c-1.7-3.259-4.4-7.871-10.857-7.232s-11.983 4.71-11.9 9.547 3.354 10.661 4.615 14.009.727 8.32.727 8.32l14.308-.513s-.372-4.373.5-6.026c.49-.924 2.406-2.658 4.629-4.453.97-.784 1.756-2.422 1.173-4.976-.869-3.818-1.181-5.5-1.738-6.616-.405-.805-1.086-1.35-1.457-2.06z" class="cls-32" transform="translate(-355.691 -246.24)"/>
                    <path id="Path_65" fill="#00215b" d="M410.967 282.459c-.868-1.027-2.2-1.54-2.965-2.645a5.967 5.967 0 0 1-1.02-3.873 7.215 7.215 0 0 1 .855-2.192c1.557-3.137 1.655-5.165-.567-7.7a8.8 8.8 0 0 1-1.816-2.741c-.337-.94-.6-1.965.315-2.535a1.22 1.22 0 0 1 1.649.016c.353.318 1.373 3.313 1.554 1.258.172-1.968.918-2.464-.809-6-.2-.419-1.161-2.064-1.017-2.441 2.219.422 2.976 1.006 3.885 2.423.992-1.112-1.905-9.241-10.832-9.018a15.272 15.272 0 0 0-6.591 1.222c-2.006 1.017-4.24 2.814-4.107 4.617-3.16.608-3.606 3.833-3.851 5.032a15.867 15.867 0 0 0-.187 5.226c.335 2.565 1.288 5.013 1.8 7.553a11.06 11.06 0 0 1-.29 6.322c-.784 1.891-2.66 2.919-3.611 4.765a8.3 8.3 0 0 0 .106 7.585c1.233 2.335 2.776 3.869 2.373 6.738a9.168 9.168 0 0 0 3.02 8.752 9.436 9.436 0 0 0 6.821 1.847 15.724 15.724 0 0 0 5.593-1.765c3.335-1.811 6.308-2.979 8.463-7.789 1.22-2.726-.565-3.105.521-5.9.611-1.565 1.915-2.863 2.082-4.6a5.84 5.84 0 0 0-1.269-4.039z" transform="translate(-357.872 -247.009)"/>
                </g>
            </g>
        </g>
        <g id="Group_26" transform="translate(788.041 313.697)">
            <path id="Path_66" d="M628.892 412.142c-.472-.709-.992-1.354-1.512-2h.016c-.016-.016-.031-.047-.063-.079-.3-.362-.614-.724-.929-1.071-5.653-6.818-6-12.628-6-12.754-.094-7.731-.189-18.486-.283-26.075-.016-2.126-.031-4.015-.063-5.511 0-.63 0-1.181-.016-1.669 0 0 .094-.614.236-1.417.126-.8.3-1.811.457-2.614.158-.835.331-1.811.488-2.882v-.031a28.919 28.919 0 0 0-.031-8.408 9.339 9.339 0 0 1 2.834.614s-1.15-4.062-2.346-8.912c-.441-1.716-.866-3.527-1.275-5.291a69.154 69.154 0 0 1-1.543-8.692c-.268-4.047.9-10 1.685-16.628.189-1.59.347-3.228.457-4.881q.189-2.362.189-4.771c0-.488-.016-.976-.031-1.449a29.87 29.87 0 0 0-2.567-11.054c-.22-.488-.441-.961-.693-1.417a45.441 45.441 0 0 0-5.243-7.952 4.841 4.841 0 0 0-1.543-2.378 14.64 14.64 0 0 1-.409-4.85c2.425-1.008 4.913-10.5 3.795-17.336q-.094-.614-.236-1.181a12.636 12.636 0 0 0-7.878-9.413c-6.146-2.5-11.421-1.66-14.228.455a50.892 50.892 0 0 0-9.314 8.252c-2.546 2.891-1.71 6.264 1.219 7.366a7.954 7.954 0 0 0 1.984.488 11.088 11.088 0 0 0 1.622.063 4.55 4.55 0 0 0 .929 3.448c.142.22.724.535.787.8a7.651 7.651 0 0 1 0 2.614 1.047 1.047 0 0 0-.016.22c-.142.661-.3 1.559-.409 2.409-.047.488-.094.976-.094 1.37a2.543 2.543 0 0 0 .094.787c.189.5.85.63 1.527.614.268-.016.52-.031.756-.063.11.22.2.441.315.661a19.253 19.253 0 0 0 3.2 4.74 4.357 4.357 0 0 0 1.165.3 15.091 15.091 0 0 0 6.692-1.354 14.213 14.213 0 0 1 .52 1.905c-.63.22-1.024.346-1.024.346a27.8 27.8 0 0 0 0 3.527 11.62 11.62 0 0 0-1.165 1.165 7.266 7.266 0 0 0-.63.787 5.449 5.449 0 0 0-.315.5 58.759 58.759 0 0 0-6.424 14.171c-.661 2.031-1.244 4.11-1.764 6.22-.016.031-.016.063-.031.094-.3.047-.63.11-.992.157-4.393.787-12.14 2.362-20.3 4.629l-2.315.661.047.378c-1.26.016-3.244-.173-4.409-.047-.756.063-2.33 1.527-3.81 2.724-1.2 1.37-2.283 2.6-1.952 2.8a.418.418 0 0 0 .189.047 2.273 2.273 0 0 0 1.118-.63 1 1 0 0 0 .646-.016c.583-.173 1.464-1.26 1.89-1.559.189-.142.661-.441 1.1-.724a2.948 2.948 0 0 1 1.433.031.687.687 0 0 1-.362.835c-.394.252-1.323.362-1.4.63-.079.252 0 .756 1.338.5a7.143 7.143 0 0 0 2.771-1.134 3.28 3.28 0 0 1 1.89-.6l.079.52s10.109.094 19.619-.126l1.527-.047q-.213 1.11-.378 2.22a3.662 3.662 0 0 1-.583.063l-3.448.094a.742.742 0 0 0-.268-.063h-31.965l-2.362-6.566-1.764-4.881-2.252-6.22-4.062-11.274a1 1 0 0 0-1.26-.6l-.409.158a.987.987 0 0 0-.6 1.275l3.763 10.439 2.252 6.22 1.748 4.881 2.393 6.613c-.756-.63-1.181-.709-1.071-.047a6.978 6.978 0 0 0 3.685 4.236 21.533 21.533 0 0 0 4.141 1.165 3.833 3.833 0 0 0 1.638-.047 16.054 16.054 0 0 1 2.96-.394l-.031 1.039s10.439 1.118 17.667 2.157c2.976.425 5.9.677 8.613.8-.079.756-.173 1.527-.252 2.283-.268 2.614-.472 5.149-.63 7.511-.142 1.874-.252 3.637-.346 5.291-.362 6.944-.425 11.731-.708 12.329 0 0 .9.913 4.031 1.1q.071.945.142 1.937v.016c-.11.976-.378 4.9-.74 9.936-.11 1.732-.252 3.59-.378 5.511-.551 7.952-1.181 16.927-1.59 21.855a6.133 6.133 0 0 0-.362 2.425c.016.551-.016 6.094 0 6.755.11 2.551.331 6.629.6 11.573h13.053c-.079-.472-.173-.945-.268-1.4-.031-.173-.063-.331-.094-.5-.016-.283-.047-.63-.11-1.086-.724-6.094-.74-4.33.929-12.03.866-2.22 1.905-4.865 3.023-7.7 1.8 6.377 3.291 11.809 3.921 15.021a.679.679 0 0 0 .016.079c.031.173.063.331.094.488a3.99 3.99 0 0 0 .252.787c.031.079.079.173.11.268a8.347 8.347 0 0 0 .756 1.5c0 .031.031.047.047.079.74 1.181 1.732 2.708 2.9 4.5H629.3c-.141-.198-.267-.403-.408-.608z" transform="translate(-540.481 -240.505)" style="isolation:isolate;mix-blend-mode:multiply" fill="#5fb0e7" opacity="0.3"/>
        </g>
        <g id="Group_33" transform="translate(783.444 317.098)">
            <g id="Group_27" opacity="0.5" transform="translate(21.802 220.92)">
                <path id="Path_67" d="M551.408 385.663c0 1.486 22.455 2.693 50.157 2.693s50.152-1.206 50.152-2.693-22.454-2.694-50.152-2.694-50.157 1.206-50.157 2.694z" class="cls-41" transform="translate(-551.408 -382.969)"/>
            </g>
            <g id="Group_28" transform="translate(39.131 209.591)">
                <path id="Path_68" d="M569.473 375.774s-.276 7.1.095 8.72c.291 1.28 4.267 1.406 4.75.727s1.1-8.914 1.1-8.914" class="cls-32" transform="translate(-558.414 -375.774)"/>
                <path id="Path_69" d="M579.42 383.631a27.822 27.822 0 0 1-.379 3.587h-4.8l-.238-.8a7.551 7.551 0 0 1-2.781.8h-4.056c-2.968 0-4.653-.378-4.728-.9-.313-2.184 3.233-2.085 4.157-2.085 2.65 0 5.522-1.241 6.147-2.587.454-.976.253-1.223.8-1.041a1.376 1.376 0 0 1 .824.71 2.431 2.431 0 0 0 2.505 1.367 2.888 2.888 0 0 0 1.623-.783 1.751 1.751 0 0 1 .926 1.732z" class="cls-42" transform="translate(-562.414 -373.029)"/>
            </g>
            <g id="Group_29" transform="translate(93.209 207.21)">
                <path id="Path_70" d="M601.164 377.517s1.313 3.536 1.888 4.716 4.483-.274 4.681-1.085-2.973-6.886-2.973-6.886" class="cls-32" transform="translate(-594.226 -374.262)"/>
                <path id="Path_71" d="M611.716 379.518c.505 1.267 1.255 3.725 1.255 3.725l-3.642 2.171-.715-.54a7.1 7.1 0 0 1-1.916 2 15.652 15.652 0 0 1-3.6 1.494c-3.327.759-5.9.392-6.161-.066-1.1-1.911 3.31-2.962 4.168-3.3a5.945 5.945 0 0 0 3.674-4.851c.06-1.075-.217-1.231.359-1.264 0 0 1.123-.189 1.789 1.485.044-.009 2.626-.469 3.291-2.116a1.751 1.751 0 0 1 1.498 1.262z" class="cls-42" transform="translate(-596.758 -371.968)"/>
            </g>
            <g id="Group_31" transform="translate(47.249 91.932)">
                <path id="Path_72" d="M599.252 328.193s.378-2.436.685-4.023c.978-5.037 2.505-15.147-5.738-23.12 0 0-9.717 4.35-17.5 4.875-6.127.414-7.533 0-7.533 0s-.4 8.27 2.074 29z" class="cls-33" transform="translate(-566.664 -301.05)"/>
                <g id="Group_30" transform="translate(6.758 7.882)">
                    <path id="Path_73" d="M618.542 394.262a33.567 33.567 0 0 1-6.253 3.033l-.575-1.011q-.607-1.122-1.26-2.286l-.016-.016a.787.787 0 0 0-.063-.124c-1.384-2.426-2.908-4.993-4.51-7.637l-.016-.014a.128.128 0 0 0-.03-.063c-8.648-14.168-19.673-30.123-23.592-36.406-.016-.031-.047-.047-.047-.077a9.818 9.818 0 0 1-.762-1.494c-.031-.093-.077-.186-.109-.265a4.045 4.045 0 0 1-.249-.792l-.093-.482a.69.69 0 0 1-.016-.079 3.31 3.31 0 0 1 .794-2.814 2.743 2.743 0 0 1 .5-.452c2.115-1.524 6.36-1.181 9.858 1.291.172.124.359.264.545.4.093.061.187.14.28.2a33.77 33.77 0 0 1 8.4 8.429c7.992 12.074 12.734 30.317 17.214 40.659z" class="cls-33" transform="translate(-566.659 -285.192)"/>
                    <path id="Path_74" d="M598.161 367.273c.14 6.642-2.3 8.166-4.993 7.5a7.593 7.593 0 0 1-1.384-.513 12.134 12.134 0 0 1-4.525-4.028c-.016-.032-.046-.047-.031-.077a8.419 8.419 0 0 1-.606-1.121c-.031-.093-.077-.186-.109-.264a4.045 4.045 0 0 1-.249-.792c-.032-.156-.061-.312-.093-.482a.681.681 0 0 1-.016-.079c-.654-3.311-2.209-8.988-4.091-15.614-1.072-3.748-2.239-7.791-3.406-11.866-3.544-12.238-6.889-24.244-6.8-27.758.343-12.628 15.007-2.582 22.036 2.363 2.955 2.1 3.718 5.708 3.765 9.035.061 3.125.342 33.9.466 42.471.016.217.016.42.016.606.02.23.02.433.02.619z" class="cls-33" transform="translate(-571.861 -306.056)"/>
                    <path id="Path_75" d="M590.722 339.4s.309 6.542 7 13.921c0 0-9.673-2.929-10.2-3.485s-3.008-6.739-2.926-7.443 6.126-2.993 6.126-2.993z" class="cls-33" transform="translate(-564.545 -286.896)"/>
                </g>
                <path id="Path_76" fill="#4c4051" d="M611.854 408.851c-1.384-2.426-2.908-4.993-4.51-7.637l-.016-.014a.127.127 0 0 0-.03-.063c-8.648-14.168-19.673-30.123-23.592-36.406-.016-.031-.047-.047-.047-.077a9.813 9.813 0 0 1-.762-1.494c-.031-.093-.077-.186-.109-.265a4.049 4.049 0 0 1-.249-.792c-.032-.156-.062-.312-.093-.482a.684.684 0 0 1-.016-.079c-.653-3.311-2.209-8.988-4.091-15.614l11.061-29.655h4.028s-4.541 13.7-6.393 19.874c-1.85 6.158-2.36 15.8-2.522 19.336-.356 7.76 9.169 20.914 11.89 25.708 2.927 5.159 14.456 25.699 15.451 27.66z" transform="translate(-561.38 -292.303)"/>
                <path id="Path_77" d="M576.539 404.34c-.2.013-.4.011-.578.011a32.851 32.851 0 0 1-6.356-.474l.008-1.167c.329-17.9-1.667-47.157-2.034-56.4-.025-.647.009-6.2 0-6.741-.172-7.964 7.8-.866 10.7 5.369a24.753 24.753 0 0 1 1.633 4.793c.509 2.085.526 4.4 1.044 6.76 3.066 13.945-3.156 36.319-4.417 47.849z" class="cls-33" transform="translate(-567.569 -280.954)"/>
                <path id="Path_78" d="M595.5 324.344c-.033.181-13.184 32.814-15.752 39.9v.013a4.3 4.3 0 0 1-3.135 2.175c-3.54.869-8.755-.568-9.03-7.6a17.21 17.21 0 0 1 .091-2.53c.6-5.684 2.637-37.13 2.967-40.163s.973-7.448 2.59-7.972C581.3 305.6 597.88 313 595.5 324.344z" class="cls-33" transform="translate(-567.569 -297.254)"/>
                <path id="Path_79" d="M577.7 340.028c-1.792 8.353-1.787 6.33-1.038 12.564.727 6.065-1.956-5.306-1.956-5.306l1.677-4.242z" class="cls-33" transform="translate(-563.47 -278.654)"/>
            </g>
            <path id="Path_80" d="M555.506 285.45a8.326 8.326 0 0 0-1.982-.145 6.48 6.48 0 0 1-.69.438v.35a.87.87 0 0 0-.132.019c-.083.043-1.321.836-1.447.934s-1.641 1.819-1.641 1.819a.866.866 0 0 0 .819.06c.572-.167 1.463-1.253 1.88-1.559.19-.14.657-.438 1.105-.72a2.188 2.188 0 0 1 1.9.309c.711.745.188-1.505.188-1.505z" class="cls-32" transform="translate(-530.637 -218.189)"/>
            <path id="Path_81" d="M564.139 283.681s-3.217 1.035-4.215 1.22-3.771-.148-5.25 0c-.761.076-2.324 1.535-3.817 2.737-1.2 1.36-2.272 2.592-1.948 2.793.671.416 2.363-1.715 3.751-2.71a2.125 2.125 0 0 1 2.412-.389c.48.332.268.822-.139 1.08s-1.332.37-1.406.628 0 .76 1.332.51a7.037 7.037 0 0 0 2.773-1.138 3.408 3.408 0 0 1 1.885-.59c1-.112 5.914-.983 5.914-.983" class="cls-32" transform="translate(-531.076 -219.098)"/>
            <path id="Path_82" d="M581.37 280.529l-1.011 8.492-.109.855c-.279.016-.543.016-.824.031-1.275.047-2.6.077-3.919.124-9.5.217-19.61.124-19.61.124l-.583-3.774a226.968 226.968 0 0 1 22.619-5.276c2.167-.373 3.437-.576 3.437-.576z" class="cls-34" transform="translate(-527.361 -220.909)"/>
            <g id="Group_32" transform="translate(0 41.51)">
                <rect id="Rectangle_29" width="2.419" height="32.795" class="cls-44" rx=".632" transform="rotate(-19.78 2.349 .41)"/>
                <rect id="Rectangle_30" width="35.237" height="2.497" class="cls-44" rx=".734" transform="translate(10.919 29.875)"/>
            </g>
            <path id="Path_83" d="M574 280.529l-1.011 8.492c-.278.265-.59.575-.932.886-1.275.047-2.6.077-3.919.124a76.215 76.215 0 0 1 2.426-8.926c2.163-.373 3.436-.576 3.436-.576z" class="cls-34" transform="translate(-519.993 -220.909)"/>
            <path id="Path_84" d="M604.525 335.2c-4.308-1.757-10.762.187-22.907 3.157-12.162 2.985-14.743.249-14.743.249.435-.916.326-11.742 1.678-25.13.28-2.877.654-5.878 1.09-8.926 1.819-12.4 5.084-25.566 11.181-34.649 3.017-4.5 11.586-6.687 11.586-6.687 4.681 5.722 9.3 12.534 9.284 22.814s-2.721 20.34-2.332 26.266c.42 5.943 5.163 22.906 5.163 22.906z" class="cls-34" transform="translate(-520.719 -230.857)"/>
            <path id="Path_85" d="M578.377 309.446a63.292 63.292 0 0 1-10.436.124c.28-2.877.654-5.878 1.09-8.926l.4-.016a5.067 5.067 0 0 0 4.774-3.779c.808-3.048 2.176-7.9 4.229-14.293 3.655-11.414 7.465-11.866 7.465-11.866s5.583-2.861 5.816 3.2c.223 5.978-6.2 34.686-13.338 35.556z" class="cls-34" transform="translate(-520.107 -226.949)"/>
            <path id="Path_86" d="M585.7 324.129s4.14-1.494 6.5-8.6l-2.56-4.511-5.442 2.527s-.924 4.908-.729 5.15 2.231 5.434 2.231 5.434z" class="cls-33" transform="translate(-511.197 -203.389)"/>
            <path id="Path_87" d="M558.138 292.431l-.373-3.031a23.3 23.3 0 0 1-4.015.2c-1.291-.154-2.831-.839-4.7-1.2-1.882-.357-2.286.4-1.99.855.357.529 2.472.794 2.472.794s.3.265-.855.265h-1.19a4.924 4.924 0 0 1-1.408-.633c-.208-.206-.42-.416-.661-.672-1.231-1.305-2.009-1.716-1.878-.833a6.967 6.967 0 0 0 3.692 4.236 21.738 21.738 0 0 0 4.141 1.156 3.753 3.753 0 0 0 1.631-.041 16.086 16.086 0 0 1 3.538-.42c1.038.046 1.683.05 1.683.05 2.319.183 1.095-.331-.087-.726z" class="cls-32" transform="translate(-534.135 -216.787)"/>
            <path id="Path_88" d="M594.785 269.065s-3.807.446-7.467 11.868c-2.044 6.383-3.412 11.244-4.221 14.291a5.081 5.081 0 0 1-4.783 3.776l-26.732.7-.175 5.325s10.436 1.127 17.672 2.16a78.147 78.147 0 0 0 18.175.622c7.141-.875 14.144-32.232 13.8-35.434-.535-4.996-6.269-3.308-6.269-3.308z" class="cls-34" transform="translate(-529.606 -227.654)"/>
            <path id="Path_89" d="M567.387 254.3a8.256 8.256 0 0 0 1.414 4.442c.143.222.731.532.8.8a8.926 8.926 0 0 1-.028 2.831c1.165 4.077 2.87 7.863 5.388 10.518 2.587 1.142 7.635-.652 11.9-2.9.912-.079 5.95-2.557 5.221-9.715s-6.322-13.73-6.7-13.88-11.436 1.882-11.88 1.978-6.115 5.926-6.115 5.926z" class="cls-32" transform="translate(-520.425 -240.529)"/>
            <path id="Path_90" d="M584.176 259.878s-5.709 2.94-5.832-.864-.614-3.932-2.943-1.8-8.048.666-8.525-2.329c-.132-.825 4.5-7.094 6.875-8.506 5.122-3.041 5.934-5.44 15.025-2.074 2.875 1.064 4.168 3.74 5.294 10.58s-.428 12.836-2.861 13.858c-1.565.658-2.308-.938-2.891-4.181-.247-1.688 4.157-4.958-.469-9.186a2.966 2.966 0 0 0-3.673 4.502z" class="cls-35" transform="translate(-520.72 -242.665)"/>
            <path id="Path_91" d="M585.993 259.69s-.433 4.927 1.392 6.468c-2.807 3.39-9.122 3.9-9.122 3.9s1.438-2.312-1.79-8.317 9.52-2.051 9.52-2.051z" class="cls-32" transform="translate(-515.505 -233.617)"/>
            <path id="Path_92" d="M576.892 268.476a27.118 27.118 0 0 1 0-3.524s6.087-2.1 9.013-2.653a4.942 4.942 0 0 1 1.543 2.379s-6.133 3.069-10.556 3.798z" class="cls-34" transform="translate(-515.001 -231.384)"/>
            <path id="Path_93" d="M569.176 255.872s-1.022 4.532-.627 5.626 3.1.386 3.1.386z" class="cls-32" transform="translate(-519.809 -235.077)"/>
        </g>
        <g id="Group_39" transform="translate(476.27 154.036)">
            <g id="Group_34" transform="translate(313.855 82.524)">
                <rect id="Rectangle_31" width="143.03" height="68.494" class="cls-45" rx="2.793" transform="translate(3.155 3.15)"/>
                <path id="Path_94" d="M684.84 195.909v59.708a4.395 4.395 0 0 1-4.393 4.393H546.214a4.4 4.4 0 0 1-4.409-4.393v-59.708a4.4 4.4 0 0 1 4.409-4.393h134.233a4.395 4.395 0 0 1 4.393 4.393z" class="cls-25" transform="translate(-541.805 -191.516)"/>
                <path id="Path_95" fill="#aec1ff" d="M684.84 195.909v8.6H541.805v-8.6a4.4 4.4 0 0 1 4.409-4.393h134.233a4.395 4.395 0 0 1 4.393 4.393z" transform="translate(-541.805 -191.516)"/>
                <path id="Path_96" d="M677.236 204.7v41.207H545.229v-13.162c5.325-7.306 12.606-12.161 29.26-2.319 16 9.457 15.958-20.994 34.247-19.419 18.271 1.575 23.151 28.872 37.336 8.008 14.204-20.864 31.164-14.315 31.164-14.315z" class="cls-47" transform="translate(-539.838 -184.5)"/>
                <path id="Rectangle_32" d="M0 0H26.007V1.771H0z" class="cls-47" transform="translate(5.391 19.945)"/>
                <path id="Rectangle_33" d="M0 0H43.957V1.771H0z" class="cls-47" transform="translate(5.391 23.094)"/>
                <path id="Rectangle_34" d="M0 0H33.001V1.771H0z" class="cls-47" transform="translate(5.391 26.243)"/>
                <path id="Rectangle_35" d="M0 0H39.824V1.771H0z" class="cls-47" transform="translate(5.391 29.393)"/>
                <path id="Rectangle_36" d="M0 0H26.007V1.771H0z" class="cls-47" transform="translate(5.391 32.542)"/>
            </g>
            <g id="Group_36" transform="translate(38.862)">
                <path id="Path_97" d="M451.353 180.036a42.546 42.546 0 0 1-79.753 0z" class="cls-45" transform="translate(-364.609 -115.588)"/>
                <g id="Group_35">
                    <path id="Path_98" d="M374.781 153.206a42.535 42.535 0 0 0-5.322 38.089l40.246-13.809z" class="cls-6" transform="translate(-367.16 -131.004)"/>
                    <path id="Path_99" d="M398.05 139.106v42.545l31.287 28.815a42.534 42.534 0 0 0-31.287-71.36z" class="cls-6" transform="translate(-349.411 -139.106)"/>
                    <path id="Path_100" d="M406.924 141.606A42.448 42.448 0 0 0 372 159.871l34.924 24.28z" class="cls-21" transform="translate(-364.379 -137.67)"/>
                    <path id="Path_101" d="M389.16 210.415a42.551 42.551 0 0 0 39.191-12.975l-31.287-28.815z" class="cls-34" transform="translate(-354.519 -122.144)"/>
                    <path id="Path_102" fill="#15a7ce" d="M368.62 182.435a42.585 42.585 0 0 0 32.342 27.98l7.9-41.789z" transform="translate(-366.321 -122.144)"/>
                </g>
            </g>
            <g id="Group_37" transform="translate(0 155.805)">
                <path id="Path_103" d="M402.666 238.956h-56.7a2.822 2.822 0 0 0-2.822 2.822v17.9a2.822 2.822 0 0 0 2.822 2.822h47.011c.236 1.893 1.565 5.629 8.4 5.629 0 0-2.811-.515-3.4-5.629h4.691a2.821 2.821 0 0 0 2.82-2.822v-17.9a2.821 2.821 0 0 0-2.822-2.822z" class="cls-45" transform="translate(-342.096 -237.539)"/>
                <path id="Path_104" d="M402 238.056h-56.7a2.82 2.82 0 0 0-2.82 2.82v17.9a2.822 2.822 0 0 0 2.82 2.822h47.01c.236 1.891 1.565 5.628 8.4 5.628 0 0-2.811-.515-3.4-5.628H402a2.822 2.822 0 0 0 2.822-2.822v-17.9a2.821 2.821 0 0 0-2.822-2.82z" class="cls-49" transform="translate(-342.479 -238.056)"/>
                <rect id="Rectangle_37" width="58.164" height="2.431" class="cls-50" rx=".551" transform="translate(1.869 2.197)"/>
                <rect id="Rectangle_38" width="58.164" height="2.431" class="cls-50" rx=".551" transform="translate(1.869 6.289)"/>
                <rect id="Rectangle_39" width="58.164" height="2.431" class="cls-50" rx=".551" transform="translate(1.869 10.381)"/>
                <rect id="Rectangle_40" width="58.164" height="2.431" class="cls-50" rx=".551" transform="translate(1.869 14.473)"/>
                <rect id="Rectangle_41" width="58.164" height="2.431" class="cls-50" rx=".551" transform="translate(1.869 18.565)"/>
            </g>
            <g id="Group_38" transform="translate(387.486 164.698)">
                <path id="Path_105" d="M591.389 244.6h56.7a2.822 2.822 0 0 1 2.82 2.822v17.9a2.82 2.82 0 0 1-2.82 2.82h-47.012c-.236 1.893-1.565 5.629-8.4 5.629 0 0 2.811-.515 3.4-5.629h-4.689a2.821 2.821 0 0 1-2.822-2.82v-17.9a2.822 2.822 0 0 1 2.823-2.822z" class="cls-45" transform="translate(-588.567 -243.187)"/>
                <path id="Path_106" d="M592.056 243.7h56.7a2.821 2.821 0 0 1 2.822 2.822v17.9a2.821 2.821 0 0 1-2.822 2.822h-47.014c-.235 1.893-1.565 5.629-8.4 5.629 0 0 2.811-.515 3.4-5.629h-4.689a2.821 2.821 0 0 1-2.822-2.822v-17.9a2.821 2.821 0 0 1 2.825-2.822z" class="cls-49" transform="translate(-588.184 -243.704)"/>
                <rect id="Rectangle_42" width="17.911" height="18.501" class="cls-51" rx=".844" transform="rotate(180 30.76 10.498)"/>
                <rect id="Rectangle_43" width="37.682" height="2.328" class="cls-51" rx=".434" transform="rotate(180 20.588 2.411)"/>
                <rect id="Rectangle_44" width="29.44" height="2.328" class="cls-51" rx=".384" transform="rotate(180 20.588 4.433)"/>
                <rect id="Rectangle_45" width="37.682" height="2.328" class="cls-51" rx=".434" transform="rotate(180 20.588 6.454)"/>
                <rect id="Rectangle_46" width="34.623" height="2.328" class="cls-51" rx=".416" transform="rotate(180 20.588 8.476)"/>
                <rect id="Rectangle_47" width="14.416" height="2.328" class="cls-51" rx=".269" transform="rotate(180 20.588 10.498)"/>
            </g>
        </g>
        <g id="Group_40" transform="translate(697.358 167.399)">
            <path id="Path_107" d="M544.242 186.4h-57.236a6.362 6.362 0 0 1 .559-2c1.456-3.436 6.761-10.383 25.864-13.483l9.43-1.941s21.868-.019 21.383 17.424z" class="cls-34" transform="translate(-480.525 -135.307)"/>
            <path id="Path_108" d="M525.268 180.887h-38.262a6.362 6.362 0 0 1 .559-2 8.7 8.7 0 0 1 4.538-.038c1.4.373 2.335.617 2.335.617h24.893c4.856.002 5.937 1.421 5.937 1.421z" class="cls-34" transform="translate(-480.525 -129.795)"/>
            <path id="Path_109" d="M502.387 173.317a9.269 9.269 0 0 1 1.323 3.245 3.185 3.185 0 0 0 3.272 2.448c8.361-.471 7.805-5.694 7.805-5.694-1.724-2.634-2.771-10.443-2.771-10.443" class="cls-32" transform="translate(-471.687 -138.813)"/>
            <path id="Path_110" d="M489.957 153.759s-.34 11.427 4.354 11.276 0-11.572 0-11.572z" class="cls-35" transform="translate(-478.833 -144.22)"/>
            <path id="Path_111" d="M517.169 166.382a20.584 20.584 0 0 1 .09 3.974 3.31 3.31 0 0 1-.071.43 3.526 3.526 0 0 1-.094.431c-1.135 4.494-6.826 10.835-10.822 11.35a10.616 10.616 0 0 1-1.545.028c-5.566-.254-8.816-4.815-10.7-9.668-.065-.176-.128-.34-.191-.5a44.662 44.662 0 0 1-2.341-10.767c-.033-.383-.293-4.517.516-5.744.89-1.348 11.89-2.623 12.118-2.644s10.8.742 10.8.742a113.821 113.821 0 0 1 2.24 12.368z" class="cls-32" transform="translate(-477.985 -144.332)"/>
            <path id="Path_112" d="M518 161.529a17.531 17.531 0 0 1-.137 3.9 2.993 2.993 0 0 1-.069.43c-.724 4.494-6.221 11.477-12.4 12.03a13.326 13.326 0 0 1-1.379.123c-6.692.271-9.018-4.773-10.868-9.762-.065-.176-.128-.34-.191-.5 0 0 2.329 3.713 3.488 3.826s-.279-1.338 2.87-2.568a15.514 15.514 0 0 1 6.468-.537c1.31.173 3.662.844 4.5.962a.913.913 0 0 0 .48-.043c1.11-.572 3.815-4.815 4.207-7.21.155-.942 2.162-.804 3.031-.651z" class="cls-35" transform="translate(-477.107 -139.649)"/>
            <path id="Path_113" d="M489.986 155.567s-1.825 7.327 11.425 4.1c3.636-.885 6.845-1.712 8.648-.738 2.708 8.52 2.8 12.608 3.755 12.272 1.2-.419-2.052-7.5 2.093-6.733 3.17.584-.139 8.4-.139 8.4s3.853.505 3.965-1.283c.066-1.069.061-12.775-1.537-16.954-.784-2.049-4.976-6.468-6.654-6.462-2.785.009-8.359-.8-11.129-.509a13.377 13.377 0 0 0-10.427 7.907z" class="cls-35" transform="translate(-478.862 -147.593)"/>
            <path id="Path_114" d="M543.087 180.037s-.682 13.789-6.341 22.565v.019s-.055.074-.148.224a.78.78 0 0 0-.15.2c-1.7 2.559-11.131 16.527-17.218 22.074-6.686 6.125-14.379 13.053-14.379 13.053l-.28-.244a19.042 19.042 0 0 0-2.2 2.373c-.524.934-1.047 4.388-2.036 4.78a3.006 3.006 0 0 1-.468.112 3.157 3.157 0 0 1-1.438.635 9.175 9.175 0 0 1-3.1-.316 6.227 6.227 0 0 1-1.419 1.1 30.766 30.766 0 0 1-3.735 1.979c-1.1.356-1.288 0-1.046-.69.224-.71 2.334-1.867 3.1-2.466a11.7 11.7 0 0 0 2.5-3.305c.466-1.027.466-1.587 0-1.587s-1.905.877-3.008 1.1c-1.1.242-1.642-.057-1.1-.691.523-.653 2.072-2.521 3.866-2.989 1.811-.466 2.333-.466 3.621-1.456a11.282 11.282 0 0 0 2.036-2.464l-.447-.392s12.025-16.771 21.027-29.73c.2-.28.392-.523.6-.8 5.1-10.271 5.6-18.413 5.565-21.606a3.105 3.105 0 0 0-1.53-1.475z" class="cls-45" transform="translate(-479.36 -128.951)"/>
            <path id="Path_115" d="M500.531 213.164s-1.926 3.327-3.209 4.319-1.809.992-3.618 1.458-3.356 2.334-3.881 2.976 0 .934 1.11.7 2.538-1.108 3-1.108.468.568 0 1.6a11.5 11.5 0 0 1-2.508 3.305c-.759.584-2.859 1.751-3.094 2.452s-.058 1.05 1.05.7a29.492 29.492 0 0 0 3.735-1.984 6.444 6.444 0 0 0 1.411-1.094 9.252 9.252 0 0 0 3.1.316 3.441 3.441 0 0 0 1.453-.636 2.852 2.852 0 0 0 .457-.109c.992-.4 1.518-3.845 2.042-4.779a44.748 44.748 0 0 1 4.347-4.407z" class="cls-32" transform="translate(-479.814 -109.917)"/>
            <path id="Path_116" d="M532.056 204.682v-.011c5.669-8.775 7.593-22.565 7.593-22.565l-7.237-4.93-3.7 1.776c-2.323-1.016-6.3-2.516-6.3-2.516l-1.74 5.67a3.149 3.149 0 0 1 1.534 1.475c.038 3.19-.475 11.337-5.563 21.61-.2.276-.4.518-.608.813-8.989 12.946-21.021 29.714-21.021 29.714l5.146 4.525s7.7-6.928 14.393-13.045c6.073-5.55 15.508-19.526 17.209-22.074.047-.072.1-.145.145-.217z" class="cls-34" transform="translate(-475.923 -131.021)"/>
            <path id="Path_117" d="M498.738 183.458c-.076-.017-.131-.036-.206-.055.224.242.373.43.43.5.2.224.074.373.074.373-.28.3-.523.261-.877.242a1.38 1.38 0 0 1-.654-.316.983.983 0 0 1-.822.186c-.335-.036-.746-.373-1.288-.915a.271.271 0 0 1 0 .261 1.006 1.006 0 0 1-.9.242 2.9 2.9 0 0 1-1.381-1.008c-.187-.187-.449-.5-.729-.841-.261-.186-.5-.354-.709-.485a1.944 1.944 0 0 0-1.083-.354h-.057v-.019c-2.708-.057-3.921-1.233-7.245-1.233h15.069c-.036.019-.055.038-.093.057a6.385 6.385 0 0 1-.915.167l.074.076c.206.224.392.449.561.653.6.729 1.4 1.68 1.551 1.83.2.242.074.392.074.392a.967.967 0 0 1-.874.247z" class="cls-45" transform="translate(-482.658 -128.949)"/>
            <path id="Path_118" d="M498.333 184.2c-.074-.017-.131-.036-.2-.055.224.242.373.43.43.5.2.224.074.373.074.373-.28.3-.523.261-.877.242a1.38 1.38 0 0 1-.654-.316.983.983 0 0 1-.822.186c-.337-.036-.748-.373-1.29-.915a.266.266 0 0 1 0 .261 1 1 0 0 1-.9.242 2.9 2.9 0 0 1-1.381-1.008c-.187-.187-.449-.5-.729-.841-.261-.186-.5-.354-.71-.485a1.938 1.938 0 0 0-1.083-.354h-.055v-.019c-2.708-.057-3.922-1.233-7.246-1.233 0 0 7.769-3.735 12.457-1.083a15.533 15.533 0 0 0 1.979.206c1.364.019.972.709.542.934a6.388 6.388 0 0 1-.915.167l.074.076c.206.224.392.449.56.653.6.729 1.4 1.68 1.549 1.83.206.242.076.392.076.392a.969.969 0 0 1-.879.247z" class="cls-32" transform="translate(-482.89 -129.692)"/>
            <path id="Path_119" fill="url(#linear-gradient-4)" d="M493.322 180.493a6.386 6.386 0 0 1-.915.167 13.026 13.026 0 0 0-1.606-1.307 15.532 15.532 0 0 0 1.979.206c1.364.019.972.709.542.934z" transform="translate(-478.345 -129.344)" style="isolation:isolate;mix-blend-mode:multiply" opacity="0.47"/>
        </g>
        <g id="Group_64" transform="translate(892.651 442.266)">
            <g id="Group_41" transform="translate(18.309 95.612)">
                <path id="Path_120" d="M670.211 385.521c0 1.6-11.562 2.891-25.833 2.891s-25.833-1.286-25.833-2.891c0-1.1 5.514-2.055 13.636-2.54l.417 1.571a1.505 1.505 0 0 0 1.453 1.12h18.982a1.541 1.541 0 0 0 1.471-1.12l.435-1.672c9.007.452 15.272 1.471 15.272 2.641z" class="cls-41" transform="translate(-618.546 -382.88)"/>
            </g>
            <path id="Path_121" d="M640.726 371.361s-.886-9.244-13.034-13.781-20.774.85-20.774.85 1.19-11.142 10.8-10.636 11.553 6.7 11.553 6.7 5.209-5.424 9.773-1.4c3.788 3.338 3.181 9.964 3.181 9.964s3.595.444 3.075 6.169a14.13 14.13 0 0 1-.32 1.973" class="cls-53" transform="translate(-606.918 -307.437)"/>
            <path id="Path_122" d="M640.726 371.361s-.886-9.244-13.034-13.781-20.774.85-20.774.85 1.19-11.142 10.8-10.636 11.553 6.7 11.553 6.7 5.209-5.424 9.773-1.4c3.788 3.338 3.181 9.964 3.181 9.964s3.595.444 3.075 6.169a14.13 14.13 0 0 1-.32 1.973" class="cls-54" transform="translate(-606.918 -307.437)"/>
            <g id="Group_48" transform="translate(20.955 17.381)">
                <g id="Group_42" transform="translate(4.827 4.106)">
                    <path id="Path_123" d="M638.076 378.156c-.135-28.87-14.636-41.719-14.784-41.846l.438-.505c.148.128 14.877 13.154 15.015 42.348z" class="cls-55" transform="translate(-623.292 -335.804)"/>
                </g>
                <g id="Group_43">
                    <path id="Path_124" d="M625.88 338.107s-3.053.306-4.842-1.105a2.131 2.131 0 0 1 2.639-3.348c1.863 1.469 2.203 4.453 2.203 4.453z" class="cls-55" transform="translate(-620.226 -333.196)"/>
                </g>
                <g id="Group_44" transform="translate(1.313 6.07)">
                    <path id="Path_125" d="M626.588 337.063s-.279 3.056-2 4.546a2.132 2.132 0 1 1-2.787-3.228c1.793-1.549 4.787-1.318 4.787-1.318z" class="cls-55" transform="translate(-621.06 -337.051)"/>
                </g>
                <g id="Group_45" transform="translate(6.729 1.335)">
                    <path id="Path_126" d="M624.5 338.861s.495-3.029 2.321-4.393a2.132 2.132 0 0 1 2.549 3.417c-1.9 1.415-4.87.976-4.87.976z" class="cls-55" transform="translate(-624.5 -334.044)"/>
                </g>
                <g id="Group_46" transform="translate(5.352 11.826)">
                    <path id="Path_127" d="M629.473 340.833s-.633 3-2.521 4.28a2.132 2.132 0 0 1-2.389-3.532c1.964-1.329 4.91-.748 4.91-.748z" class="cls-55" transform="translate(-623.626 -340.707)"/>
                </g>
                <g id="Group_47" transform="translate(11.083 7.632)">
                    <path id="Path_128" d="M627.265 342.419s.846-2.951 2.818-4.089a2.131 2.131 0 1 1 2.132 3.691c-2.053 1.186-4.95.398-4.95.398z" class="cls-55" transform="translate(-627.265 -338.043)"/>
                </g>
            </g>
            <g id="Group_63" transform="translate(35.735)">
                <g id="Group_49" transform="translate(8.248 5.84)">
                    <path id="Path_129" d="M636.162 383.786c-3.341-38.306 14.326-57.115 14.505-57.3l-.642-.617c-.181.186-18.127 19.26-14.751 58z" class="cls-56" transform="translate(-634.852 -325.867)"/>
                </g>
                <g id="Group_50" transform="translate(23.004)">
                    <path id="Path_130" d="M644.223 329.112s4.088.033 6.287-2.055a2.84 2.84 0 1 0-3.91-4.119c-2.29 2.174-2.377 6.174-2.377 6.174z" class="cls-56" transform="translate(-644.223 -322.158)"/>
                </g>
                <g id="Group_51" transform="translate(21.573 8.533)">
                    <path id="Path_131" d="M643.314 327.7s.742 4.02 3.211 5.785a2.839 2.839 0 0 0 3.3-4.62c-2.568-1.84-6.511-1.165-6.511-1.165z" class="cls-56" transform="translate(-643.314 -327.577)"/>
                </g>
                <g id="Group_52" transform="translate(13.794 2.771)">
                    <path id="Path_132" d="M646.309 329.877s-1.025-3.957-3.614-5.541a2.839 2.839 0 1 0-2.965 4.842c2.693 1.65 6.579.699 6.579.699z" class="cls-56" transform="translate(-638.373 -323.917)"/>
                </g>
                <g id="Group_53" transform="translate(16.506 16.567)">
                    <path id="Path_133" d="M640.1 333.082s1.208 3.906 3.866 5.369a2.84 2.84 0 0 0 2.738-4.976c-2.771-1.522-6.604-.393-6.604-.393z" class="cls-56" transform="translate(-640.096 -332.679)"/>
                </g>
                <g id="Group_54" transform="translate(8.403 11.687)">
                    <path id="Path_134" d="M643.217 334.923s-1.482-3.81-4.237-5.081A2.839 2.839 0 1 0 636.6 335c2.869 1.321 6.617-.077 6.617-.077z" class="cls-56" transform="translate(-634.95 -329.58)"/>
                </g>
                <g id="Group_55" transform="translate(12.826 25.56)">
                    <path id="Path_135" d="M637.759 339.109s1.554 3.781 4.333 5a2.84 2.84 0 0 0 2.279-5.2c-2.893-1.271-6.612.2-6.612.2z" class="cls-56" transform="translate(-637.759 -338.391)"/>
                </g>
                <g id="Group_56" transform="translate(4.525 21.478)">
                    <path id="Path_136" d="M640.957 340.643s-1.819-3.662-4.678-4.68a2.839 2.839 0 0 0-1.9 5.35c2.97 1.06 6.578-.67 6.578-.67z" class="cls-56" transform="translate(-632.487 -335.798)"/>
                </g>
                <g id="Group_57" transform="translate(10.282 33.848)">
                    <path id="Path_137" d="M636.143 345.128s2.163 3.469 5.106 4.206a2.839 2.839 0 0 0 1.379-5.508c-3.062-.769-6.485 1.302-6.485 1.302z" class="cls-56" transform="translate(-636.143 -343.654)"/>
                </g>
                <g id="Group_58" transform="translate(1.731 31.459)">
                    <path id="Path_138" d="M639.437 346.015s-2.4-3.308-5.393-3.834a2.839 2.839 0 0 0-.984 5.593c3.109.548 6.377-1.759 6.377-1.759z" class="cls-56" transform="translate(-630.712 -342.137)"/>
                </g>
                <g id="Group_59" transform="translate(9.025 42.702)">
                    <path id="Path_139" d="M635.345 351.25s2.482 3.25 5.481 3.7a2.84 2.84 0 1 0 .853-5.615c-3.122-.469-6.334 1.915-6.334 1.915z" class="cls-56" transform="translate(-635.345 -349.277)"/>
                </g>
                <g id="Group_60" transform="translate(.403 41.359)">
                    <path id="Path_140" d="M638.666 351.74s-2.707-3.064-5.732-3.307a2.839 2.839 0 0 0-.452 5.661c3.15.252 6.184-2.354 6.184-2.354z" class="cls-56" transform="translate(-629.869 -348.424)"/>
                </g>
                <g id="Group_61" transform="translate(8.622 54.008)">
                    <path id="Path_141" d="M635.089 358.43s2.482 3.248 5.481 3.7a2.84 2.84 0 0 0 .852-5.615c-3.122-.469-6.333 1.915-6.333 1.915z" class="cls-56" transform="translate(-635.089 -356.457)"/>
                </g>
                <g id="Group_62" transform="translate(0 52.664)">
                    <path id="Path_142" d="M638.409 358.918s-2.705-3.064-5.73-3.305a2.839 2.839 0 0 0-.452 5.661c3.147.25 6.182-2.356 6.182-2.356z" class="cls-56" transform="translate(-629.613 -355.604)"/>
                </g>
            </g>
            <path id="Path_143" d="M637.894 379.306s-5.324-17.075 5.678-19.72c0 0 .556-22.907 16.848-17.1 0 0 2.367-8.942 11.836-8.525s9.032 9.5 9.032 9.5 8.652 1.357 8.652 8.6c0 0-42.366-11.942-46.006 27.239" class="cls-53" transform="translate(-589.86 -315.382)"/>
            <path id="Path_144" d="M637.894 379.306s-5.324-17.075 5.678-19.72c0 0 .556-22.907 16.848-17.1 0 0 2.367-8.942 11.836-8.525s9.032 9.5 9.032 9.5 8.652 1.357 8.652 8.6c0 0-42.366-11.942-46.006 27.239" class="cls-54" transform="translate(-589.86 -315.382)"/>
            <path id="Path_145" fill="none" stroke="#00bfd8" stroke-miterlimit="10" stroke-width="0.531px" d="M622.509 366.386l7.863 29.755a1.508 1.508 0 0 0 1.458 1.123h18.991a1.509 1.509 0 0 0 1.458-1.123l7.864-29.755a2.937 2.937 0 0 0-2.843-3.686h-31.953a2.935 2.935 0 0 0-2.838 3.686z" transform="translate(-598.017 -298.863)"/>
            <path id="Line_1" fill="none" stroke="#00bfd8" stroke-linecap="round" stroke-miterlimit="10" stroke-width="0.531px" d="M5.274 0L0 27.904" transform="translate(49.151 67.457)"/>
        </g>
    </g>
</svg>
