<svg xmlns="http://www.w3.org/2000/svg" width="432.857" height="264.303" viewBox="0 0 432.857 264.303">
    <defs>
        <clipPath id="clip-path">
            <path id="SVGID" d="M0 0H98.154V149.041H0z" class="cls-1"/>
        </clipPath>
        <clipPath id="clip-path-2">
            <path id="SVGID-2" d="M0 0H98.154V154.272H0z" class="cls-1" transform="rotate(180 49.077 77.136)"/>
        </clipPath>
        <clipPath id="clip-path-3">
            <path id="SVGID-3" d="M130.757 353.5a9.114 9.114 0 0 1 0-18.228h107.9V353.5z" class="cls-1" transform="translate(-121.643 -335.275)"/>
        </clipPath>
        <clipPath id="clip-path-4">
            <path id="SVGID-4" d="M118.753 414.086a17.3 17.3 0 1 1 0-34.6h133.421v34.6z" class="cls-1" transform="translate(-101.451 -379.482)"/>
        </clipPath>
        <style>
            .cls-1,.cls-10,.cls-17,.cls-23,.cls-27,.cls-31,.cls-35,.cls-6,.cls-9{fill:none}.cls-2{fill:#f0fbff}.cls-4{fill:#c0e4ff}.cls-6{stroke:#9dd4f9}.cls-15,.cls-17,.cls-27,.cls-6,.cls-8,.cls-9{stroke-linejoin:round}.cls-15,.cls-8{fill:#fff}.cls-8,.cls-9{stroke:#b8e6ff}.cls-10{stroke:#86bfef}.cls-10,.cls-23,.cls-31,.cls-35{stroke-miterlimit:10}.cls-11{fill:#86bfef}.cls-15{stroke:#418be5}.cls-13{fill:#6ebeff}.cls-14{fill:#85ceff}.cls-17,.cls-27{stroke:#def2ff}.cls-17{stroke-width:5px}.cls-20{fill:#def2ff;opacity:.55;mix-blend-mode:screen;isolation:isolate}.cls-23{stroke:#ccedff}.cls-27{stroke-width:3px}.cls-25{fill:#ccedff}.cls-26{fill:#e6f7ff}.cls-31,.cls-35{stroke:#f4c6a4;stroke-width:1.5px}.cls-35{stroke:#acd9fc}.cls-37,.cls-38{stroke:none}.cls-38{fill:#ffab37}
        </style>
    </defs>
    <g id="Group_437" transform="translate(-37.777 -33.043)">
        <g id="Group_395" transform="translate(38.277 33.043)">
            <path id="Path_722" d="M530.518 73.895a32.453 32.453 0 0 1-3.17-1.427c-2.779-1.825-3.269-5.714-4.407-8.781a7.881 7.881 0 0 0-8.329-4.988 9.955 9.955 0 0 0-6.214 3.6c-1.09 1.179-1.415 5.112-4.773 5.173-.655.012-1.169-.558-1.716-.954a3.288 3.288 0 0 0-4.838 1.658c-.355.969-.326 2.112-.881 2.96-1.424 2.173-4.947.451-6.816 2.173a19.994 19.994 0 0 0-1.58 2.308 6.4 6.4 0 0 1-3.391 1.835c-3.421.987-7.857 1.141-7.857 2.26 0 1.585 17.6.635 27.942.635h17.068c2.652 0 11.151 1.257 11.019-3.681a3.449 3.449 0 0 0-2.057-2.771z" class="cls-2" transform="translate(-193.319 -42.103)"/>
            <path id="Path_723" d="M146.7 111.9a22.5 22.5 0 0 1-1.188-3.41c-.926-2.487-3.082-4.065-5.163-3.779a21.406 21.406 0 0 1-2.869.623c-4.451-.013-4.7-7.49-8.066-9.813-2.975-2.051-6.68-.389-8.541 2.922-1.067 1.9-1.581 4.23-2.385 6.342s-2.291 2.376-4.049 2.793a4.417 4.417 0 0 0-3.151 4.995 4.145 4.145 0 0 0 1.479 2.493c2.82 1.982 7.857 1.773 11.567 1.663 3.481-.1 31.885.22 31.885-.953s-7.798-.917-9.519-3.876z" class="cls-2" transform="translate(-64.071 -54.826)"/>
            <path id="Path_724" d="M409.864 48.348c-.036-.043-.072-.088-.107-.134-1.054-1.393-1.468-2.913-3.212-3.011-2.065-.116-5.43.553-6.284-2.589-.513-1.888 0-4.087-1.1-5.741a3.585 3.585 0 0 0-3.234-1.574c-2.052.118-3.724 1.909-5.73 2.254-2.359.406-3.475-2.408-5.375-3.585-3.351-2.076-6.23-.239-7.947 1.439a12.979 12.979 0 0 0-3.48 7.673c-.43 3.613 2.222 7.122 5.048 8.7a9.172 9.172 0 0 0 4.487.98c1.8.016 3.6-.059 5.389-.109 3.371-.094 30.873.2 30.873-.872 0-.682-4-1.329-4.567-1.533-1.625-.578-3.486-.359-4.761-1.898z" class="cls-2" transform="translate(-156.812 -33.043)"/>
            <g id="Group_384" transform="translate(104.919 19.722)">
                <path id="Path_725" fill="#82bcf4" d="M215.34 75.3l.156 3.789-14.866-15.528z" transform="translate(-200.63 -63.561)"/>
                <path id="Path_726" d="M221.865 70.8l-13.942 9.53-7.293-16.769z" class="cls-4" transform="translate(-200.63 -63.561)"/>
                <path id="Path_727" fill="#9ad0fc" d="M216.532 74.444l-15.9-10.883L214.258 76l1.238 3.093z" transform="translate(-200.63 -63.561)"/>
            </g>
            <g id="Group_385" transform="translate(391.079 74.846)">
                <path id="Line_73" d="M0 0L0 2.988" class="cls-6" transform="translate(1.494)"/>
                <path id="Line_74" d="M2.988 0L0 0" class="cls-6" transform="translate(0 1.494)"/>
            </g>
            <g id="Group_386" transform="translate(415.668 203.994)">
                <path id="Line_75" d="M0 0L0 2.988" class="cls-6" transform="translate(1.494)"/>
                <path id="Line_76" d="M2.988 0L0 0" class="cls-6" transform="translate(0 1.494)"/>
            </g>
            <g id="Group_387" transform="translate(386.011 101.314)">
                <path id="Line_77" d="M0 0L0 2.988" class="cls-6" transform="translate(1.494)"/>
                <path id="Line_78" d="M2.988 0L0 0" class="cls-6" transform="translate(0 1.494)"/>
            </g>
            <g id="Group_388" transform="translate(92.445 47.89)">
                <path id="Line_79" d="M0 0L0 2.988" class="cls-6" transform="translate(1.494)"/>
                <path id="Line_80" d="M2.988 0L0 0" class="cls-6" transform="translate(0 1.494)"/>
            </g>
            <g id="Group_389" transform="translate(11.928 112.738)">
                <path id="Line_81" d="M0 0L0 2.988" class="cls-6" transform="translate(1.494)"/>
                <path id="Line_82" d="M2.988 0L0 0" class="cls-6" transform="translate(0 1.494)"/>
            </g>
            <g id="Group_390" transform="translate(20.13 230.17)">
                <path id="Line_83" d="M0 0L0 2.988" class="cls-6" transform="translate(1.494)"/>
                <path id="Line_84" d="M2.988 0L0 0" class="cls-6" transform="translate(0 1.494)"/>
            </g>
            <g id="Group_391" transform="translate(215.042 30.243)">
                <path id="Line_85" d="M0 0L0 2.988" class="cls-6" transform="translate(1.494)"/>
                <path id="Line_86" d="M2.988 0L0 0" class="cls-6" transform="translate(0 1.494)"/>
            </g>
            <path id="Path_728" d="M391.556 123.556a1.427 1.427 0 1 1-1.426-1.426 1.426 1.426 0 0 1 1.426 1.426z" class="cls-6" transform="translate(-162.244 -64.559)"/>
            <path id="Path_729" d="M677.778 200.972a1.427 1.427 0 1 1-1.427-1.427 1.427 1.427 0 0 1 1.427 1.427z" class="cls-6" transform="translate(-263.497 -91.945)"/>
            <path id="Path_730" d="M484.976 62.78a1.427 1.427 0 1 1-1.427-1.427 1.427 1.427 0 0 1 1.427 1.427z" class="cls-6" transform="translate(-195.292 -43.058)"/>
            <path id="Path_731" d="M279.859 106.368a1.427 1.427 0 1 1-1.426-1.427 1.427 1.427 0 0 1 1.426 1.427z" class="cls-6" transform="translate(-122.73 -58.478)"/>
            <circle id="Ellipse_16" cx="1.427" cy="1.427" r="1.427" class="cls-6" transform="translate(357.061 57.571)"/>
            <circle id="Ellipse_17" cx="1.427" cy="1.427" r="1.427" class="cls-6" transform="translate(0 145.718)"/>
            <circle id="Ellipse_18" cx="1.427" cy="1.427" r="1.427" class="cls-6" transform="translate(52.447 90.182)"/>
            <path id="Path_732" d="M163.979 93.936a1.427 1.427 0 1 1-1.427-1.427 1.427 1.427 0 0 1 1.427 1.427z" class="cls-6" transform="translate(-81.736 -54.08)"/>
            <g id="Group_392" transform="translate(33.21 76.34)">
                <path id="Line_87" d="M0 0L16.115 0" class="cls-6"/>
                <path id="Line_88" d="M0 0L7.192 0" class="cls-6" transform="translate(21.023)"/>
            </g>
            <g id="Group_393" transform="translate(314.806 49.317)">
                <path id="Line_89" d="M0 0L16.115 0" class="cls-6"/>
                <path id="Line_90" d="M0 0L7.192 0" class="cls-6" transform="translate(21.023)"/>
            </g>
            <g id="Group_394" transform="translate(166.802 24.209)">
                <path id="Line_91" d="M10.945 0L0 0" class="cls-6" transform="translate(9.515)"/>
                <path id="Line_92" d="M5.899 0L0 0" class="cls-6"/>
            </g>
            <path id="Line_93" d="M0 0L11.779 0" class="cls-6" transform="translate(244.953 35.576)"/>
            <path id="Line_94" d="M0 0L11.779 0" class="cls-6" transform="translate(404.886 160.421)"/>
            <path id="Line_95" d="M0 0L7.744 0" class="cls-6" transform="translate(413.278 156.146)"/>
            <path id="Path_733" fill="none" stroke="#9dd4f9" stroke-dasharray="3.5" stroke-linejoin="round" d="M381.194 257.806c-15.075-1.28-29.891-4.964-45.071-5.129-6.963-.075-15.531.094-21.948 3.181-6.124 2.946-11.051 8.229-17.538 10.762a31.214 31.214 0 0 1-9.277 1.848c-25.434 1.72-46.954-13.009-70.4-20-9.348-2.786-19.753.7-29.114 2.558-12.534 2.482-24.886 6.622-37.8 6.066-28.025-1.206-62.106-15.565-73.392-43.185-4.871-11.922-6.049-26.377.855-37.776 7.914-13.072 24.671-16.931 39.37-21.131a98.332 98.332 0 0 0 43.944-27.345c8.543-9.2 12.436-21.344 19.649-31.434 8.128-11.371 23.214-19.166 37.188-14.264 14.888 5.222 25.58 15.6 42.173 16.756 12.1.84 23.455-2.644 35.374-3.067a57.114 57.114 0 0 1 46.261 21.563c5.176 6.63 8.889 14.447 14.979 20.249 11.072 10.547 27.824 12.433 43.066 11.216s30.5-9.406 45.622-7.152c17.4 2.591 34.934 16.174 36.217 35.159 1.631 24.14-10.114 47.068-28.529 62.224-19.807 16.295-46.615 21.024-71.629 18.901z" transform="translate(-50.44 -49.818)"/>
        </g>
        <g id="Group_407" transform="translate(39.704 95.489)">
            <g id="Group_396" transform="translate(77.933 8.698)">
                <path id="Path_734" d="M185.933 241.567c-10.92-12.466-32.392-39.439-22.164-98.436 34.867 31.382 38.7 51.868 40.184 91.183" class="cls-8" transform="translate(-161.079 -143.131)"/>
                <path id="Path_735" d="M165.241 143.131s6.066 47.652 30.893 93.238" class="cls-9" transform="translate(-162.552 -143.131)"/>
                <path id="Path_736" d="M165.162 143.131s-3.751 50.869 27.073 97.048" class="cls-9" transform="translate(-162.473 -143.131)"/>
                <path id="Path_737" d="M198.522 234.582c-1.493-11.21-20.972-66.383-33.281-91.451" class="cls-9" transform="translate(-162.552 -143.131)"/>
                <path id="Path_738" d="M202.128 232.008c-5.1-28.387-9.155-56.446-36.887-88.877" class="cls-9" transform="translate(-162.552 -143.131)"/>
            </g>
            <g id="Group_397" transform="translate(48.785 43.648)">
                <path id="Path_739" d="M162.017 270.565c-12.4-6.973-37.479-22.677-46.042-73.352 37.182 15.448 46.133 30.937 58.558 62.338" class="cls-8" transform="translate(-115.975 -197.213)"/>
                <path id="Path_740" d="M115.975 197.213s18.513 36.841 51.624 66.653" class="cls-9" transform="translate(-115.975 -197.213)"/>
                <path id="Path_741" d="M115.975 197.213s11.486 42.247 49.619 70.827" class="cls-9" transform="translate(-115.975 -197.213)"/>
                <path id="Path_742" d="M169.022 261.737c-4.409-8.647-35.927-47.747-53.047-64.524" class="cls-9" transform="translate(-115.975 -197.213)"/>
                <path id="Path_743" d="M171.206 258.624c-12.235-21.521-23.524-43.077-55.231-61.411" class="cls-9" transform="translate(-115.975 -197.213)"/>
            </g>
            <g id="Group_398" transform="translate(0 102.114)">
                <path id="Path_744" d="M126.125 341.439c-16.544-.98-50.825-4.639-85.64-53.353 46.827-2.782 64.1 8.877 93.133 35.432" class="cls-8" transform="translate(-40.485 -287.685)"/>
                <path id="Path_745" d="M40.485 288.306s38.182 29.149 88.07 43.489" class="cls-9" transform="translate(-40.485 -287.904)"/>
                <path id="Path_746" d="M40.485 288.306s33.578 38.4 88.1 48.884" class="cls-9" transform="translate(-40.485 -287.904)"/>
                <path id="Path_747" d="M128.961 328.839c-9.029-6.809-61.986-31.691-88.476-40.533" class="cls-9" transform="translate(-40.485 -287.904)"/>
                <path id="Path_748" d="M129.66 324.464c-23.793-16.3-46.613-33.125-89.175-36.158" class="cls-9" transform="translate(-40.485 -287.904)"/>
            </g>
            <g id="Group_399" transform="translate(32.013 70.843)">
                <path id="Path_749" d="M145.875 309.657c-7.832-36.8-39.186-55.978-39.186-55.978" class="cls-10" transform="translate(-95.919 -244.384)"/>
                <path id="Path_750" d="M101.734 249.921s-6.183-11.391-10.839-7.98 10.839 7.98 10.839 7.98z" class="cls-11" transform="translate(-90.023 -240.006)"/>
                <path id="Path_751" d="M113.687 253.2s2.949-13.394-3.137-13.893 3.137 13.893 3.137 13.893z" class="cls-11" transform="translate(-96.549 -239.295)"/>
                <path id="Path_752" d="M124.121 259.73s7.947-11.177 2.539-14.014-2.539 14.014-2.539 14.014z" class="cls-11" transform="translate(-101.816 -241.453)"/>
                <path id="Path_753" d="M134.6 270.508s7.481-10.522 2.39-13.192-2.39 13.192-2.39 13.192z" class="cls-11" transform="translate(-105.538 -245.563)"/>
                <path id="Path_754" d="M128.246 276.769s-12.064-4.6-13.369 1 13.369-1 13.369-1z" class="cls-11" transform="translate(-98.786 -251.924)"/>
                <path id="Path_755" d="M142.959 280.4s7.481-10.521 2.39-13.192-2.39 13.192-2.39 13.192z" class="cls-11" transform="translate(-108.496 -249.064)"/>
                <path id="Path_756" d="M136.608 286.665s-12.064-4.6-13.369 1 13.369-1 13.369-1z" class="cls-11" transform="translate(-101.744 -255.425)"/>
                <path id="Path_757" d="M150.291 292.2s8.779-9.465 4.077-12.772-4.077 12.772-4.077 12.772z" class="cls-11" transform="translate(-111.333 -253.334)"/>
                <path id="Path_758" d="M143.512 297.749s-11.368-6.119-13.387-.736 13.387.736 13.387.736z" class="cls-11" transform="translate(-104.145 -258.93)"/>
                <path id="Path_759" d="M156.911 302.6s8.78-9.465 4.078-12.772-4.078 12.772-4.078 12.772z" class="cls-11" transform="translate(-113.675 -257.015)"/>
                <path id="Path_760" d="M150.132 308.152s-11.367-6.119-13.386-.736 13.386.736 13.386.736z" class="cls-11" transform="translate(-106.487 -262.61)"/>
                <path id="Path_761" d="M162.282 316.72s8.78-9.464 4.077-12.771-4.077 12.771-4.077 12.771z" class="cls-11" transform="translate(-115.575 -262.009)"/>
                <path id="Path_762" d="M155.5 322.268s-11.367-6.119-13.386-.736 13.386.736 13.386.736z" class="cls-11" transform="translate(-108.387 -267.604)"/>
                <path id="Path_763" d="M116.991 267.542s-13.694-.752-13.205 5.335 13.205-5.335 13.205-5.335z" class="cls-11" transform="translate(-94.887 -249.277)"/>
                <path id="Path_764" d="M108.391 259.137s-12.925-4.587-14.175 1.391 14.175-1.391 14.175-1.391z" class="cls-11" transform="translate(-91.481 -245.72)"/>
            </g>
            <g id="Group_400" transform="translate(.707 132.236)">
                <path id="Path_765" d="M109.71 371.474c-21.657-22.42-52.11-22.132-52.11-22.132" class="cls-10" transform="translate(-47.248 -339.619)"/>
                <path id="Path_766" d="M52.867 347.94s-9.345-5.29-11.12-.849 11.12.849 11.12.849z" class="cls-11" transform="translate(-41.58 -338.195)"/>
                <path id="Path_767" d="M62.587 345.259s-3.808-10.706-8.3-8.384 8.3 8.384 8.3 8.384z" class="cls-11" transform="translate(-45.735 -335.092)"/>
                <path id="Path_768" d="M73.04 345.268s.677-11.343-4.369-10.962 4.369 10.962 4.369 10.962z" class="cls-11" transform="translate(-50.638 -334.296)"/>
                <path id="Path_769" d="M85.1 348.281s.637-10.677-4.112-10.319 4.112 10.319 4.112 10.319z" class="cls-11" transform="translate(-55.026 -335.59)"/>
                <path id="Path_770" d="M83.5 353.554s-10.495 2.067-8.954 6.574 8.954-6.574 8.954-6.574z" class="cls-11" transform="translate(-53.188 -341.109)"/>
                <path id="Path_771" d="M95.321 351.563s.637-10.677-4.112-10.319 4.112 10.319 4.112 10.319z" class="cls-11" transform="translate(-58.641 -336.751)"/>
                <path id="Path_772" d="M93.72 356.836s-10.494 2.067-8.954 6.574 8.954-6.574 8.954-6.574z" class="cls-11" transform="translate(-56.803 -342.27)"/>
                <path id="Path_773" d="M105.972 356.452s2.014-10.5-2.741-10.764 2.741 10.764 2.741 10.764z" class="cls-11" transform="translate(-62.83 -338.325)"/>
                <path id="Path_774" d="M103.393 362.018s-10.674.691-9.729 5.359 9.729-5.359 9.729-5.359z" class="cls-11" transform="translate(-59.984 -344.103)"/>
                <path id="Path_775" d="M115.191 360.856s2.014-10.5-2.741-10.764 2.741 10.764 2.741 10.764z" class="cls-11" transform="translate(-66.092 -339.883)"/>
                <path id="Path_776" d="M112.612 366.422s-10.674.691-9.729 5.359 9.729-5.359 9.729-5.359z" class="cls-11" transform="translate(-63.245 -345.661)"/>
                <path id="Path_777" d="M125.161 368.417s2.014-10.5-2.741-10.764 2.741 10.764 2.741 10.764z" class="cls-11" transform="translate(-69.619 -342.558)"/>
                <path id="Path_778" d="M122.583 373.983s-10.674.691-9.729 5.359 9.729-5.359 9.729-5.359z" class="cls-11" transform="translate(-66.773 -348.336)"/>
                <path id="Path_779" d="M71.909 351.4s-9.953 5.483-6.937 9.546 6.937-9.546 6.937-9.546z" class="cls-11" transform="translate(-49.654 -340.346)"/>
                <path id="Path_780" d="M61.858 349.654s-11.1 2.451-9.349 7.2 9.349-7.2 9.349-7.2z" class="cls-11" transform="translate(-45.38 -339.729)"/>
            </g>
            <g id="Group_401" transform="translate(310.64)">
                <path id="Path_781" d="M537.353 221.582c13.218-10 39.706-32.064 41.634-91.91-40.5 23.672-48.4 42.959-57.813 81.16" class="cls-8" transform="translate(-521.174 -129.672)"/>
                <path id="Path_782" d="M583.74 129.672s-15.587 45.438-49.13 85.053" class="cls-9" transform="translate(-525.927 -129.672)"/>
                <path id="Path_783" d="M585.366 129.672s-6.625 50.575-46.16 89.557" class="cls-9" transform="translate(-527.553 -129.672)"/>
                <path id="Path_784" d="M531.55 212.491c3.732-10.676 33.977-60.763 51.107-82.819" class="cls-9" transform="translate(-524.845 -129.672)"/>
                <path id="Path_785" d="M526.893 209.24c10.746-26.766 20.393-53.424 54.117-79.568" class="cls-9" transform="translate(-523.197 -129.672)"/>
            </g>
            <g id="Group_402" transform="translate(332.049 56.011)">
                <path id="Path_786" d="M565.063 284.991c16.057-4.1 49.019-14.207 73.949-68.647-46.5 6.163-61.25 20.89-84.708 52.475" class="cls-8" transform="translate(-554.303 -216.344)"/>
                <path id="Path_787" d="M642.57 216.344s-31.952 35.87-78.208 59.424" class="cls-9" transform="translate(-557.862 -216.344)"/>
                <path id="Path_788" d="M643.115 216.344s-25.674 44.074-77.211 64.727" class="cls-9" transform="translate(-558.407 -216.344)"/>
                <path id="Path_789" d="M562.878 272.944c7.571-8.4 54.839-42.887 79.167-56.6" class="cls-9" transform="translate(-557.336 -216.344)"/>
                <path id="Path_790" d="M560.53 268.781c20.263-20.526 39.472-41.375 80.684-52.437" class="cls-9" transform="translate(-556.506 -216.344)"/>
            </g>
            <g id="Group_403" transform="translate(332.23 108.341)">
                <path id="Path_791" d="M558.5 338.655c16.425 2.21 50.771 5.193 94.282-35.941-45.425-11.709-64.616-3.579-98.2 16.916" class="cls-8" transform="translate(-554.583 -297.32)"/>
                <path id="Path_792" d="M654.657 305.666s-43.063 21.286-94.776 25.795" class="cls-9" transform="translate(-556.457 -300.273)"/>
                <path id="Path_793" d="M654.075 305.666s-40.318 31.245-95.839 31.083" class="cls-9" transform="translate(-555.875 -300.273)"/>
                <path id="Path_794" d="M560.142 328.482c10.167-4.952 66.912-19.217 94.607-22.816" class="cls-9" transform="translate(-556.55 -300.273)"/>
                <path id="Path_795" d="M560.379 323.379c26.477-11.438 52.1-23.572 94.454-18.388" class="cls-9" transform="translate(-556.633 -299.598)"/>
            </g>
            <g id="Group_404" transform="translate(322.373 148.526)">
                <path id="Path_796" d="M539.33 376.353c10.8 7.452 33.794 21.824 74.461 6.793-28.421-24.753-43.786-25.533-72.285-22.26" class="cls-8" transform="translate(-539.33 -359.503)"/>
                <path id="Path_797" d="M615.031 388.164a206.643 206.643 0 0 1-72.2-14.476" class="cls-9" transform="translate(-540.57 -364.521)"/>
                <path id="Path_798" d="M613.885 390.1s-35.918 8.843-74.29-10.939" class="cls-9" transform="translate(-539.424 -366.457)"/>
                <path id="Path_799" d="M544.2 370.369c8.306-.063 51.23 9.476 71.314 16.621" class="cls-9" transform="translate(-541.052 -363.347)"/>
                <path id="Path_800" d="M546.122 365.382c21.256.912 42.1 1.007 70.072 19.844" class="cls-9" transform="translate(-541.733 -361.583)"/>
            </g>
            <g id="Group_405" transform="translate(339.756 34.845)">
                <path id="Path_801" d="M569.652 253.954c7.831-36.8 39.186-55.978 39.186-55.978" class="cls-10" transform="translate(-567.439 -188.68)"/>
                <path id="Path_802" d="M628.832 194.217s6.183-11.392 10.839-7.981-10.839 7.981-10.839 7.981z" class="cls-11" transform="translate(-588.375 -184.302)"/>
                <path id="Path_803" d="M620.044 197.5s-2.944-13.4 3.138-13.9-3.138 13.9-3.138 13.9z" class="cls-11" transform="translate(-585.013 -183.591)"/>
                <path id="Path_804" d="M610.019 204.027s-7.947-11.178-2.539-14.014 2.539 14.014 2.539 14.014z" class="cls-11" transform="translate(-580.154 -185.749)"/>
                <path id="Path_805" d="M599.708 214.8s-7.48-10.521-2.389-13.192 2.389 13.192 2.389 13.192z" class="cls-11" transform="translate(-576.599 -189.859)"/>
                <path id="Path_806" d="M601.368 221.066s12.064-4.6 13.369 1-13.369-1-13.369-1z" class="cls-11" transform="translate(-578.659 -196.221)"/>
                <path id="Path_807" d="M591.346 224.7s-7.48-10.521-2.39-13.192 2.39 13.192 2.39 13.192z" class="cls-11" transform="translate(-573.641 -193.36)"/>
                <path id="Path_808" d="M593.006 230.962s12.065-4.6 13.369 1-13.369-1-13.369-1z" class="cls-11" transform="translate(-575.701 -199.721)"/>
                <path id="Path_809" d="M583.682 236.5s-8.78-9.465-4.077-12.772 4.077 12.772 4.077 12.772z" class="cls-11" transform="translate(-570.47 -197.631)"/>
                <path id="Path_810" d="M586.038 242.046s11.367-6.119 13.386-.736-13.386.736-13.386.736z" class="cls-11" transform="translate(-573.236 -203.226)"/>
                <path id="Path_811" d="M577.061 246.9s-8.78-9.465-4.077-12.772 4.077 12.772 4.077 12.772z" class="cls-11" transform="translate(-568.128 -201.311)"/>
                <path id="Path_812" d="M579.417 252.449s11.368-6.119 13.386-.737-13.386.737-13.386.737z" class="cls-11" transform="translate(-570.894 -206.906)"/>
                <path id="Path_813" d="M571.691 261.016s-8.78-9.465-4.078-12.772 4.078 12.772 4.078 12.772z" class="cls-11" transform="translate(-566.228 -206.305)"/>
                <path id="Path_814" d="M574.046 266.565s11.368-6.119 13.387-.736-13.387.736-13.387.736z" class="cls-11" transform="translate(-568.994 -211.9)"/>
                <path id="Path_815" d="M612.75 211.839s13.694-.752 13.206 5.335-13.206-5.335-13.206-5.335z" class="cls-11" transform="translate(-582.686 -193.574)"/>
                <path id="Path_816" d="M620.787 203.434s12.925-4.587 14.175 1.391-14.175-1.391-14.175-1.391z" class="cls-11" transform="translate(-585.529 -190.016)"/>
            </g>
            <g id="Group_406" transform="translate(327.486 143.043)">
                <path id="Path_817" d="M547.242 382.634c23.067-19.363 52.3-16.02 52.3-16.02" class="cls-10" transform="translate(-547.242 -356.458)"/>
                <path id="Path_818" d="M626.776 365.662s9.513-4.142 10.77.3-10.77-.3-10.77-.3z" class="cls-11" transform="translate(-575.378 -355.578)"/>
                <path id="Path_819" d="M618.437 362.178s4.736-9.9 8.822-7.221-8.822 7.221-8.822 7.221z" class="cls-11" transform="translate(-572.428 -352.248)"/>
                <path id="Path_820" d="M610.06 361.161s.491-10.967 5.3-10.094-5.3 10.094-5.3 10.094z" class="cls-11" transform="translate(-569.465 -351.018)"/>
                <path id="Path_821" d="M598.383 362.848s.462-10.323 4.99-9.5-4.99 9.5-4.99 9.5z" class="cls-11" transform="translate(-565.334 -351.826)"/>
                <path id="Path_822" d="M598.067 367.672s9.876 3.042 7.942 7.218-7.942-7.218-7.942-7.218z" class="cls-11" transform="translate(-565.222 -356.91)"/>
                <path id="Path_823" d="M588.233 364.973s.463-10.324 4.99-9.5-4.99 9.5-4.99 9.5z" class="cls-11" transform="translate(-561.743 -352.577)"/>
                <path id="Path_824" d="M587.918 369.8s9.876 3.042 7.941 7.218-7.941-7.218-7.941-7.218z" class="cls-11" transform="translate(-561.632 -357.662)"/>
                <path id="Path_825" d="M578.072 368.61s-.878-10.3 3.718-10.066-3.718 10.066-3.718 10.066z" class="cls-11" transform="translate(-558.125 -353.679)"/>
                <path id="Path_826" d="M577.744 373.765s10.187 1.739 8.809 6.13-8.809-6.13-8.809-6.13z" class="cls-11" transform="translate(-558.032 -359.065)"/>
                <path id="Path_827" d="M568.77 371.913s-.878-10.3 3.718-10.066-3.718 10.066-3.718 10.066z" class="cls-11" transform="translate(-554.834 -354.848)"/>
                <path id="Path_828" d="M568.442 377.069s10.187 1.738 8.81 6.128-8.81-6.128-8.81-6.128z" class="cls-11" transform="translate(-554.742 -360.234)"/>
                <path id="Path_829" d="M558.428 378.175s-.878-10.3 3.718-10.066-3.718 10.066-3.718 10.066z" class="cls-11" transform="translate(-551.176 -357.063)"/>
                <path id="Path_830" d="M558.1 383.33s10.186 1.738 8.809 6.129-8.809-6.129-8.809-6.129z" class="cls-11" transform="translate(-551.083 -362.449)"/>
                <path id="Path_831" d="M610.265 366.854s9.011 6.27 5.7 9.871-5.7-9.871-5.7-9.871z" class="cls-11" transform="translate(-569.537 -356.62)"/>
                <path id="Path_832" d="M619.031 366.08s10.415 3.472 8.258 7.859-8.258-7.859-8.258-7.859z" class="cls-11" transform="translate(-572.638 -356.347)"/>
            </g>
        </g>
        <g id="Group_428" transform="translate(136.991 97.339)">
            <rect id="Rectangle_187" width="237.779" height="173.802" fill="#52a5ff" stroke="#418be5" stroke-linejoin="round" rx="5.315" transform="translate(0 3.322)"/>
            <path id="Rectangle_188" d="M0 0H114.701V165.023H0z" class="cls-13" transform="translate(4.189 7.576)"/>
            <path id="Rectangle_189" d="M0 0H114.701V165.023H0z" class="cls-13" transform="rotate(180 116.795 86.3)"/>
            <path id="Path_833" d="M201.822 138.8v164.678c74.509-6.011 111.929 1.289 111.929 1.289v-164.68s-27.639-16.096-111.929-1.287z" class="cls-14" transform="translate(-194.847 -132.535)"/>
            <path id="Path_834" d="M201.8 138.8v164.678c84.29-14.808 111.929 1.289 111.929 1.289v-164.68S286.09 123.991 201.8 138.8z" class="cls-15" transform="translate(-194.839 -132.535)"/>
            <path id="Path_835" d="M486.929 138.8v164.678C412.42 297.467 375 304.766 375 304.766V140.087s27.638-16.096 111.929-1.287z" class="cls-14" transform="translate(-256.11 -132.535)"/>
            <path id="Path_836" d="M486.929 138.8v164.678C402.638 288.67 375 304.766 375 304.766V140.087s27.638-16.096 111.929-1.287z" class="cls-15" transform="translate(-256.11 -132.535)"/>
            <g id="Group_412" transform="translate(13.848 9.989)">
                <g id="Group_411" clip-path="url(#clip-path)">
                    <g id="Group_408" transform="translate(-2.359 4.821)">
                        <path id="Path_837" d="M311.65 162.391s-25.395-14.79-102.843-1.184" class="cls-17" transform="translate(-208.807 -155.452)"/>
                        <path id="Path_838" d="M311.65 179.664s-25.395-14.79-102.843-1.184" class="cls-17" transform="translate(-208.807 -161.563)"/>
                        <path id="Path_839" d="M311.65 196.937s-25.395-14.79-102.843-1.184" class="cls-17" transform="translate(-208.807 -167.673)"/>
                        <path id="Path_840" d="M311.65 214.209s-25.395-14.79-102.843-1.183" class="cls-17" transform="translate(-208.807 -173.783)"/>
                        <path id="Path_841" d="M311.65 231.482s-25.395-14.79-102.843-1.183" class="cls-17" transform="translate(-208.807 -179.894)"/>
                        <path id="Path_842" d="M311.65 248.755s-25.395-14.79-102.843-1.184" class="cls-17" transform="translate(-208.807 -186.004)"/>
                        <path id="Path_843" d="M311.65 266.028s-25.395-14.79-102.843-1.184" class="cls-17" transform="translate(-208.807 -192.115)"/>
                        <path id="Path_844" d="M311.65 283.3s-25.395-14.79-102.843-1.184" class="cls-17" transform="translate(-208.807 -198.225)"/>
                        <path id="Path_845" d="M311.65 300.573s-25.395-14.79-102.843-1.183" class="cls-17" transform="translate(-208.807 -204.336)"/>
                        <path id="Path_846" d="M311.65 317.846s-25.395-14.79-102.843-1.183" class="cls-17" transform="translate(-208.807 -210.446)"/>
                        <path id="Path_847" d="M311.65 335.119s-25.395-14.79-102.843-1.184" class="cls-17" transform="translate(-208.807 -216.556)"/>
                        <path id="Path_848" d="M311.65 352.392s-25.395-14.79-102.843-1.184" class="cls-17" transform="translate(-208.807 -222.667)"/>
                        <path id="Path_849" d="M311.65 369.665s-25.395-14.79-102.843-1.184" class="cls-17" transform="translate(-208.807 -228.777)"/>
                    </g>
                    <path id="Rectangle_190" fill="#fff" d="M0 0H51.981V46.798H0z" transform="translate(49.217)"/>
                    <g id="Group_410" transform="translate(53.626 2.943)">
                        <path id="Path_850" fill="#def2ff" d="M295.438 152.559v37.058c34.3-.374 46.859 6.916 46.859 6.916v-37.058s-12.555-7.289-46.859-6.916z" transform="translate(-295.438 -152.546)"/>
                        <g id="Group_409" transform="translate(5.606 7.299)">
                            <path id="Path_851" d="M304.113 195.31s6.358-11.621 11.48-16.868c7.281 5.592 17.569 20.2 17.569 20.2s-9.589-3.93-29.049-3.332z" class="cls-20" transform="translate(-304.113 -169.006)"/>
                            <path id="Path_852" d="M345.692 200.1a40.1 40.1 0 0 1 6.616 2.334s-10.94-15.817-16.718-20.983l-2.329 2.29a159.487 159.487 0 0 1 12.431 16.359z" class="cls-20" transform="translate(-314.424 -170.071)"/>
                            <path id="Path_853" d="M353.177 167.842c-.44 1.555-2.392 2.366-4.361 1.809s-3.208-2.27-2.768-3.826 2.393-2.366 4.361-1.809 3.208 2.269 2.768 3.826z" class="cls-20" transform="translate(-318.916 -163.84)"/>
                        </g>
                    </g>
                </g>
            </g>
            <g id="Group_427" transform="translate(125.777 4.757)">
                <g id="Group_426" clip-path="url(#clip-path-2)">
                    <path id="Path_854" d="M382.052 317.846s25.395-14.79 102.843-1.183" class="cls-17" transform="translate(-384.382 -200.394)"/>
                    <path id="Path_855" d="M382.052 335.119s25.395-14.79 102.843-1.184" class="cls-17" transform="translate(-384.382 -206.504)"/>
                    <path id="Path_856" d="M382.052 352.392s25.395-14.79 102.843-1.184" class="cls-17" transform="translate(-384.382 -212.615)"/>
                    <path id="Path_857" d="M382.052 369.665s25.395-14.79 102.843-1.184" class="cls-17" transform="translate(-384.382 -218.725)"/>
                    <g id="Group_425" transform="translate(3.267 3.648)">
                        <g id="Group_420" transform="translate(25.382 25.75)">
                            <path id="Path_858" fill="#fff" stroke="#ccedff" stroke-miterlimit="10" d="M429.989 208.482a23.094 23.094 0 1 1 41.76 13.6c-3.3 4.967-11.862 9.067-11.862 15.874v3.839a1.388 1.388 0 0 1-1.388 1.387h-10.833a1.387 1.387 0 0 1-1.387-1.387v-3.839c0-6.807-8.565-10.907-11.862-15.874a22.987 22.987 0 0 1-4.428-13.6z" transform="translate(-429.989 -185.388)"/>
                            <path id="Path_859" d="M461.373 254.7c-.136-3.181-.856-23.445 2.473-29.947 1.632-3.187 4.69-4.584 6.678-3.4 1.322.79 1.932 2.92 1.641 4.86-.575 3.824-4.088 8.542-13.618 8.542s-13.043-4.718-13.618-8.542c-.291-1.94.319-4.069 1.641-4.86 1.988-1.189 5.046.208 6.678 3.4 3.328 6.5 2.609 26.767 2.473 29.947" class="cls-23" transform="translate(-435.249 -197.964)"/>
                            <path id="Path_860" fill="none" stroke="#ccedff" stroke-linecap="round" stroke-miterlimit="10" stroke-width="3px" d="M473.374 191.221a19.258 19.258 0 0 1 14.51 18.661" transform="translate(-445.337 -187.451)"/>
                            <path id="Path_861" d="M465.352 189.53a1.325 1.325 0 1 0 1.325-1.325 1.325 1.325 0 0 0-1.325 1.325z" class="cls-25" transform="translate(-442.499 -186.385)"/>
                            <path id="Path_862" d="M469.367 268.241h-14.7v7.006a6.025 6.025 0 0 0 .939 3.23 6.316 6.316 0 0 0 5.333 2.932h2.155a6.316 6.316 0 0 0 5.333-2.932 6.024 6.024 0 0 0 .939-3.23z" class="cls-25" transform="translate(-438.719 -214.698)"/>
                            <g id="Group_419" transform="translate(15.031 54.837)">
                                <g id="Group_414">
                                    <g id="Group_413">
                                        <path id="Path_863" d="M468.865 274.116a.938.938 0 0 1-.127-.009l-14.7-2.037a.917.917 0 0 1 .252-1.817l14.7 2.037a.917.917 0 0 1-.125 1.826z" class="cls-26" transform="translate(-453.248 -270.244)"/>
                                    </g>
                                </g>
                                <g id="Group_416" transform="translate(0 3.206)">
                                    <g id="Group_415">
                                        <path id="Path_864" d="M468.865 279.077a.844.844 0 0 1-.127-.009l-14.7-2.037a.917.917 0 0 1 .252-1.817l14.7 2.038a.917.917 0 0 1-.125 1.826z" class="cls-26" transform="translate(-453.248 -275.206)"/>
                                    </g>
                                </g>
                                <g id="Group_418" transform="translate(.18 6.466)">
                                    <g id="Group_417">
                                        <path id="Path_865" d="M468.377 284.015a.942.942 0 0 1-.127-.009l-13.933-1.931a.917.917 0 1 1 .252-1.817l13.933 1.931a.917.917 0 0 1-.125 1.826z" class="cls-26" transform="translate(-453.525 -280.249)"/>
                                    </g>
                                </g>
                            </g>
                        </g>
                        <g id="Group_422" transform="translate(38.787)">
                            <path id="Path_866" d="M450.733 183.714v-36.486s2.37-.077 6.474-.05" class="cls-23" transform="translate(-450.733 -146.119)"/>
                            <g id="Group_421" transform="translate(9.358 1.482)">
                                <path id="Path_867" d="M465.214 154.078c9.489.227 20.417.983 32.929 2.507" class="cls-27" transform="translate(-465.214 -150.044)"/>
                                <path id="Path_868" d="M465.214 160.321c9.489.227 20.417.983 32.929 2.507" class="cls-27" transform="translate(-465.214 -152.252)"/>
                                <path id="Path_869" d="M465.214 147.835c9.489.227 20.417.983 32.929 2.507" class="cls-27" transform="translate(-465.214 -147.835)"/>
                                <path id="Path_870" d="M465.214 167.213q5.6.134 11.888.529" class="cls-27" transform="translate(-465.214 -154.69)"/>
                            </g>
                            <path id="Path_871" d="M461.23 146.6a1.059 1.059 0 1 1-1.059-1.059 1.058 1.058 0 0 1 1.059 1.059z" class="cls-25" transform="translate(-453.697 -145.542)"/>
                        </g>
                        <g id="Group_423" transform="translate(0 16.528)">
                            <path id="Path_872" d="M392.342 197.024l-.018 23.7a135.548 135.548 0 0 1 23.448-3.3" class="cls-23" transform="translate(-391.283 -180.282)"/>
                            <path id="Path_873" d="M392.185 174.512a137.641 137.641 0 0 1 24.856-3.395" class="cls-27" transform="translate(-391.234 -171.117)"/>
                            <path id="Path_874" d="M392.185 181.95a137.645 137.645 0 0 1 24.856-3.395" class="cls-27" transform="translate(-391.234 -173.748)"/>
                            <path id="Path_875" d="M392.185 189.62a127.159 127.159 0 0 1 18.918-2.969" class="cls-27" transform="translate(-391.234 -176.612)"/>
                            <path id="Path_876" d="M392.831 196.444a1.059 1.059 0 1 1-1.059-1.059 1.058 1.058 0 0 1 1.059 1.059z" class="cls-25" transform="translate(-390.713 -179.702)"/>
                        </g>
                        <g id="Group_424" transform="translate(58.847 86.557)">
                            <path id="Path_877" d="M481.774 280.938v11.822h10.037" class="cls-23" transform="translate(-481.774 -279.996)"/>
                            <path id="Path_878" d="M500.617 279.481s11.842.633 25.676 2.873" class="cls-27" transform="translate(-488.44 -279.481)"/>
                            <path id="Path_879" d="M500.617 285.724s11.842.633 25.676 2.874" class="cls-27" transform="translate(-488.44 -281.69)"/>
                            <path id="Path_880" d="M500.617 291.967s11.842.634 25.676 2.874" class="cls-27" transform="translate(-488.44 -283.898)"/>
                            <path id="Path_881" d="M500.617 298.21s6.026.323 14.5 1.32" class="cls-27" transform="translate(-488.44 -286.107)"/>
                            <path id="Path_882" d="M497.785 298.652a1.059 1.059 0 1 1-1.059-1.059 1.059 1.059 0 0 1 1.059 1.059z" class="cls-25" transform="translate(-486.689 -285.888)"/>
                        </g>
                    </g>
                </g>
            </g>
        </g>
        <g id="Group_436" transform="translate(73.286 223.834)">
            <g id="Group_431" transform="translate(14.341)">
                <g id="Path_883" fill="#fff" stroke-miterlimit="10">
                    <path d="M235.679 355.052H128.28c-3.509 0-6.808-1.367-9.29-3.848-2.481-2.482-3.848-5.781-3.848-9.29 0-3.51 1.367-6.809 3.848-9.29 2.482-2.481 5.781-3.848 9.29-3.848H235.68v26.276z" class="cls-37" transform="translate(-114.642 -328.276)"/>
                    <path d="M235.179 354.552v-25.276H128.28c-3.375 0-6.55 1.315-8.936 3.701-2.387 2.387-3.702 5.561-3.702 8.937 0 3.375 1.315 6.549 3.702 8.936 2.387 2.387 5.56 3.702 8.936 3.702H235.18m1 1H128.28c-7.532 0-13.638-6.107-13.638-13.638 0-7.532 6.106-13.638 13.638-13.638H236.18v27.276z" class="cls-38" transform="translate(-114.642 -328.276)"/>
                </g>
                <g id="Path_884" fill="#f3e0cc" stroke-miterlimit="10">
                    <path d="M239.156 354.003h-108.4c-5.3 0-9.613-4.312-9.613-9.613 0-5.302 4.313-9.615 9.614-9.615h108.399v19.228z" class="cls-37" transform="translate(-117.119 -330.752)"/>
                    <path d="M238.656 353.503v-18.228h-107.9c-5.025 0-9.113 4.09-9.113 9.115s4.088 9.113 9.114 9.113h107.899m1 1h-108.9c-5.576 0-10.113-4.537-10.113-10.113 0-5.578 4.537-10.115 10.114-10.115h108.899v20.228z" class="cls-38" transform="translate(-117.119 -330.752)"/>
                </g>
                <g id="Group_430" transform="translate(4.524 4.523)">
                    <g id="Group_429" clip-path="url(#clip-path-3)">
                        <path id="Line_96" d="M0 0L123.261 0" class="cls-31" transform="translate(-6.249 8)"/>
                        <path id="Line_97" d="M0 0L123.261 0" class="cls-31" transform="translate(-5.169 13.74)"/>
                        <path id="Path_885" fill="#af480e" d="M254.406 351.426l-3.435-2.5-3.435 2.5v-9.046h6.871z" transform="translate(-166.179 -337.789)"/>
                        <path id="Line_98" d="M0 0L116.381 0" class="cls-31" transform="translate(.632 4.592)"/>
                    </g>
                </g>
            </g>
            <g id="Group_435" transform="translate(0 27.276)">
                <g id="Path_886" fill="#fff" stroke-linejoin="round">
                    <path d="M250.738 416.22H115.57c-3.054 0-6.016-.599-8.805-1.778-2.693-1.14-5.112-2.77-7.19-4.847-2.077-2.078-3.708-4.497-4.847-7.19-1.18-2.788-1.777-5.75-1.777-8.804 0-3.054.598-6.016 1.777-8.804 1.14-2.693 2.77-5.112 4.848-7.19 2.077-2.077 4.496-3.708 7.19-4.847 2.788-1.18 5.75-1.777 8.804-1.777h135.168c.25 0 .454.204.454.454v3.908c0 .25-.204.453-.454.453h-134.8c-9.732 0-17.88 7.745-18.163 17.264-.144 4.852 1.64 9.445 5.025 12.93 3.387 3.49 7.922 5.41 12.77 5.41h135.168c.25 0 .454.205.454.455v3.908c0 .25-.204.454-.454.454z" class="cls-37" transform="translate(-92.451 -370.483)"/>
                    <path fill="#86bfef" d="M115.57 371.483c-2.987 0-5.884.585-8.61 1.738-2.634 1.114-5 2.709-7.03 4.74-2.032 2.032-3.627 4.397-4.741 7.03-1.153 2.727-1.738 5.624-1.738 8.61 0 2.986.585 5.883 1.738 8.609 1.114 2.634 2.709 5 4.74 7.031 2.032 2.032 4.397 3.627 7.031 4.74 2.726 1.154 5.623 1.738 8.61 1.738h135.122v-3.816H115.57c-4.985 0-9.647-1.975-13.129-5.562-3.479-3.584-5.314-8.305-5.166-13.294.291-9.787 8.663-17.749 18.662-17.749h134.755v-3.815H115.57m0-1h135.168c.527 0 .954.427.954.954v3.908c0 .526-.427.953-.954.953h-134.8c-9.415 0-17.383 7.368-17.663 16.779-.29 9.778 7.58 17.826 17.295 17.826h135.168c.527 0 .954.427.954.954v3.908c0 .527-.427.954-.954.954H115.57c-12.769 0-23.119-10.35-23.119-23.118 0-12.768 10.35-23.118 23.119-23.118z" transform="translate(-92.451 -370.483)"/>
                </g>
                <path id="Path_887" d="M118.753 414.086a17.3 17.3 0 1 1 0-34.6h133.421v34.6z" class="cls-4" transform="translate(-95.635 -373.666)"/>
                <g id="Group_434" transform="translate(5.816 5.816)">
                    <g id="Group_433" clip-path="url(#clip-path-4)">
                        <g id="Group_432" transform="translate(-3.289 3.799)">
                            <path id="Line_99" d="M0 0L162.211 0" class="cls-35" transform="translate(0 7.093)"/>
                            <path id="Line_100" d="M0 0L162.211 0" class="cls-35" transform="translate(0 16.468)"/>
                            <path id="Line_101" d="M0 0L162.211 0" class="cls-35" transform="translate(0 24.877)"/>
                            <path id="Line_102" d="M0 0L162.211 0" class="cls-35"/>
                        </g>
                    </g>
                </g>
                <path id="Path_888" fill="#ff5c5c" d="M132.943 423.264l-5.65-6.142-5.65 6.142v-26.927h11.3z" transform="translate(-102.778 -379.629)"/>
            </g>
        </g>
    </g>
</svg>
