<svg xmlns="http://www.w3.org/2000/svg" xmlns:xlink="http://www.w3.org/1999/xlink" width="974.398" height="868.953" viewBox="0 0 974.398 868.953">
    <defs>
        <linearGradient id="linear-gradient" x1=".874" x2=".217" y1=".974" y2=".221" gradientUnits="objectBoundingBox">
            <stop offset="0" stop-color="#2484c6"/>
            <stop offset="1" stop-color="#2484c6" stop-opacity="0"/>
        </linearGradient>
        <linearGradient id="linear-gradient-2" x1=".097" x2=".845" y1=".999" y2=".158" xlink:href="#linear-gradient"/>
        <linearGradient id="linear-gradient-3" x1="0" x2="1" y1=".5" y2=".5" xlink:href="#linear-gradient"/>
        <linearGradient id="linear-gradient-4" x2="1" y1=".5" y2=".5" gradientUnits="objectBoundingBox">
            <stop offset="0" stop-color="#f7941e"/>
            <stop offset="1" stop-color="#f7941e" stop-opacity="0"/>
        </linearGradient>
        <style>
            .cls-2{fill:#78e2ff}.cls-4,.cls-42{fill:#00a4d6}.cls-20,.cls-4,.cls-6,.cls-8{opacity:.2}.cls-4,.cls-46{mix-blend-mode:multiply;isolation:isolate}.cls-7,.cls-8{fill:#18bdf7}.cls-16,.cls-9{fill:#4a63fe}.cls-9{opacity:.26}.cls-15{fill:none;stroke-miterlimit:10;stroke:#00a4d6;opacity:.1}.cls-23,.cls-48{opacity:.5}.cls-15{stroke-width:3.127px}.cls-17{fill:#425de2}.cls-20,.cls-26,.cls-28{fill:#fff}.cls-22{fill:#f9ee53}.cls-23{fill:#9cd7ff}.cls-28{opacity:.3}.cls-55{fill:url(#linear-gradient-3)}.cls-46{fill:#5fb0e7}.cls-33{fill:#a55520}.cls-34{fill:#594a5f}.cls-35{fill:#b8ecff}.cls-36{fill:#2c1e56}.cls-38{fill:#4c4199}.cls-43{fill:#3a3a3a}.cls-45{fill:#1c44b5}.cls-48{fill:#aec1ff}.cls-50{fill:#ebfaff}.cls-51{fill:#b2ebf9}.cls-52{fill:#80d4dd}.cls-54{fill:#61c5f2}.cls-55{opacity:.58}.cls-56{fill:#39a7d8}.cls-57{fill:#258baf}
        </style>
    </defs>
    <g id="Group_65" transform="translate(-419.85 -97.879)">
        <g id="Group_1" transform="translate(231 101.879)">
            <path id="Path_1" fill="#f1f4fa" d="M1323.5 166.345s-173.66-155.473-354.425 16.47c-200.5 190.718-90.424 527.547-258.48 537.047s-227.817-35.924-335.346 31.248c-124.832 77.983 237.892 125.443 237.892 125.443l710.359 94.279z" transform="translate(-160.256 -105.879)"/>
        </g>
        <g id="Group_2" transform="translate(728.07 717.423)">
            <path id="Path_3" d="M551.341 448.937l-10.841-36.73s16.473-69.832-18.2-72.971c-32.938-2.983-24.106 59.918-23.068 66.641-1.129-7.04-13.082-76.841-41.736-66.217-32.069 11.893 19.443 76.594 19.443 76.594-11.555-14.946-41.328-37.065-51.809-13.659-4.57 10.205 5.225 19.706 17.724 27.177-8-1.886-16.215-2.8-18.866.445-7.386 9.03 7.722 19.552 36.764 20.13 10.522.211 15.851-1.966 18.39-4.822.351.112.572.179.572.179z" class="cls-2" transform="translate(-422.128 -338.562)"/>
            <path id="Path_4" fill="url(#linear-gradient)" d="M551.341 448.937l-10.841-36.73s16.473-69.832-18.2-72.971c-32.938-2.983-24.106 59.918-23.068 66.641-1.129-7.04-13.082-76.841-41.736-66.217-32.069 11.893 19.443 76.594 19.443 76.594-11.555-14.946-41.328-37.065-51.809-13.659-4.57 10.205 5.225 19.706 17.724 27.177-8-1.886-16.215-2.8-18.866.445-7.386 9.03 7.722 19.552 36.764 20.13 10.522.211 15.851-1.966 18.39-4.822.351.112.572.179.572.179z" transform="translate(-422.128 -338.562)"/>
            <path id="Path_5" d="M468.994 412.823s-36.072-13.95-27.375-25.976c5.485-7.584 16.083 5.3 16.083 5.3s-13.943-18.244-1.88-23.807c12.522-5.774 19.24 15.256 19.24 15.256s-4.658-18.429 4.876-21.029S490.2 381 490.2 381s12.314-16.58 19.648-3.357c6.655 11.995-13.545 35.908-13.545 35.908" class="cls-4" transform="translate(-393.095 -300.493)"/>
            <path id="Path_6" d="M635.6 435.34c.621-6.632-14.27-6.645-25.7-5.438 15.188-8.629 28.434-19.8 23.422-30.993-10.481-23.406-44.584 2.4-56.139 17.344 0 0 51.512-64.7 19.443-76.594-28.655-10.624-40.607 59.177-41.736 66.217 1.038-6.723 9.867-69.624-23.071-66.641-34.675 3.139-29.04 109.7-29.04 109.7S633.436 458.5 635.6 435.34z" class="cls-2" transform="translate(-293.565 -338.562)"/>
            <path id="Path_7" fill="url(#linear-gradient-2)" d="M635.6 435.34c.621-6.632-14.27-6.645-25.7-5.438 15.188-8.629 28.434-19.8 23.422-30.993-10.481-23.406-44.584 2.4-56.139 17.344 0 0 51.512-64.7 19.443-76.594-28.655-10.624-40.607 59.177-41.736 66.217 1.038-6.723 9.867-69.624-23.071-66.641-34.675 3.139-29.04 109.7-29.04 109.7S633.436 458.5 635.6 435.34z" transform="translate(-293.565 -338.562)"/>
            <path id="Path_8" d="M548.841 413.761s36.069-13.95 27.373-25.976c-5.485-7.586-16.083 5.3-16.083 5.3s13.945-18.247 1.883-23.807c-12.522-5.774-19.243 15.256-19.243 15.256s4.661-18.429-4.876-21.029-10.26 18.429-10.26 18.429-12.314-16.58-19.648-3.36c-6.655 12 13.547 35.908 13.547 35.908" class="cls-4" transform="translate(-286.848 -298.991)"/>
        </g>
        <g id="Group_7" transform="translate(462.229 141.204)">
            <g id="Group_4" transform="translate(36.288 385.132)">
                <g id="Group_3" class="cls-6">
                    <path id="Path_9" d="M407.666 279.531a42.04 42.04 0 1 0 9.454 36.436 42.017 42.017 0 0 0-9.454-36.436zm2.46 34.948a34.875 34.875 0 1 1 .772-7.305 35.06 35.06 0 0 1-.772 7.306z" class="cls-7" transform="translate(-333.863 -265.087)"/>
                </g>
                <path id="Path_10" d="M381.613 285.567a42.15 42.15 0 0 1-22.379 28.858l-3.188-6.377a35.06 35.06 0 0 0 18.574-23.968z" class="cls-8" transform="translate(-298.356 -234.686)"/>
                <path id="Path_11" d="M400.228 279.531l-5.391 4.689a34.888 34.888 0 0 0-51.221-1.529l-5.105-5a42.03 42.03 0 0 1 61.718 1.844z" class="cls-9" transform="translate(-326.425 -265.087)"/>
            </g>
            <g id="Group_6" opacity="0.8" transform="translate(307.449 32.959)">
                <g id="Group_5" class="cls-6">
                    <path id="Path_12" d="M487.231 139.283a27.973 27.973 0 1 0 6.288 24.241 27.94 27.94 0 0 0-6.288-24.241zm1.636 23.253a23.194 23.194 0 1 1 .515-4.863 23.322 23.322 0 0 1-.515 4.863z" class="cls-7" transform="translate(-438.127 -129.673)"/>
                </g>
                <path id="Path_13" d="M469.9 143.3a28.044 28.044 0 0 1-14.889 19.2l-2.122-4.244a23.322 23.322 0 0 0 12.359-15.945z" class="cls-8" transform="translate(-414.504 -109.446)"/>
                <path id="Path_14" d="M482.283 139.283L478.7 142.4a23.218 23.218 0 0 0-34.082-1.019l-3.4-3.329a27.969 27.969 0 0 1 41.065 1.228z" class="cls-9" transform="translate(-433.179 -129.673)"/>
            </g>
            <path id="Path_15" fill="#00a4d6" d="M364.237 332.789l4.265-3.178a26.42 26.42 0 0 0-8.14-8.138l-3.175 4.263a20.972 20.972 0 0 0-5.937-2.46l.772-5.269a25.811 25.811 0 0 0-11.513 0l.77 5.269a20.971 20.971 0 0 0-5.937 2.46l-3.175-4.263a26.448 26.448 0 0 0-8.14 8.138l4.265 3.178a20.774 20.774 0 0 0-2.46 5.935l-5.269-.77a25.811 25.811 0 0 0 0 11.513l5.269-.77a20.805 20.805 0 0 0 2.46 5.935l-4.265 3.175a26.428 26.428 0 0 0 8.14 8.14l3.175-4.263a20.969 20.969 0 0 0 5.937 2.46l-.77 5.267a25.811 25.811 0 0 0 11.513 0l-.772-5.267a20.97 20.97 0 0 0 5.938-2.46l3.175 4.263a26.4 26.4 0 0 0 8.14-8.14l-4.265-3.175a20.888 20.888 0 0 0 2.462-5.932l5.266.77a25.809 25.809 0 0 0 0-11.513l-5.266.77a20.856 20.856 0 0 0-2.463-5.938zM346.263 357.7a13.988 13.988 0 1 1 13.987-13.989 13.988 13.988 0 0 1-13.987 13.989z" opacity="0.39" transform="translate(-319.91 203.713)"/>
            <path id="Path_16" fill="#1d84c9" d="M692.045 183.643l6.393-4.762a39.62 39.62 0 0 0-12.2-12.2l-4.762 6.393a31.267 31.267 0 0 0-8.9-3.69l1.155-7.9a38.674 38.674 0 0 0-17.261 0l1.155 7.9a31.235 31.235 0 0 0-8.9 3.69l-4.762-6.393a39.627 39.627 0 0 0-12.205 12.2l6.4 4.762a31.241 31.241 0 0 0-3.69 8.9l-7.9-1.155a38.672 38.672 0 0 0 0 17.261l7.9-1.155a31.273 31.273 0 0 0 3.69 8.9l-6.4 4.762a39.655 39.655 0 0 0 12.205 12.2l4.762-6.393a31.308 31.308 0 0 0 8.9 3.69l-1.155 7.9a38.774 38.774 0 0 0 17.261 0l-1.155-7.9a31.34 31.34 0 0 0 8.9-3.69l4.762 6.393a39.648 39.648 0 0 0 12.2-12.2l-6.393-4.762a31.343 31.343 0 0 0 3.69-8.9l7.9 1.155a38.776 38.776 0 0 0 0-17.261l-7.9 1.155a31.311 31.311 0 0 0-3.69-8.9zM665.1 220.989a20.971 20.971 0 1 1 20.972-20.972 20.97 20.97 0 0 1-20.972 20.972z" opacity="0.33" transform="translate(169.39 -47.358)"/>
            <path id="Path_17" fill="none" stroke="#00a4d6" stroke-miterlimit="10" stroke-width="2px" d="M432.772 127.837A10.836 10.836 0 1 1 421.935 117a10.835 10.835 0 0 1 10.837 10.837z" opacity="0.1" transform="translate(-173.941 -117)"/>
            <path id="Path_18" fill="none" stroke="#00a4d6" stroke-miterlimit="10" stroke-width="0.5px" d="M594.109 142.957a10.836 10.836 0 1 1-10.835-10.837 10.836 10.836 0 0 1 10.835 10.837z" opacity="0.5" transform="translate(84.313 -92.797)"/>
            <circle id="Ellipse_1" cx="16.945" cy="16.945" r="16.945" class="cls-15" transform="translate(373.952 113.151)"/>
            <path id="Path_19" d="M683.345 274.689a16.945 16.945 0 1 1-16.945-16.944 16.945 16.945 0 0 1 16.945 16.944z" class="cls-15" transform="translate(207.597 108.293)"/>
        </g>
        <g id="Group_16" transform="translate(542.663 305.153)">
            <g id="Group_8">
                <path id="Path_20" d="M1057.392 197.569v406.726a17.537 17.537 0 0 1-17.529 17.529H368.879a17.52 17.52 0 0 1-17.529-17.529V197.569a17.52 17.52 0 0 1 17.529-17.529h670.984a17.537 17.537 0 0 1 17.529 17.529z" class="cls-16" transform="translate(-350.017 -180.04)"/>
                <path id="Path_21" d="M603.129 441.634H459.465l15.6-61.351 3.537-13.914 6.866-26.943h91.649l6.866 26.943 3.537 13.914z" class="cls-16" transform="translate(-176.955 75.092)"/>
                <path id="Path_22" d="M577.92 363.7H465.466L469 349.786h105.383z" class="cls-17" transform="translate(-167.351 91.675)"/>
                <path id="Path_23" d="M698.985 398.826H445.054a11.033 11.033 0 0 1-11.032-11.032 11.034 11.034 0 0 1 11.032-11.035h253.931a11.034 11.034 0 0 1 11.032 11.035 11.033 11.033 0 0 1-11.032 11.032z" class="cls-17" transform="translate(-217.683 134.851)"/>
                <path id="Rectangle_3" fill="#60f4df" d="M0 0H707.359V308.618H0z" opacity="0.2" transform="translate(0 62.789)"/>
                <path id="Path_24" fill="#3b5bd1" d="M497.09 362.239a16.327 16.327 0 0 1-16.278-16.278 16.325 16.325 0 0 1 16.278-16.278 16.325 16.325 0 0 1 16.278 16.278 16.327 16.327 0 0 1-16.278 16.278z" transform="translate(-142.785 59.496)"/>
            </g>
            <g id="Group_15" transform="translate(18.139 71.024)">
                <g id="Group_9" transform="translate(226.535)">
                    <rect id="Rectangle_4" width="446.899" height="190.837" class="cls-20" rx="3.282"/>
                    <path id="Path_25" fill="#fff" d="M873.462 300.052v72.534a5.866 5.866 0 0 1-5.878 5.852H454.773a5.866 5.866 0 0 1-5.878-5.852v-159.32c38.126 0 57.112 14.252 68.243 32.977q1.092 1.795 2.028 3.667c18.829 35.63 13.16 84.471 54.563 84.471a17.048 17.048 0 0 0 4.369-.546 12.179 12.179 0 0 0 2.549-.832c27.854-11.729 23.51-94.978 73.054-94.38a33.406 33.406 0 0 1 24.733 10.663c.6.65 1.2 1.3 1.768 2 22.184 26.033 22.5 84.055 56.566 94.588 12.275 3.8 23.12-1.352 33.835-9.857.676-.546 1.378-1.092 2.055-1.69 22.652-18.8 45.174-50.948 80.128-43.068 1.014.234 2.029.494 3.069.78a73.071 73.071 0 0 1 17.607 8.013z" opacity="0.39" transform="translate(-438.549 -197.879)"/>
                    <path id="Path_26" d="M873.488 268.579a26.078 26.078 0 0 0-17.633 6.632c-8.426 7.464-12.952 20.208-17.373 32.665-6.632 18.647-13.472 37.892-33.471 37.892-1.066 0-2.185-.052-3.329-.156-13.03-1.274-22.626-11.885-31.079-26.423-5.253-9-10.065-19.531-14.954-30.324-13.836-30.35-28.166-61.741-54.537-62.469-.312 0-.6-.026-.884-.026a28.793 28.793 0 0 0-20.025 8.088c-11.157 10.169-18.257 28.5-25.2 46.449-10.273 26.553-20.884 54.017-44.836 54.563-17.217.364-25.045-6.138-32.067-18.465-2.7-4.785-5.306-10.455-8.27-16.931-5.409-11.859-12.171-26.605-23.354-43.77a61.03 61.03 0 0 0-27.307-23.224c-27.62-12.041-60.128-3.225-70.271.078v-2.731c10.871-3.433 41.247-11.209 68.243-1.014a63.751 63.751 0 0 1 31.491 25.487c11.313 17.295 18.1 32.145 23.563 44.082 3.069 6.71 5.7 12.457 8.452 17.191 6.606 11.417 13.862 17.061 29.466 16.7 22.21-.52 32.041-25.955 42.47-52.9 7.074-18.283 14.278-36.956 25.851-47.515a31.233 31.233 0 0 1 22.73-8.66c28.036.754 42.678 32.9 56.852 64 4.837 10.559 9.519 20.884 14.642 29.7 8.114 14.1 17.217 24.317 29.284 25.513 20.6 2.029 27.151-16.437 34.1-36.02 4.317-12.2 8.738-24.629 16.749-32.561 5.1-5.1 11.677-8.322 20.65-8.452z" class="cls-22" transform="translate(-438.549 -181.048)"/>
                </g>
                <g id="Group_10" transform="translate(437.137 198.908)">
                    <rect id="Rectangle_5" width="236.298" height="41.82" class="cls-23" rx="2.791"/>
                    <rect id="Rectangle_6" width="236.298" height="41.82" class="cls-20" rx="2.791" transform="translate(0 50.542)"/>
                </g>
                <g id="Group_12">
                    <rect id="Rectangle_7" width="219.327" height="92.362" fill="#9cd7ff" opacity="0.2" rx="3.282"/>
                    <g id="Group_11" opacity="0.3" transform="translate(8.669 8.832)">
                        <rect id="Rectangle_8" width="15.171" height="61.333" class="cls-26" rx=".825" transform="translate(166.735 14.358)"/>
                        <rect id="Rectangle_9" width="15.171" height="75.692" class="cls-26" rx=".917" transform="translate(187.577)"/>
                        <rect id="Rectangle_10" width="15.171" height="75.692" class="cls-26" rx=".917"/>
                        <rect id="Rectangle_11" width="15.171" height="57.757" class="cls-26" rx=".801" transform="translate(20.842 17.934)"/>
                        <rect id="Rectangle_12" width="15.171" height="75.692" class="cls-26" rx=".917" transform="translate(41.684)"/>
                        <rect id="Rectangle_13" width="15.171" height="41.79" class="cls-26" rx=".681" transform="translate(62.526 33.901)"/>
                        <rect id="Rectangle_14" width="15.171" height="75.692" class="cls-26" rx=".917" transform="translate(83.367)"/>
                        <rect id="Rectangle_15" width="15.171" height="61.333" class="cls-26" rx=".825" transform="translate(104.209 14.358)"/>
                        <rect id="Rectangle_16" width="15.171" height="75.692" class="cls-26" rx=".917" transform="translate(125.051)"/>
                        <rect id="Rectangle_17" width="15.171" height="57.757" class="cls-26" rx=".801" transform="translate(145.893 17.934)"/>
                    </g>
                </g>
                <g id="Group_13" transform="translate(0 99.454)">
                    <rect id="Rectangle_18" width="219.327" height="92.362" class="cls-20" rx="3.282"/>
                    <rect id="Rectangle_19" width="219.327" height="92.362" class="cls-20" rx="3.282" transform="translate(0 99.454)"/>
                    <path id="Path_27" fill="#f7ee6c" d="M561.55 250.2a4.118 4.118 0 0 0-4.117 4.117 4.074 4.074 0 0 0 .567 2.052l-33.523 37.856a4.126 4.126 0 0 0-1.555-.309 4.069 4.069 0 0 0-1.68.367l-36.08-35.456a4.119 4.119 0 1 0-7.461.055l-46.4 50.085a4.039 4.039 0 0 0-4.348-.216l-25.391-33.065a4.125 4.125 0 1 0-6.91-.382L366.2 312.175a4.073 4.073 0 0 0-1.438-.273 4.139 4.139 0 1 0 3.461 1.9l28.348-36.748a3.9 3.9 0 0 0 2.869.141l25.719 33.495a4.13 4.13 0 1 0 7.69.419l46.654-50.355a3.966 3.966 0 0 0 3.88-.031l35.947 35.323a4.115 4.115 0 1 0 7.11-.122l33.495-37.824a4.117 4.117 0 1 0 1.615-7.9z" transform="translate(-353.277 -238.217)"/>
                    <rect id="Rectangle_20" width="185.518" height="7.802" class="cls-28" rx="1.429" transform="translate(8.019 106.436)"/>
                    <rect id="Rectangle_21" width="166.879" height="7.802" class="cls-28" rx="1.355" transform="translate(8.019 120.364)"/>
                    <path id="Path_28" d="M561.369 305.03H364.8a3.9 3.9 0 0 1-3.9-3.9 3.9 3.9 0 0 1 3.9-3.9h196.569a3.9 3.9 0 0 1 3.9 3.9 3.9 3.9 0 0 1-3.9 3.9z" class="cls-28" transform="translate(-352.877 -162.934)"/>
                    <rect id="Rectangle_22" width="148.458" height="7.802" class="cls-28" rx="1.278" transform="translate(8.019 148.221)"/>
                    <rect id="Rectangle_23" width="187.468" height="7.802" class="cls-28" rx="1.437" transform="translate(8.019 162.15)"/>
                    <path id="Path_29" d="M561.369 321.1H364.8a3.9 3.9 0 0 1-3.9-3.9 3.9 3.9 0 0 1 3.9-3.9h196.569a3.9 3.9 0 0 1 3.9 3.9 3.9 3.9 0 0 1-3.9 3.9z" class="cls-28" transform="translate(-352.877 -137.215)"/>
                </g>
                <g id="Group_14" transform="translate(227.084 198.919)">
                    <path id="Path_30" d="M537.479 330a46.176 46.176 0 1 1-46.163-46.163 45.151 45.151 0 0 1 10.663 1.248 46.166 46.166 0 0 1 35.344 41.247q.156 1.833.156 3.668z" class="cls-23" transform="translate(-445.128 -283.836)"/>
                    <path id="Path_31" d="M508.895 325.563l-46.007 3.667 10.663-44.914a46.166 46.166 0 0 1 35.344 41.247z" class="cls-22" transform="translate(-416.699 -283.068)"/>
                    <path id="Path_32" d="M576.716 290.4h-88.84a3.043 3.043 0 0 1-3.043-3.043 3.043 3.043 0 0 1 3.043-3.043h88.841a3.043 3.043 0 0 1 3.043 3.043 3.043 3.043 0 0 1-3.044 3.043z" class="cls-23" transform="translate(-381.572 -283.068)"/>
                    <rect id="Rectangle_24" width="81.597" height="6.084" class="cls-23" rx="1.084" transform="translate(103.261 13.347)"/>
                    <rect id="Rectangle_25" width="63.067" height="6.084" class="cls-23" rx=".953" transform="translate(103.261 25.444)"/>
                    <path id="Path_33" d="M576.716 304.357h-88.84a3.043 3.043 0 0 1-3.043-3.043 3.043 3.043 0 0 1 3.043-3.043h88.841a3.043 3.043 0 0 1 3.043 3.043 3.043 3.043 0 0 1-3.044 3.043z" class="cls-23" transform="translate(-381.572 -260.73)"/>
                    <rect id="Rectangle_26" width="84.523" height="6.084" class="cls-23" rx="1.104" transform="translate(103.261 49.64)"/>
                    <path id="Path_34" d="M576.716 313.658h-88.84a3.043 3.043 0 0 1-3.043-3.043 3.041 3.041 0 0 1 3.043-3.04h88.841a3.041 3.041 0 0 1 3.043 3.04 3.043 3.043 0 0 1-3.044 3.043z" class="cls-23" transform="translate(-381.572 -245.837)"/>
                    <path id="Rectangle_27" d="M1.052 0h74.617a1.052 1.052 0 0 1 1.052 1.052v3.981a1.052 1.052 0 0 1-1.052 1.052H1.051A1.051 1.051 0 0 1 0 5.033V1.052A1.052 1.052 0 0 1 1.052 0z" class="cls-23" transform="translate(103.261 73.835)"/>
                    <path id="Path_35" d="M576.716 322.961h-88.84a3.041 3.041 0 0 1-3.043-3.04 3.043 3.043 0 0 1 3.043-3.043h88.841a3.043 3.043 0 0 1 3.043 3.043 3.041 3.041 0 0 1-3.044 3.04z" class="cls-23" transform="translate(-381.572 -230.945)"/>
                </g>
            </g>
            <path id="Path_36" d="M1057.392 197.569v406.726a17.537 17.537 0 0 1-17.529 17.529H368.879a17.52 17.52 0 0 1-17.529-17.529V197.569a17.52 17.52 0 0 1 17.529-17.529h670.984a17.537 17.537 0 0 1 17.529 17.529z" transform="translate(-350.017 -180.04)" style="mix-blend-mode:overlay;isolation:isolate" fill="url(#linear-gradient-3)"/>
        </g>
        <g id="Group_25" transform="translate(584.322 479.316)">
            <g id="Group_18" transform="translate(6.953)" style="isolation:isolate;mix-blend-mode:multiply" opacity="0.3">
                <g id="Group_17">
                    <path id="Path_37" fill="#5fb0e7" d="M554.311 286.857c.234-.988-.91-1.274-2.107.676a11.082 11.082 0 0 1-7.49 4.993c-.208-.52.52-.7 1.04-1.847.6-1.274.208-2.159-.338-2.367-.442-.156-1.4 1.3-1.743 1.56-1.274 1.092-2.523 2.159-3.8 3.225a8.223 8.223 0 0 0-2.757 3.745c-.026.1-.1.468-.182.936-8.452 6.45-36.384 14.512-40.155 16.8-.91.546-6.788.676-13.914.624-.026-.884-.078-1.43-.078-1.43s-11.547-1.924-17.061-5.175a12.487 12.487 0 0 0-7.828-1.56 10.726 10.726 0 0 0-.832-1.274c-.052-.078-.1-.13-.156-.208-1.4-1.638-3.485-2.5-4.759-4.213-.13-2.107-.208-6.814.884-8.894.806-1.534 3.979-4.4 7.646-7.36 1.613-1.3 2.887-4.005 1.925-8.218-1.43-6.32-1.95-9.076-2.861-10.923-.65-1.326-1.795-2.237-2.393-3.407a4.756 4.756 0 0 1-.338-.624c1.638-1.846-3.147-15.266-17.893-14.9-3.719.1-7.568.338-10.9 2.029-3.3 1.664-7 4.655-6.762 7.62-5.227 1.014-5.956 6.32-6.372 8.322a26.561 26.561 0 0 0-.312 8.608c.546 4.239 2.133 8.3 2.965 12.483.676 3.407.884 7.2-.468 10.455-1.3 3.121-4.4 4.811-5.982 7.854a13.833 13.833 0 0 0 .182 12.535c.936 1.742 1.924 3.225 2.731 4.733a153.266 153.266 0 0 0-4.291 15.786L371.273 344a2.111 2.111 0 0 0-1.716 2.419l9.6 56.435a2.092 2.092 0 0 0 2.419 1.69L414.237 399a53.518 53.518 0 0 0 .052 13.368c.52 3.823 4.369 14.33 4.967 18.127 1.352 8.712 4.135 21.482 3.979 31.391a21.756 21.756 0 0 0 2.7 1.716c2.081 11.911 3.823 22.808 3.589 24.473-.52 3.719-4.629 14.174-6.034 25.123-.052.442-.1.91-.156 1.43h21.43c1.482-7.854 2.7-14.772 3.459-20.052v-.026c.182-1.326.338-2.5.468-3.589.026-.1.026-.234.052-.312.052-.6.1-1.144.156-1.664.078-.91.13-1.873.208-2.861.026-.286.026-.6.052-.884.052-.806.078-1.638.1-2.523.026-.234.026-.468.052-.728.026-1.066.052-2.159.078-3.329.026-.338.026-.7.026-1.04.026-.884.026-1.768.026-2.679 0-.416.026-.832.026-1.248v-1.04c3.589 10.4 6.372 18.439 6.372 18.439a117.288 117.288 0 0 0-3.8 23.536h20.52c.65-11.859 1.2-21.716 1.378-26.423a205.217 205.217 0 0 0-.65-24.759c0-.026 0-.026.026-.026 1.274-11.963 1.04-21.508.13-38.1-.728-13.134-4.135-25.773-7.256-35.162l20.156-3.433a2.053 2.053 0 0 0 1.69-2.393l-8.895-52.456a27.733 27.733 0 0 1 3.121.156 16.893 16.893 0 0 0 .442-2.419c7.282-.624 13.342-1.274 14.85-1.56 11.807-2.315 41.169-22.184 43.744-23.953 1.769.442 7.23-1.456 8.634-3.719a3.861 3.861 0 0 0 .65-2.471c.832-.988 2.289-4.473-.234-3.745 2.614-1.742 3.264-4.365 3.966-7.308z" transform="translate(-369.53 -247.007)"/>
                </g>
            </g>
            <g id="Group_24" transform="translate(0 .005)">
                <g id="Group_19" transform="translate(26.057 355.684)">
                    <path id="Path_38" fill="#00a4d6" d="M492.349 390.238c0 3.568-25.849 6.465-57.739 6.465s-57.736-2.9-57.736-6.465 25.849-6.465 57.736-6.465 57.739 2.895 57.739 6.465z" transform="translate(-376.875 -383.773)" style="isolation:isolate;mix-blend-mode:multiply" opacity="0.5"/>
                </g>
                <g id="Group_23">
                    <g id="Group_20" transform="translate(46.611 134.012)">
                        <path id="Path_39" d="M415.748 320.629l-27.492-22.091s-6.447 15.542-1.332 31.841c2.518 8.013-.159 13.708 1.2 17.508 1.269 3.547 10.588 53.988 10.07 57.7s-4.624 14.179-6.026 25.11c-1.685 13.149-.328 55.824-1.607 67.179s9.217 13.019 9.7 9.175c4.13-32.842 15.888-84.149 17.313-100.551s-.029-46.343-1.826-85.871z" class="cls-33" transform="translate(-384.502 -298.538)"/>
                        <path id="Path_40" d="M403.936 319.457l-11.076 27.172a60.258 60.258 0 0 1 8.848 27.991c.32 5.183-.013 10.392.255 15.578a5.085 5.085 0 0 0 .185 1.126c1.386-7.729 2.406-14.1 2.767-18.239 1.006-11.589.575-29.963-.4-53.671a4.789 4.789 0 0 0-.579.043z" class="cls-33" transform="translate(-371.842 -265.12)"/>
                        <path id="Path_41" d="M401.411 376.025s-2.226 11.932-1.514 13.43 3.243 5.839 5.768 7.37c2.647 1.6 8.473 3.451 8.952 4.161a1.794 1.794 0 0 1-.273 2.434 11.983 11.983 0 0 1-8.187 2.286c-7.865-1.108-8.759-4.551-13.336-5-.788-.075-2.221 1.124-4.426.06a5.182 5.182 0 0 1-3.173-4.952c.247-3.28 2.018-6.021 3.269-8.471S390.4 373.8 390.4 373.8" class="cls-33" transform="translate(-384.089 -178.059)"/>
                        <path id="Path_42" d="M415.658 394.445c.549-.991.658-2.471.117-2.819a45.691 45.691 0 0 0-4.947-2.819c-1.535-.663-3.961-1.222-3.1-.785s-.663 2.19-2.086 2.138c-4.918-.185-8.616-3.36-11.43-3.992-4.062-.913-5.865-5.638-6.062-6.408-.752.5-2.434 4.382-2.767 5.6-.3 1.1-.835 3.105-.5 4.234a9.835 9.835 0 0 1 .543 4.013 7.687 7.687 0 0 0 2.926.978 11.436 11.436 0 0 0 3.126-.029l.289-2.543a11.446 11.446 0 0 1 2.5.185 13.51 13.51 0 0 1 3.857 1.691c.577.655 1.056 1.865 1.8 2.221a15.668 15.668 0 0 0 6.481 1.454c5.282.176 8.317-1.426 9.253-3.119z" class="cls-34" transform="translate(-384.778 -168.526)"/>
                    </g>
                    <g id="Group_21" transform="translate(51.81 129.349)">
                        <path id="Path_43" d="M452.364 524.8c-.585-.635-6.84-1.586-9.781-2.78a16.855 16.855 0 0 1-6.892-6.437c-.674-1.584-.606-9.643-.554-13.03.346-23.313 4.078-80.315 4.564-93.961.843-23.719-2.481-48.16-11.989-86.125l-34.228-25.724s-9.334 17.78-5.984 34.657c1.948 9.792 10.1 11.217 11.513 15.016s22.587 65.062 22.587 65.062a115.687 115.687 0 0 0-3.951 27.89c-.073 12.429 5.943 49.864 7.134 64.136.151 2.788.7 9.464-.1 11.6-.98 2.616-3.519 5.7-3.358 8.991a5.056 5.056 0 0 0 3.906 4.432c2.413.723 3.742-.681 4.567-.726 4.788-.245 6.145 3.035 14.413 2.949a13.1 13.1 0 0 0 8.174-3.5 1.75 1.75 0 0 0-.021-2.45z" class="cls-33" transform="translate(-386.777 -296.745)"/>
                        <path id="Path_44" d="M432.4 391.973c.439-1.064.367-2.549-.237-2.814a47.354 47.354 0 0 0-5.469-2.049c-1.67-.427-4.247-.616-3.3-.309s-.406 2.268-1.885 2.429c-5.105.559-9.329-2.034-12.317-2.237-4.312-.3-5.94-4.715-6.239-5.448a19.755 19.755 0 0 0-2.988 5.974c-.169 1.131-.468 3.2.021 4.27a9.309 9.309 0 0 1 1.072 3.9 8.14 8.14 0 0 0 3.149.528 12.482 12.482 0 0 0 3.228-.5l-.026-2.564a12.472 12.472 0 0 1 2.609-.192 8.663 8.663 0 0 1 4.229 1.446c.7.523 1.454 1.4 2.283 1.6a17.315 17.315 0 0 0 6.715.44c5.466-.612 8.402-2.656 9.155-4.474z" class="cls-34" transform="translate(-366.07 -161.006)"/>
                    </g>
                    <g id="Group_22" transform="translate(84.971 39.082)">
                        <path id="Path_45" d="M435.713 280.04c1.7.492 7.253-1.436 8.686-3.727a3.875 3.875 0 0 0 .65-2.468c.838-.983 2.281-4.471-.226-3.742 2.582-1.729 3.238-4.356 3.937-7.295.234-.986-.908-1.282-2.1.671a11.106 11.106 0 0 1-7.493 5c-.211-.538.512-.713 1.051-1.859.6-1.269.208-2.151-.361-2.362-.429-.161-1.4 1.287-1.735 1.571q-1.9 1.607-3.789 3.217a7.914 7.914 0 0 0-2.749 3.742c-.107.286-.767 3.2.481 2.791" class="cls-33" transform="translate(-348.644 -262.037)"/>
                        <path id="Path_46" d="M404.173 299.912c12.751-.146 35.586-2.33 38.725-2.944 12.366-2.427 43.962-24.088 43.962-24.088s.6-5.056-4.216-6.455c-8.015 6.5-36.7 14.741-40.527 17.066-2.476 1.506-42.589-.135-42.589-.135" class="cls-33" transform="translate(-399.528 -255.012)"/>
                    </g>
                    <path id="Path_47" d="M389.409 273.277s-5.417 14.6-7.188 26.155l13.108 2.062v-18.566" class="cls-35" transform="translate(-342.261 -204.962)"/>
                    <rect id="Rectangle_28" width="110.46" height="61.409" class="cls-36" rx=".802" transform="rotate(-9.643 576.993 48.67)"/>
                    <path id="Path_48" fill="#39297f" d="M477.873 331.853l-98.952 17.224a1.817 1.817 0 0 1-2.1-1.488l-8.355-49.189a1.814 1.814 0 0 1 1.488-2.1l98.952-17.224a1.817 1.817 0 0 1 2.1 1.488l8.359 49.193a1.821 1.821 0 0 1-1.492 2.096z" transform="translate(-364.32 -195.719)"/>
                    <path id="Path_49" d="M381.038 332.207l-1.654.276a1.561 1.561 0 0 1-1.8-1.28l-7.2-42.373a1.563 1.563 0 0 1 1.282-1.8l1.654-.278a1.566 1.566 0 0 1 1.8 1.282l7.2 42.373a1.568 1.568 0 0 1-1.282 1.8z" class="cls-38" transform="translate(-361.254 -183.436)"/>
                    <path id="Path_50" d="M384.455 331.553l-1.654.276a1.567 1.567 0 0 1-1.807-1.282l-7.2-42.371a1.567 1.567 0 0 1 1.282-1.807l1.651-.276a1.567 1.567 0 0 1 1.808 1.28l7.2 42.373a1.567 1.567 0 0 1-1.28 1.807z" class="cls-38" transform="translate(-355.785 -184.483)"/>
                    <path id="Path_51" d="M387.87 330.9l-1.654.278a1.568 1.568 0 0 1-1.8-1.282l-7.2-42.373a1.561 1.561 0 0 1 1.28-1.8l1.654-.278a1.565 1.565 0 0 1 1.8 1.282l7.2 42.373a1.563 1.563 0 0 1-1.28 1.8z" class="cls-38" transform="translate(-350.315 -185.531)"/>
                    <path id="Path_52" d="M391.288 330.244l-1.654.276a1.563 1.563 0 0 1-1.8-1.279l-7.2-42.373a1.567 1.567 0 0 1 1.282-1.807l1.654-.276a1.566 1.566 0 0 1 1.8 1.282l7.2 42.371a1.569 1.569 0 0 1-1.282 1.806z" class="cls-38" transform="translate(-344.847 -186.579)"/>
                    <path id="Path_53" d="M394.705 329.589l-1.654.278a1.569 1.569 0 0 1-1.807-1.282l-7.2-42.374a1.565 1.565 0 0 1 1.282-1.8l1.651-.278a1.569 1.569 0 0 1 1.807 1.282l7.2 42.373a1.563 1.563 0 0 1-1.279 1.801z" class="cls-38" transform="translate(-339.377 -187.627)"/>
                    <path id="Path_54" d="M398.12 328.935l-1.654.276a1.566 1.566 0 0 1-1.8-1.28l-7.2-42.373a1.565 1.565 0 0 1 1.28-1.807l1.654-.276a1.563 1.563 0 0 1 1.8 1.282l7.2 42.373a1.566 1.566 0 0 1-1.28 1.805z" class="cls-38" transform="translate(-333.908 -188.674)"/>
                    <path id="Path_55" d="M401.538 328.281l-1.654.276a1.563 1.563 0 0 1-1.8-1.282l-7.2-42.371a1.567 1.567 0 0 1 1.282-1.808l1.654-.276a1.564 1.564 0 0 1 1.8 1.28l7.2 42.373a1.569 1.569 0 0 1-1.282 1.808z" class="cls-38" transform="translate(-328.44 -189.721)"/>
                    <path id="Path_56" d="M404.955 327.626l-1.654.276a1.565 1.565 0 0 1-1.807-1.28l-7.2-42.373a1.563 1.563 0 0 1 1.282-1.8l1.651-.278a1.567 1.567 0 0 1 1.807 1.282l7.2 42.373a1.566 1.566 0 0 1-1.279 1.8z" class="cls-38" transform="translate(-322.97 -190.769)"/>
                    <path id="Path_57" d="M408.37 326.972l-1.654.276a1.566 1.566 0 0 1-1.8-1.282l-7.2-42.371a1.565 1.565 0 0 1 1.28-1.808l1.654-.276a1.563 1.563 0 0 1 1.8 1.28l7.2 42.373a1.567 1.567 0 0 1-1.28 1.808z" class="cls-38" transform="translate(-317.501 -191.816)"/>
                    <path id="Path_58" d="M411.788 326.317l-1.654.278a1.565 1.565 0 0 1-1.8-1.282l-7.2-42.373a1.563 1.563 0 0 1 1.282-1.8l1.654-.278a1.568 1.568 0 0 1 1.8 1.282l7.2 42.373a1.565 1.565 0 0 1-1.282 1.8z" class="cls-38" transform="translate(-312.032 -192.864)"/>
                    <path id="Path_59" d="M415.205 325.663l-1.654.276a1.567 1.567 0 0 1-1.807-1.28l-7.2-42.373a1.567 1.567 0 0 1 1.282-1.807l1.651-.276a1.567 1.567 0 0 1 1.807 1.282l7.2 42.373a1.566 1.566 0 0 1-1.279 1.805z" class="cls-38" transform="translate(-306.563 -193.912)"/>
                    <path id="Path_60" d="M395.663 297.56c-9.448 8.153-13.074 21.682-11.173 36.119.5 3.823 4.361 14.322 4.957 18.143 1.355 8.689 4.138 21.479 3.974 31.388 12.681 9.2 38.433 8.393 50.09 1.529 1.3-11.976 1.053-21.5.135-38.1-1.384-25.042-12.556-48.391-12.78-50.477" class="cls-34" transform="translate(-339.412 -168.328)"/>
                    <path id="Path_61" d="M429.761 324.025c-.481 4.471 0 11.344.622 18.985.115 1.3.736 3.706.624 5.006a2.864 2.864 0 0 1-.991 1.953c-1.358 1.329-3.99 2.151-6.876 2.658-9.391 1.7-24.246.567-28.434 1.386-3.932.793-7.979-.536-7.979-2.941 0-1.67 1.529-2.6 1.67-5.885.312-7.186.086-23.539-1.246-30.839-2.772-15.305-3.534-24.387-1.612-41.5l28.688-8.148c2.208.367 1.246 7.1 3.454 7.469 1.612.255 10.694 8.884 13.269 19.068a39.962 39.962 0 0 1 3.311 6.621 11.68 11.68 0 0 1-.029 9.053c-2.208 6.022-3.763 10.352-4.471 17.114z" class="cls-35" transform="translate(-338.655 -218.699)"/>
                    <path id="Path_62" d="M403.312 303.616c-.481 4.471 0 11.344.622 18.985.115 1.3.736 3.706.624 5.006a2.864 2.864 0 0 1-.991 1.953v-.029c.848-1.9-1.188-11.318-2.065-16.608-.905-5.318-.653-15.56 1.243-22.041 1.867-6.478 2.575-9.563 2.575-9.563s1.472-2.205 2.492-3.875a11.68 11.68 0 0 1-.029 9.053c-2.209 6.027-3.764 10.357-4.471 17.119z" class="cls-35" transform="translate(-312.206 -198.29)"/>
                    <path id="Path_63" d="M411.581 270.253a12.562 12.562 0 0 1 8.455 1.449c5.534 3.266 17.081 5.191 17.081 5.191s.887 13.191-.538 18.254c0 0-3.833-.6-15.206.632-11.758 1.274-27.453 9.063-27.453 9.063" class="cls-35" transform="translate(-323.534 -210.124)"/>
                    <path id="Path_64" d="M423.881 260.392c-2.811-5.383-7.269-13-17.932-11.945s-19.791 7.779-19.661 15.768 5.539 17.609 7.623 23.139 1.2 13.742 1.2 13.742l23.633-.848s-.614-7.222.827-9.953c.809-1.527 3.974-4.39 7.646-7.355 1.6-1.3 2.9-4 1.938-8.218-1.436-6.307-1.951-9.079-2.871-10.928-.66-1.329-1.789-2.229-2.403-3.402z" class="cls-33" transform="translate(-335.753 -244.866)"/>
                    <path id="Path_65" fill="#00215b" d="M429.524 305.561c-1.433-1.7-3.631-2.544-4.9-4.369a9.856 9.856 0 0 1-1.685-6.4 11.915 11.915 0 0 1 1.412-3.62c2.572-5.181 2.733-8.53-.936-12.72a14.533 14.533 0 0 1-3-4.528c-.557-1.553-.986-3.246.52-4.187 1.048-.655 1.888-.726 2.723.026.583.525 2.268 5.472 2.567 2.078.284-3.251 1.516-4.07-1.337-9.9-.336-.692-1.917-3.41-1.68-4.031 3.665.7 4.915 1.662 6.416 4 1.638-1.836-3.147-15.264-17.89-14.894-3.724.091-7.573.336-10.887 2.018s-7 4.647-6.783 7.625c-5.22 1-5.956 6.33-6.361 8.312a26.2 26.2 0 0 0-.31 8.632c.554 4.237 2.127 8.281 2.965 12.476.681 3.412.871 7.191-.478 10.442-1.3 3.123-4.393 4.822-5.964 7.87a13.714 13.714 0 0 0 .174 12.528c2.036 3.857 4.585 6.39 3.919 11.128A15.143 15.143 0 0 0 393 342.5c2.692 2.369 7.763 3.594 11.266 3.051a25.969 25.969 0 0 0 9.238-2.915c5.508-2.991 10.418-4.921 13.979-12.866 2.016-4.5-.934-5.129.861-9.74 1.009-2.585 3.162-4.728 3.438-7.6a9.645 9.645 0 0 0-2.1-6.671z" transform="translate(-341.828 -247.009)"/>
                </g>
            </g>
        </g>
        <g id="Group_26" transform="translate(1035.873 462.406)">
            <path id="Path_66" d="M686.508 524c-.78-1.17-1.639-2.237-2.5-3.3h.026c-.026-.026-.052-.078-.1-.13-.494-.6-1.014-1.2-1.535-1.768-9.336-11.261-9.909-20.858-9.909-21.066-.156-12.77-.312-30.532-.468-43.068-.026-3.511-.052-6.632-.1-9.1 0-1.04 0-1.951-.026-2.757 0 0 .156-1.014.39-2.341.208-1.326.494-2.991.754-4.317.26-1.378.546-2.991.806-4.759v-.052a47.765 47.765 0 0 0-.052-13.888 15.426 15.426 0 0 1 4.681 1.014s-1.9-6.71-3.875-14.72c-.728-2.835-1.43-5.826-2.107-8.738a114.241 114.241 0 0 1-2.549-14.356c-.442-6.684 1.483-16.515 2.783-27.464.312-2.627.572-5.331.754-8.062q.312-3.9.312-7.88c0-.806-.026-1.613-.052-2.393a49.339 49.339 0 0 0-4.239-18.257c-.364-.806-.728-1.586-1.144-2.341a75.071 75.071 0 0 0-8.66-13.134 7.994 7.994 0 0 0-2.549-3.927 24.18 24.18 0 0 1-.676-8.01c4.005-1.665 8.114-17.347 6.268-28.634q-.156-1.014-.39-1.951c-2.315-9.883-8.608-13.753-13.011-15.547-10.151-4.135-18.863-2.741-23.5.752-4.1 3.092-8.829 6.187-15.383 13.63-4.205 4.775-2.824 10.346 2.013 12.166a13.139 13.139 0 0 0 3.277.806 18.321 18.321 0 0 0 2.679.1c-.182.832-.338 2.809 1.534 5.7.234.364 1.2.884 1.3 1.326a12.643 12.643 0 0 1 0 4.317 1.726 1.726 0 0 0-.026.364c-.234 1.092-.494 2.575-.676 3.979-.078.806-.156 1.612-.156 2.263a4.2 4.2 0 0 0 .156 1.3c.312.832 1.4 1.04 2.523 1.014.442-.026.858-.052 1.248-.1.182.364.338.728.52 1.092a31.8 31.8 0 0 0 5.28 7.828 7.2 7.2 0 0 0 1.925.494c2.939.364 6.944-.624 11.053-2.237a23.453 23.453 0 0 1 .858 3.147c-1.04.364-1.691.572-1.691.572a45.908 45.908 0 0 0 0 5.826 19.2 19.2 0 0 0-1.924 1.924 12 12 0 0 0-1.04 1.3 9 9 0 0 0-.52.832 97.062 97.062 0 0 0-10.611 23.406c-1.092 3.355-2.055 6.788-2.913 10.273-.026.052-.026.1-.052.156-.494.078-1.04.182-1.638.26-7.256 1.3-20.052 3.9-33.523 7.646l-3.823 1.092.078.624c-2.08.026-5.357-.286-7.282-.078-1.248.1-3.849 2.523-6.294 4.5-1.977 2.263-3.771 4.291-3.225 4.629a.692.692 0 0 0 .312.078 3.755 3.755 0 0 0 1.846-1.04 1.647 1.647 0 0 0 1.066-.026c.962-.286 2.419-2.081 3.121-2.575.312-.234 1.092-.728 1.821-1.2a4.868 4.868 0 0 1 2.367.052 1.135 1.135 0 0 1-.6 1.378c-.65.416-2.185.6-2.315 1.04-.13.416 0 1.248 2.211.832a11.8 11.8 0 0 0 4.577-1.872 5.416 5.416 0 0 1 3.121-.988l.13.858s16.7.156 32.405-.208l2.523-.078q-.351 1.834-.624 3.667a6.055 6.055 0 0 1-.962.1l-5.7.156a1.224 1.224 0 0 0-.442-.1h-52.795l-3.9-10.845-2.913-8.062-3.719-10.273-6.71-18.621a1.655 1.655 0 0 0-2.081-.988l-.676.26a1.63 1.63 0 0 0-.988 2.107l6.216 17.243 3.719 10.273 2.887 8.062 3.953 10.923c-1.248-1.04-1.951-1.17-1.768-.078a11.525 11.525 0 0 0 6.086 7 35.566 35.566 0 0 0 6.84 1.924 6.33 6.33 0 0 0 2.7-.078 26.509 26.509 0 0 1 4.889-.65l-.052 1.716s17.243 1.846 29.18 3.563c4.915.7 9.753 1.118 14.226 1.326-.13 1.248-.286 2.523-.416 3.771-.442 4.317-.78 8.5-1.04 12.405-.234 3.095-.416 6.008-.572 8.738-.6 11.469-.7 19.375-1.17 20.364 0 0 1.482 1.508 6.658 1.82q.117 1.561.234 3.2v.026c-.182 1.612-.624 8.088-1.222 16.41-.182 2.861-.416 5.93-.624 9.1-.91 13.134-1.951 27.958-2.627 36.1a10.128 10.128 0 0 0-.6 4.005c.026.91-.026 10.065 0 11.157.182 4.213.546 10.949.988 19.115h21.56c-.13-.78-.286-1.56-.442-2.315-.052-.286-.1-.546-.156-.832-.026-.468-.078-1.04-.182-1.794-1.2-10.065-1.222-7.152 1.534-19.87 1.43-3.667 3.147-8.036 4.993-12.717 2.965 10.533 5.435 19.505 6.476 24.811a1.124 1.124 0 0 0 .026.13c.052.286.1.546.156.806a6.592 6.592 0 0 0 .416 1.3c.052.13.13.286.182.442a13.788 13.788 0 0 0 1.248 2.471c0 .052.052.078.078.13 1.222 1.951 2.861 4.473 4.785 7.438h27.438c-.229-.372-.437-.711-.671-1.044z" transform="translate(-540.482 -240.505)" style="isolation:isolate;mix-blend-mode:multiply" fill="#5fb0e7" opacity="0.3"/>
        </g>
        <g id="Group_33" transform="translate(1028.28 468.023)">
            <g id="Group_27" opacity="0.5" transform="translate(36.01 364.89)">
                <path id="Path_67" d="M551.408 387.419c0 2.455 37.089 4.447 82.843 4.447s82.835-1.992 82.835-4.447-37.086-4.45-82.835-4.45-82.843 1.992-82.843 4.45z" class="cls-42" transform="translate(-551.408 -382.969)"/>
            </g>
            <g id="Group_28" transform="translate(64.632 346.178)">
                <path id="Path_68" d="M569.537 375.774s-.455 11.719.156 14.4c.481 2.114 7.048 2.322 7.846 1.2s1.821-14.723 1.821-14.723" class="cls-33" transform="translate(-551.271 -375.774)"/>
                <path id="Path_69" d="M590.5 385.639a45.954 45.954 0 0 1-.627 5.924h-7.935l-.393-1.324a12.471 12.471 0 0 1-4.593 1.324h-6.7c-4.9 0-7.685-.624-7.81-1.485-.518-3.607 5.339-3.443 6.866-3.443 4.377 0 9.121-2.049 10.153-4.273.749-1.612.419-2.021 1.324-1.719a2.273 2.273 0 0 1 1.36 1.173 4.015 4.015 0 0 0 4.138 2.257 4.77 4.77 0 0 0 2.681-1.293 2.893 2.893 0 0 1 1.536 2.859z" class="cls-43" transform="translate(-562.414 -368.128)"/>
            </g>
            <g id="Group_29" transform="translate(153.952 342.246)">
                <path id="Path_70" d="M601.164 379.638s2.169 5.841 3.118 7.789 7.4-.453 7.732-1.792-4.91-11.373-4.91-11.373" class="cls-33" transform="translate(-589.705 -374.262)"/>
                <path id="Path_71" d="M621.465 380.341c.835 2.094 2.073 6.153 2.073 6.153l-6.015 3.586-1.181-.892a11.735 11.735 0 0 1-3.165 3.308 25.85 25.85 0 0 1-5.953 2.468c-5.5 1.253-9.742.648-10.177-.109-1.815-3.157 5.467-4.892 6.884-5.456a9.82 9.82 0 0 0 6.069-8.013c.1-1.776-.359-2.034.593-2.088 0 0 1.854-.312 2.954 2.452.073-.016 4.338-.775 5.435-3.5a2.892 2.892 0 0 1 2.483 2.091z" class="cls-43" transform="translate(-596.758 -367.87)"/>
            </g>
            <g id="Group_31" transform="translate(78.04 151.842)">
                <path id="Path_72" d="M618.872 345.881s.624-4.023 1.131-6.645c1.615-8.32 4.138-25.019-9.477-38.186 0 0-16.049 7.186-28.9 8.052-10.119.684-12.442-.008-12.442-.008s-.658 13.659 3.425 47.9z" class="cls-34" transform="translate(-565.048 -301.05)"/>
                <g id="Group_30" transform="translate(11.162 13.019)">
                    <path id="Path_73" d="M643.064 428.081a55.441 55.441 0 0 1-10.327 5.009l-.949-1.67q-1-1.853-2.081-3.776l-.026-.026a1.3 1.3 0 0 0-.1-.206c-2.286-4.008-4.8-8.247-7.448-12.613l-.026-.023a.211.211 0 0 0-.049-.1c-14.283-23.4-32.493-49.754-38.966-60.131-.026-.052-.078-.078-.078-.128a16.21 16.21 0 0 1-1.259-2.468c-.052-.153-.127-.307-.179-.437a6.689 6.689 0 0 1-.411-1.308c-.052-.257-.1-.515-.154-.8a1.132 1.132 0 0 1-.026-.13 5.467 5.467 0 0 1 1.311-4.648 4.539 4.539 0 0 1 .822-.746c3.493-2.518 10.5-1.951 16.283 2.133.284.205.593.437.9.668.153.1.309.231.463.333a55.778 55.778 0 0 1 13.87 13.922c13.197 19.932 21.031 50.064 28.43 67.145z" class="cls-34" transform="translate(-557.37 -247.932)"/>
                    <path id="Path_74" d="M615.3 407.167c.231 10.97-3.8 13.487-8.247 12.382a12.539 12.539 0 0 1-2.286-.848 20.042 20.042 0 0 1-7.474-6.653c-.026-.052-.075-.078-.052-.127a13.928 13.928 0 0 1-1-1.852c-.052-.153-.127-.307-.179-.437a6.689 6.689 0 0 1-.411-1.308c-.052-.257-.1-.515-.154-.8a1.132 1.132 0 0 1-.026-.13c-1.079-5.469-3.649-14.845-6.757-25.789-1.771-6.19-3.7-12.868-5.625-19.6-5.854-20.213-11.378-40.043-11.225-45.848.567-20.858 24.787-4.265 36.4 3.9 4.882 3.467 6.14 9.428 6.218 14.923.1 5.162.564 56 .77 70.149.026.359.026.694.026 1 .022.396.022.731.022 1.038z" class="cls-34" transform="translate(-571.861 -306.056)"/>
                    <path id="Path_75" d="M594.717 339.4s.51 10.806 11.56 22.993c0 0-15.976-4.837-16.848-5.755s-4.967-11.131-4.832-12.294 10.12-4.944 10.12-4.944z" class="cls-34" transform="translate(-551.479 -252.68)"/>
                </g>
                <path id="Path_76" fill="#4c4051" d="M633.695 469.182c-2.286-4.008-4.8-8.247-7.448-12.613l-.026-.023a.211.211 0 0 0-.049-.1c-14.283-23.4-32.493-49.754-38.966-60.131-.026-.052-.078-.078-.078-.128a16.21 16.21 0 0 1-1.259-2.468c-.052-.153-.127-.307-.179-.437a6.689 6.689 0 0 1-.411-1.308c-.052-.257-.1-.515-.154-.8a1.132 1.132 0 0 1-.026-.13c-1.079-5.469-3.649-14.845-6.757-25.789l18.265-48.982h6.653S595.758 338.9 592.7 349.1c-3.056 10.171-3.9 26.1-4.166 31.937-.588 12.816 15.144 34.543 19.638 42.462 4.837 8.519 23.879 42.445 25.523 45.683z" transform="translate(-550.326 -276.682)"/>
                <path id="Path_77" d="M582.385 448.859c-.328.021-.653.018-.954.018a54.26 54.26 0 0 1-10.5-.783l.013-1.927c.544-29.557-2.754-77.889-3.36-93.16-.042-1.069.016-10.244-.005-11.134-.284-13.154 12.881-1.43 17.677 8.868a40.9 40.9 0 0 1 2.7 7.917c.84 3.443.869 7.269 1.724 11.165 5.064 23.037-5.209 59.993-7.295 79.036z" class="cls-34" transform="translate(-567.569 -245.064)"/>
                <path id="Path_78" d="M613.706 335.219c-.055.3-21.776 54.2-26.018 65.9v.021c-.622 1.636-2.629 2.98-5.178 3.592-5.846 1.436-14.46-.939-14.915-12.551a28.435 28.435 0 0 1 .151-4.179c1-9.388 4.356-61.327 4.9-66.336.52-5.006 1.607-12.3 4.278-13.167 13.328-4.247 40.709 7.987 36.782 26.72z" class="cls-34" transform="translate(-567.569 -290.476)"/>
                <path id="Path_79" d="M579.647 340.028c-2.96 13.8-2.952 10.455-1.714 20.751 1.2 10.018-3.23-8.764-3.23-8.764l2.77-7.006z" class="cls-34" transform="translate(-556.15 -238.657)"/>
            </g>
            <path id="Path_80" d="M559.346 285.571s-3-.481-3.274-.239a10.722 10.722 0 0 1-1.139.723v.577a1.44 1.44 0 0 0-.218.031c-.138.07-2.182 1.381-2.39 1.542s-2.71 3-2.71 3a1.429 1.429 0 0 0 1.352.1c.944-.276 2.416-2.07 3.105-2.575.315-.231 1.084-.723 1.826-1.189.962-.177 2.4-.273 3.139.51 1.172 1.249.309-2.48.309-2.48z" class="cls-33" transform="translate(-518.27 -174.477)"/>
            <path id="Path_81" d="M574.1 283.681s-5.313 1.709-6.962 2.016-6.229-.244-8.671 0c-1.256.125-3.839 2.536-6.3 4.52-1.977 2.247-3.753 4.281-3.217 4.614 1.108.687 3.9-2.832 6.195-4.476 1.735-1.246 3.188-1.191 3.984-.642s.442 1.358-.229 1.784-2.2.611-2.323 1.038 0 1.256 2.2.843a11.623 11.623 0 0 0 4.58-1.88 5.63 5.63 0 0 1 3.113-.975c1.649-.185 9.768-1.623 9.768-1.623" class="cls-33" transform="translate(-519.492 -177.01)"/>
            <path id="Path_82" d="M598.349 280.529l-1.67 14.026-.179 1.412c-.46.026-.9.026-1.36.052-2.107.078-4.291.128-6.473.206-15.7.359-32.389.206-32.389.206l-.962-6.234a374.881 374.881 0 0 1 37.359-8.715c3.57-.618 5.674-.953 5.674-.953z" class="cls-35" transform="translate(-509.144 -182.056)"/>
            <g id="Group_32" transform="translate(0 68.562)">
                <rect id="Rectangle_29" width="3.995" height="54.167" class="cls-45" rx=".632" transform="rotate(-19.78 3.882 .678)"/>
                <rect id="Rectangle_30" width="58.201" height="4.124" class="cls-45" rx=".734" transform="translate(18.034 49.345)"/>
            </g>
            <path id="Path_83" d="M577.822 280.529l-1.67 14.026c-.46.437-.975.949-1.54 1.464-2.107.078-4.291.128-6.473.206a125.9 125.9 0 0 1 4.008-14.743c3.571-.618 5.675-.953 5.675-.953z" class="cls-35" transform="translate(-488.617 -182.056)"/>
            <path id="Path_84" d="M629.061 382.115c-7.116-2.9-17.776.31-37.835 5.214-20.088 4.931-24.35.411-24.35.411.718-1.514.538-19.393 2.772-41.507.463-4.751 1.079-9.708 1.8-14.743 3-20.473 8.4-42.228 18.468-57.229 4.983-7.425 19.136-11.045 19.136-11.045 7.732 9.451 15.36 20.7 15.334 37.682s-4.494 33.6-3.852 43.383c.693 9.812 8.527 37.834 8.527 37.834z" class="cls-35" transform="translate(-490.64 -209.769)"/>
            <path id="Path_85" d="M585.179 335.142a104.545 104.545 0 0 1-17.238.205c.463-4.751 1.079-9.708 1.8-14.743l.668-.026a8.368 8.368 0 0 0 7.885-6.242c1.334-5.035 3.594-13.05 6.985-23.607 6.036-18.853 12.33-19.6 12.33-19.6s9.222-4.726 9.607 5.292c.36 9.866-10.248 57.279-22.037 58.721z" class="cls-35" transform="translate(-488.934 -198.883)"/>
            <path id="Path_86" d="M587.169 332.672s6.837-2.468 10.744-14.2l-4.229-7.451-8.984 4.179s-1.526 8.106-1.2 8.507 3.669 8.965 3.669 8.965z" class="cls-34" transform="translate(-464.114 -133.247)"/>
            <path id="Path_87" d="M567.659 295.512l-.617-5.006a38.5 38.5 0 0 1-6.632.322c-2.133-.255-4.676-1.386-7.758-1.977-3.108-.59-3.776.668-3.287 1.412.59.874 4.083 1.311 4.083 1.311s.489.437-1.412.437h-1.966a8.128 8.128 0 0 1-2.325-1.045c-.343-.341-.694-.687-1.092-1.111-2.034-2.156-3.318-2.835-3.1-1.376a11.507 11.507 0 0 0 6.1 7 35.911 35.911 0 0 0 6.84 1.909 6.2 6.2 0 0 0 2.694-.068 26.56 26.56 0 0 1 5.844-.694c1.714.075 2.78.083 2.78.083 3.822.303 1.801-.545-.152-1.197z" class="cls-33" transform="translate(-528.014 -170.571)"/>
            <path id="Path_88" d="M623.052 269.244s-6.288.736-12.333 19.6c-3.376 10.543-5.636 18.572-6.972 23.6a8.393 8.393 0 0 1-7.9 6.244l-44.152 1.16-.289 8.8s17.238 1.862 29.188 3.568 23.651 1.808 30.02 1.027c11.794-1.446 23.362-53.237 22.8-58.526-.89-8.261-10.362-5.473-10.362-5.473z" class="cls-35" transform="translate(-515.398 -200.845)"/>
            <path id="Path_89" d="M567.388 259.453a13.634 13.634 0 0 0 2.335 7.337c.237.367 1.207.879 1.324 1.324a14.741 14.741 0 0 1-.047 4.676c1.924 6.733 4.741 12.988 8.9 17.373 4.273 1.885 12.611-1.077 19.659-4.8 1.506-.13 9.828-4.224 8.624-16.046s-10.442-22.678-11.071-22.925-18.889 3.108-19.622 3.267-10.102 9.794-10.102 9.794z" class="cls-33" transform="translate(-489.822 -236.715)"/>
            <path id="Path_90" d="M595.452 271.1s-9.43 4.856-9.633-1.428-1.014-6.494-4.861-2.98-13.292 1.1-14.08-3.846c-.219-1.363 7.425-11.716 11.355-14.049 8.46-5.022 9.8-8.985 24.816-3.425 4.749 1.758 6.884 6.177 8.744 17.474s-.707 21.2-4.725 22.889c-2.585 1.087-3.813-1.55-4.775-6.9-.408-2.788 6.866-8.19-.775-15.173-3.159-2.204-9.79 1.715-6.066 7.438z" class="cls-36" transform="translate(-490.643 -242.665)"/>
            <path id="Path_91" d="M592.539 260.523s-.715 8.138 2.3 10.684c-4.637 5.6-15.066 6.439-15.066 6.439s2.374-3.818-2.957-13.737 15.723-3.386 15.723-3.386z" class="cls-33" transform="translate(-476.115 -217.458)"/>
            <path id="Path_92" d="M576.934 272.5a44.8 44.8 0 0 1 0-5.82s10.054-3.467 14.886-4.382a8.163 8.163 0 0 1 2.549 3.93s-10.13 5.072-17.435 6.272z" class="cls-35" transform="translate(-474.71 -211.237)"/>
            <path id="Path_93" d="M569.643 255.872s-1.688 7.485-1.035 9.292 5.116.637 5.116.637z" class="cls-33" transform="translate(-488.106 -221.525)"/>
        </g>
        <g id="Group_39" transform="translate(520.925 198.695)">
            <g id="Group_34" transform="translate(518.39 136.303)">
                <rect id="Rectangle_31" width="236.241" height="113.131" class="cls-46" rx="2.793" transform="translate(5.21 5.202)"/>
                <path id="Path_94" d="M778.054 198.772v98.619a7.259 7.259 0 0 1-7.256 7.256H549.087a7.264 7.264 0 0 1-7.282-7.256v-98.619a7.264 7.264 0 0 1 7.282-7.256H770.8a7.259 7.259 0 0 1 7.254 7.256z" class="cls-26" transform="translate(-541.805 -191.516)"/>
                <path id="Path_95" fill="#aec1ff" d="M778.054 198.772v14.2H541.805v-14.2a7.264 7.264 0 0 1 7.282-7.256H770.8a7.259 7.259 0 0 1 7.254 7.256z" transform="translate(-541.805 -191.516)"/>
                <path id="Path_96" d="M763.263 205.337V273.4H545.229v-21.745c8.8-12.067 20.821-20.085 48.329-3.831 26.434 15.62 26.358-34.675 56.565-32.075 30.179 2.6 38.238 47.687 61.668 13.227 23.459-34.458 51.472-23.639 51.472-23.639z" class="cls-48" transform="translate(-536.324 -171.97)"/>
                <path id="Rectangle_32" d="M0 0H42.955V2.926H0z" class="cls-48" transform="translate(8.904 32.943)"/>
                <path id="Rectangle_33" d="M0 0H72.603V2.926H0z" class="cls-48" transform="translate(8.904 38.144)"/>
                <path id="Rectangle_34" d="M0 0H54.507V2.926H0z" class="cls-48" transform="translate(8.904 43.346)"/>
                <path id="Rectangle_35" d="M0 0H65.776V2.926H0z" class="cls-48" transform="translate(8.904 48.547)"/>
                <path id="Rectangle_36" d="M0 0H42.955V2.926H0z" class="cls-48" transform="translate(8.904 53.749)"/>
            </g>
            <g id="Group_36" transform="translate(64.188)">
                <path id="Path_97" d="M503.326 180.036a70.272 70.272 0 0 1-131.726 0z" class="cls-46" transform="translate(-360.053 -73.589)"/>
                <g id="Group_35">
                    <path id="Path_98" d="M379.747 153.206a70.255 70.255 0 0 0-8.79 62.911l66.474-22.808z" class="cls-7" transform="translate(-367.16 -116.536)"/>
                    <path id="Path_99" d="M398.05 139.106v70.271l51.676 47.593a70.252 70.252 0 0 0-51.676-117.864z" class="cls-7" transform="translate(-317.714 -139.106)"/>
                    <path id="Path_100" d="M429.684 141.606A70.111 70.111 0 0 0 372 171.774l57.684 40.1z" class="cls-22" transform="translate(-359.413 -135.104)"/>
                    <path id="Path_101" d="M389.16 237.649a70.281 70.281 0 0 0 64.732-21.43l-51.676-47.593z" class="cls-35" transform="translate(-331.944 -91.853)"/>
                    <path id="Path_102" fill="#15a7ce" d="M368.62 191.434a70.337 70.337 0 0 0 53.419 46.215l13.056-69.023z" transform="translate(-364.823 -91.853)"/>
                </g>
            </g>
            <g id="Group_37" transform="translate(0 257.341)">
                <path id="Path_103" d="M441.455 238.956h-93.649a4.661 4.661 0 0 0-4.661 4.661v29.568a4.661 4.661 0 0 0 4.661 4.66h77.647c.39 3.126 2.585 9.3 13.867 9.3 0 0-4.642-.85-5.612-9.3h7.747a4.659 4.659 0 0 0 4.658-4.66v-29.568a4.659 4.659 0 0 0-4.658-4.661z" class="cls-46" transform="translate(-341.413 -236.615)"/>
                <path id="Path_104" d="M440.786 238.056h-93.649a4.658 4.658 0 0 0-4.658 4.658v29.57a4.661 4.661 0 0 0 4.658 4.66h77.647c.39 3.123 2.585 9.295 13.867 9.295 0 0-4.642-.85-5.61-9.295h7.745a4.661 4.661 0 0 0 4.661-4.66v-29.57a4.659 4.659 0 0 0-4.661-4.658z" class="cls-50" transform="translate(-342.479 -238.056)"/>
                <rect id="Rectangle_37" width="96.069" height="4.015" class="cls-51" rx=".551" transform="translate(3.088 3.629)"/>
                <rect id="Rectangle_38" width="96.069" height="4.015" class="cls-51" rx=".551" transform="translate(3.088 10.388)"/>
                <rect id="Rectangle_39" width="96.069" height="4.015" class="cls-51" rx=".551" transform="translate(3.088 17.146)"/>
                <rect id="Rectangle_40" width="96.069" height="4.016" class="cls-51" rx=".551" transform="translate(3.088 23.904)"/>
                <rect id="Rectangle_41" width="96.069" height="4.015" class="cls-51" rx=".551" transform="translate(3.088 30.663)"/>
            </g>
            <g id="Group_38" transform="translate(640.005 272.029)">
                <path id="Path_105" d="M593.228 244.6h93.649a4.661 4.661 0 0 1 4.658 4.66v29.57a4.658 4.658 0 0 1-4.658 4.658H609.23c-.39 3.126-2.585 9.3-13.867 9.3 0 0 4.642-.85 5.61-9.3h-7.745a4.659 4.659 0 0 1-4.661-4.658v-29.57a4.661 4.661 0 0 1 4.661-4.66z" class="cls-46" transform="translate(-588.567 -242.263)"/>
                <path id="Path_106" d="M593.895 243.7h93.646a4.659 4.659 0 0 1 4.661 4.661v29.567a4.66 4.66 0 0 1-4.661 4.661h-77.647c-.387 3.126-2.585 9.3-13.867 9.3 0 0 4.642-.85 5.612-9.3h-7.745a4.66 4.66 0 0 1-4.661-4.661v-29.563a4.659 4.659 0 0 1 4.662-4.665z" class="cls-50" transform="translate(-587.499 -243.704)"/>
                <rect id="Rectangle_42" width="29.583" height="30.558" class="cls-52" rx=".844" transform="rotate(180 50.807 17.339)"/>
                <rect id="Rectangle_43" width="62.239" height="3.846" class="cls-52" rx=".434" transform="rotate(180 34.005 3.982)"/>
                <rect id="Rectangle_44" width="48.626" height="3.846" class="cls-52" rx=".384" transform="rotate(180 34.005 7.321)"/>
                <rect id="Rectangle_45" width="62.239" height="3.846" class="cls-52" rx=".434" transform="rotate(180 34.005 10.66)"/>
                <rect id="Rectangle_46" width="57.186" height="3.846" class="cls-52" rx=".416" transform="rotate(180 34.005 14)"/>
                <rect id="Rectangle_47" width="23.81" height="3.846" class="cls-52" rx=".269" transform="rotate(180 34.005 17.339)"/>
            </g>
        </g>
        <g id="Group_40" transform="translate(886.094 220.768)">
            <path id="Path_107" d="M581.542 197.753h-94.536a10.507 10.507 0 0 1 .923-3.3c2.406-5.675 11.167-17.149 42.719-22.27l15.576-3.207s36.119-.031 35.318 28.777z" class="cls-35" transform="translate(-476.302 -113.365)"/>
            <path id="Path_108" d="M550.2 182.4H487a10.507 10.507 0 0 1 .923-3.3 14.373 14.373 0 0 1 7.5-.062c2.315.616 3.857 1.019 3.857 1.019h41.12c8.017-.003 9.8 2.343 9.8 2.343z" class="cls-35" transform="translate(-476.302 -98.01)"/>
            <path id="Path_109" d="M502.387 180.122a15.311 15.311 0 0 1 2.185 5.36 5.26 5.26 0 0 0 5.4 4.044c13.81-.778 12.892-9.4 12.892-9.4-2.848-4.351-4.577-17.248-4.577-17.248" class="cls-33" transform="translate(-451.681 -123.133)"/>
            <path id="Path_110" d="M489.961 153.952s-.562 18.873 7.191 18.624 0-19.113 0-19.113z" class="cls-36" transform="translate(-471.587 -138.197)"/>
            <path id="Path_111" d="M533.945 174.928a34.006 34.006 0 0 1 .148 6.564 5.473 5.473 0 0 1-.117.71 5.811 5.811 0 0 1-.156.713c-1.875 7.422-11.274 17.9-17.875 18.746a17.531 17.531 0 0 1-2.551.047c-9.193-.419-14.561-7.953-17.677-15.968-.107-.291-.211-.562-.315-.832a73.778 73.778 0 0 1-3.867-17.784c-.055-.632-.484-7.461.853-9.487 1.469-2.226 19.638-4.333 20.015-4.367s17.838 1.225 17.838 1.225a187.984 187.984 0 0 1 3.704 20.433z" class="cls-33" transform="translate(-469.226 -138.508)"/>
            <path id="Path_112" d="M534.327 161.6a28.962 28.962 0 0 1-.226 6.434 4.951 4.951 0 0 1-.115.71c-1.2 7.422-10.275 18.957-20.488 19.869a22 22 0 0 1-2.278.2c-11.053.447-14.894-7.883-17.95-16.124-.107-.291-.211-.562-.315-.832 0 0 3.846 6.132 5.761 6.32s-.46-2.211 4.741-4.242c3.319-1.3 8.341-1.178 10.684-.887 2.164.286 6.049 1.394 7.425 1.589a1.508 1.508 0 0 0 .793-.07c1.833-.944 6.3-7.953 6.949-11.909.262-1.538 3.578-1.309 5.019-1.058z" class="cls-36" transform="translate(-466.779 -125.462)"/>
            <path id="Path_113" d="M490.042 160.763s-3.014 12.1 18.871 6.772c6.005-1.462 11.305-2.827 14.283-1.22 4.473 14.072 4.619 20.824 6.2 20.27 1.982-.692-3.389-12.382 3.456-11.121 5.235.965-.229 13.867-.229 13.867s6.364.835 6.549-2.12c.109-1.766.1-21.1-2.538-28-1.3-3.384-8.218-10.684-10.991-10.673-4.6.016-13.807-1.319-18.382-.84a22.1 22.1 0 0 0-17.219 13.065z" class="cls-36" transform="translate(-471.668 -147.593)"/>
            <path id="Path_114" d="M578.312 180.037s-1.126 22.774-10.473 37.271v.031s-.091.122-.245.369a1.287 1.287 0 0 0-.247.338c-2.809 4.226-18.384 27.3-28.439 36.459-11.043 10.117-23.75 21.56-23.75 21.56l-.463-.4a31.459 31.459 0 0 0-3.638 3.919c-.866 1.542-1.729 7.248-3.363 7.9a4.957 4.957 0 0 1-.772.185 5.214 5.214 0 0 1-2.374 1.048 15.152 15.152 0 0 1-5.121-.523 10.282 10.282 0 0 1-2.343 1.818c-2.221 1.142-4.317 2.684-6.169 3.269-1.821.588-2.127 0-1.727-1.139.369-1.173 3.854-3.084 5.121-4.073a19.318 19.318 0 0 0 4.133-5.459c.77-1.7.77-2.622 0-2.622s-3.147 1.449-4.967 1.82c-1.818.4-2.713-.094-1.818-1.142.863-1.079 3.422-4.164 6.385-4.936 2.991-.77 3.854-.77 5.982-2.406a18.635 18.635 0 0 0 3.363-4.07l-.739-.648s19.862-27.7 34.73-49.1c.338-.463.648-.863.986-1.326 8.421-16.964 9.253-30.413 9.191-35.687a5.128 5.128 0 0 0-2.528-2.437z" class="cls-46" transform="translate(-473.056 -95.66)"/>
            <path id="Path_115" d="M508.538 213.164s-3.181 5.5-5.3 7.134-2.988 1.638-5.976 2.408-5.542 3.854-6.411 4.915 0 1.542 1.833 1.157 4.192-1.831 4.962-1.831.772.939 0 2.637a19 19 0 0 1-4.143 5.459c-1.254.965-4.723 2.892-5.11 4.049s-.1 1.735 1.735 1.155 3.953-2.12 6.169-3.277a10.642 10.642 0 0 0 2.33-1.807 15.282 15.282 0 0 0 5.118.523 5.685 5.685 0 0 0 2.4-1.051 4.706 4.706 0 0 0 .754-.179c1.638-.666 2.507-6.351 3.373-7.893s7.181-7.279 7.181-7.279z" class="cls-33" transform="translate(-474.32 -42.633)"/>
            <path id="Path_116" d="M556.2 223.09v-.018c9.363-14.494 12.541-37.271 12.541-37.271l-11.953-8.143-6.112 2.934c-3.836-1.677-10.4-4.156-10.4-4.156l-2.874 9.365a5.2 5.2 0 0 1 2.533 2.437c.063 5.269-.785 18.725-9.188 35.692-.335.455-.666.856-1 1.342-14.847 21.383-34.719 49.078-34.719 49.078l8.5 7.474s12.723-11.443 23.773-21.547c10.031-9.167 25.615-32.251 28.423-36.459.078-.12.159-.239.239-.359z" class="cls-35" transform="translate(-463.48 -101.424)"/>
            <path id="Path_117" d="M508.8 185.685c-.125-.029-.216-.06-.341-.091.369.4.616.71.71.832.338.369.122.616.122.616-.463.494-.863.432-1.448.4a2.278 2.278 0 0 1-1.079-.523 1.624 1.624 0 0 1-1.358.307c-.554-.06-1.233-.616-2.127-1.511a.447.447 0 0 1 0 .432 1.661 1.661 0 0 1-1.482.4 4.786 4.786 0 0 1-2.281-1.664c-.309-.31-.741-.832-1.2-1.389-.432-.307-.832-.585-1.17-.8a3.211 3.211 0 0 0-1.789-.585h-.094v-.031c-4.473-.094-6.476-2.036-11.966-2.036h24.889c-.06.031-.091.062-.154.094a10.548 10.548 0 0 1-1.511.276l.122.125c.341.369.647.741.926 1.079.988 1.2 2.315 2.775 2.562 3.022.338.4.122.648.122.648a1.6 1.6 0 0 1-1.453.399z" class="cls-46" transform="translate(-482.243 -95.653)"/>
            <path id="Path_118" d="M508.4 187.753c-.122-.029-.216-.06-.338-.091.369.4.616.71.71.832.338.369.122.616.122.616-.463.494-.863.432-1.449.4a2.279 2.279 0 0 1-1.079-.523 1.624 1.624 0 0 1-1.358.307c-.557-.06-1.235-.616-2.13-1.511a.44.44 0 0 1 0 .432 1.656 1.656 0 0 1-1.48.4 4.786 4.786 0 0 1-2.281-1.664c-.309-.31-.741-.832-1.2-1.389-.432-.307-.832-.585-1.173-.8a3.2 3.2 0 0 0-1.789-.585h-.091v-.031c-4.473-.094-6.478-2.036-11.969-2.036 0 0 12.832-6.169 20.574-1.789a25.656 25.656 0 0 0 3.269.341c2.252.031 1.6 1.17.895 1.542a10.551 10.551 0 0 1-1.511.276l.122.125c.341.369.648.741.926 1.079.986 1.2 2.312 2.775 2.559 3.022.341.4.125.648.125.648a1.6 1.6 0 0 1-1.454.399z" class="cls-33" transform="translate(-482.89 -97.721)"/>
            <path id="Path_119" fill="url(#linear-gradient-4)" d="M494.965 181.236a10.551 10.551 0 0 1-1.511.276 21.519 21.519 0 0 0-2.653-2.159 25.656 25.656 0 0 0 3.269.341c2.252.031 1.605 1.17.895 1.542z" transform="translate(-470.227 -96.755)" style="isolation:isolate;mix-blend-mode:multiply" opacity="0.47"/>
        </g>
        <g id="Group_64" transform="translate(1208.655 674.761)">
            <g id="Group_41" transform="translate(30.241 157.921)">
                <path id="Path_120" d="M703.881 387.241c0 2.65-19.1 4.775-42.667 4.775s-42.667-2.125-42.667-4.775c0-1.82 9.108-3.394 22.522-4.195l.689 2.6a2.486 2.486 0 0 0 2.4 1.849h31.352a2.546 2.546 0 0 0 2.429-1.849l.718-2.762c14.875.742 25.224 2.425 25.224 4.357z" class="cls-42" transform="translate(-618.546 -382.88)"/>
            </g>
            <path id="Path_121" d="M662.758 386.73s-1.464-15.269-21.529-22.762-34.311 1.4-34.311 1.4 1.966-18.4 17.833-17.568 19.081 11.069 19.081 11.069 8.6-8.959 16.143-2.32c6.257 5.513 5.253 16.457 5.253 16.457s5.938.733 5.079 10.19a23.321 23.321 0 0 1-.528 3.259" class="cls-54" transform="translate(-606.918 -281.148)"/>
            <path id="Path_122" d="M662.758 386.73s-1.464-15.269-21.529-22.762-34.311 1.4-34.311 1.4 1.966-18.4 17.833-17.568 19.081 11.069 19.081 11.069 8.6-8.959 16.143-2.32c6.257 5.513 5.253 16.457 5.253 16.457s5.938.733 5.079 10.19a23.321 23.321 0 0 1-.528 3.259" class="cls-55" transform="translate(-606.918 -281.148)"/>
            <g id="Group_48" transform="translate(34.611 28.708)">
                <g id="Group_42" transform="translate(7.973 6.782)">
                    <path id="Path_123" d="M647.71 405.755c-.224-47.684-24.174-68.906-24.418-69.117l.723-.835c.244.211 24.572 21.726 24.8 69.946z" class="cls-56" transform="translate(-623.292 -335.804)"/>
                </g>
                <g id="Group_43">
                    <path id="Path_124" d="M629.565 341.307s-5.043.5-8-1.826a3.52 3.52 0 0 1 4.359-5.529c3.076 2.427 3.641 7.355 3.641 7.355z" class="cls-56" transform="translate(-620.226 -333.196)"/>
                </g>
                <g id="Group_44" transform="translate(2.168 10.026)">
                    <path id="Path_125" d="M630.191 337.071s-.46 5.048-3.308 7.508a3.522 3.522 0 1 1-4.6-5.331c2.961-2.559 7.908-2.177 7.908-2.177z" class="cls-56" transform="translate(-621.06 -337.051)"/>
                </g>
                <g id="Group_45" transform="translate(11.115 2.205)">
                    <path id="Path_126" d="M624.5 342s.817-5 3.833-7.256a3.521 3.521 0 0 1 4.211 5.644C629.4 342.73 624.5 342 624.5 342z" class="cls-56" transform="translate(-624.5 -334.044)"/>
                </g>
                <g id="Group_46" transform="translate(8.84 19.532)">
                    <path id="Path_127" d="M633.283 340.916s-1.045 4.96-4.164 7.069a3.521 3.521 0 0 1-3.945-5.833c3.243-2.196 8.109-1.236 8.109-1.236z" class="cls-56" transform="translate(-623.626 -340.707)"/>
                </g>
                <g id="Group_47" transform="translate(18.306 12.606)">
                    <path id="Path_128" d="M627.265 345.27s1.4-4.874 4.655-6.754a3.52 3.52 0 1 1 3.521 6.1c-3.391 1.957-8.176.654-8.176.654z" class="cls-56" transform="translate(-627.265 -338.043)"/>
                </g>
            </g>
            <g id="Group_63" transform="translate(59.024)">
                <g id="Group_49" transform="translate(13.623 9.647)">
                    <path id="Path_129" d="M637.017 421.532c-5.519-63.27 23.661-94.336 23.958-94.645l-1.061-1.019c-.3.307-29.939 31.812-24.363 95.795z" class="cls-57" transform="translate(-634.852 -325.867)"/>
                </g>
                <g id="Group_50" transform="translate(37.996)">
                    <path id="Path_130" d="M644.223 333.643s6.751.055 10.385-3.394a4.69 4.69 0 0 0-6.458-6.8c-3.784 3.588-3.927 10.194-3.927 10.194z" class="cls-57" transform="translate(-644.223 -322.158)"/>
                </g>
                <g id="Group_51" transform="translate(35.632 14.093)">
                    <path id="Path_131" d="M643.314 327.775s1.225 6.64 5.3 9.555a4.69 4.69 0 0 0 5.454-7.63c-4.242-3.035-10.754-1.925-10.754-1.925z" class="cls-57" transform="translate(-643.314 -327.577)"/>
                </g>
                <g id="Group_52" transform="translate(22.783 4.576)">
                    <path id="Path_132" d="M651.48 333.76s-1.693-6.536-5.969-9.152a4.689 4.689 0 1 0-4.9 8c4.45 2.723 10.869 1.152 10.869 1.152z" class="cls-57" transform="translate(-638.373 -323.917)"/>
                </g>
                <g id="Group_53" transform="translate(27.263 27.363)">
                    <path id="Path_133" d="M640.1 333.344s1.995 6.452 6.385 8.868a4.69 4.69 0 0 0 4.515-8.217c-4.566-2.515-10.9-.651-10.9-.651z" class="cls-57" transform="translate(-640.096 -332.679)"/>
                </g>
                <g id="Group_54" transform="translate(13.879 19.303)">
                    <path id="Path_134" d="M648.6 338.4s-2.447-6.294-7-8.392a4.689 4.689 0 1 0-3.927 8.517c4.741 2.189 10.927-.125 10.927-.125z" class="cls-57" transform="translate(-634.95 -329.58)"/>
                </g>
                <g id="Group_55" transform="translate(21.185 42.218)">
                    <path id="Path_135" d="M637.759 339.577s2.567 6.244 7.157 8.257a4.69 4.69 0 0 0 3.763-8.593c-4.779-2.093-10.92.336-10.92.336z" class="cls-57" transform="translate(-637.759 -338.391)"/>
                </g>
                <g id="Group_56" transform="translate(7.474 35.475)">
                    <path id="Path_136" d="M646.476 343.8s-3-6.049-7.727-7.729a4.69 4.69 0 0 0-3.144 8.837c4.913 1.751 10.871-1.108 10.871-1.108z" class="cls-57" transform="translate(-632.487 -335.798)"/>
                </g>
                <g id="Group_57" transform="translate(16.982 55.907)">
                    <path id="Path_137" d="M636.143 346.088s3.573 5.729 8.434 6.946a4.689 4.689 0 0 0 2.278-9.1c-5.055-1.266-10.712 2.154-10.712 2.154z" class="cls-57" transform="translate(-636.143 -343.654)"/>
                </g>
                <g id="Group_58" transform="translate(2.858 51.961)">
                    <path id="Path_138" d="M645.122 348.542s-3.971-5.464-8.907-6.333a4.69 4.69 0 0 0-1.625 9.238c5.136.905 10.532-2.905 10.532-2.905z" class="cls-57" transform="translate(-630.712 -342.137)"/>
                </g>
                <g id="Group_59" transform="translate(14.907 70.53)">
                    <path id="Path_139" d="M635.345 352.535s4.1 5.368 9.053 6.119a4.69 4.69 0 1 0 1.41-9.274c-5.157-.78-10.463 3.155-10.463 3.155z" class="cls-57" transform="translate(-635.345 -349.277)"/>
                </g>
                <g id="Group_60" transform="translate(.666 68.312)">
                    <path id="Path_140" d="M644.4 353.9s-4.471-5.061-9.467-5.462a4.69 4.69 0 0 0-.746 9.35c5.2.412 10.213-3.888 10.213-3.888z" class="cls-57" transform="translate(-629.869 -348.424)"/>
                </g>
                <g id="Group_61" transform="translate(14.241 89.204)">
                    <path id="Path_141" d="M635.089 359.715s4.1 5.365 9.053 6.119a4.69 4.69 0 0 0 1.407-9.274c-5.157-.782-10.46 3.155-10.46 3.155z" class="cls-57" transform="translate(-635.089 -356.457)"/>
                </g>
                <g id="Group_62" transform="translate(0 86.985)">
                    <path id="Path_142" d="M644.14 361.078s-4.468-5.061-9.464-5.459a4.69 4.69 0 1 0-.746 9.35c5.199.413 10.21-3.891 10.21-3.891z" class="cls-57" transform="translate(-629.613 -355.604)"/>
                </g>
            </g>
            <path id="Path_143" d="M638.733 408.864s-8.793-28.2 9.378-32.571c0 0 .918-37.835 27.828-28.239 0 0 3.909-14.769 19.55-14.08s14.918 15.7 14.918 15.7 14.291 2.242 14.291 14.2c0 0-69.975-19.724-75.988 44.99" class="cls-54" transform="translate(-559.396 -303.282)"/>
            <path id="Path_144" d="M638.733 408.864s-8.793-28.2 9.378-32.571c0 0 .918-37.835 27.828-28.239 0 0 3.909-14.769 19.55-14.08s14.918 15.7 14.918 15.7 14.291 2.242 14.291 14.2c0 0-69.975-19.724-75.988 44.99" class="cls-55" transform="translate(-559.396 -303.282)"/>
            <path id="Path_145" fill="none" stroke="#00bfd8" stroke-miterlimit="10" stroke-width="0.531px" d="M622.574 368.788l12.988 49.146a2.491 2.491 0 0 0 2.408 1.854h31.367a2.493 2.493 0 0 0 2.408-1.854l12.988-49.146a4.851 4.851 0 0 0-4.689-6.088H627.26a4.848 4.848 0 0 0-4.686 6.088z" transform="translate(-582.12 -257.261)"/>
            <path id="Line_1" fill="none" stroke="#00bfd8" stroke-linecap="round" stroke-miterlimit="10" stroke-width="0.531px" d="M8.711 0L0 46.089" transform="translate(81.182 111.418)"/>
        </g>
    </g>
</svg>
